<svg width="97" height="98" viewBox="0 0 97 98" fill="none" xmlns="http://www.w3.org/2000/svg">
<g opacity="0.8">
<rect y="0.516144" width="96.5323" height="96.5323" rx="33.0968" fill="#F5EDED"/>
<path d="M82.9573 11.0743H13.5747C11.9062 11.0743 10.5581 12.4224 10.5581 14.091V83.4735C10.5581 85.1421 11.9062 86.4902 13.5747 86.4902H82.9573C84.6259 86.4902 85.9739 85.1421 85.9739 83.4735V14.091C85.9739 12.4224 84.6259 11.0743 82.9573 11.0743ZM79.9407 80.4569H62.5856V57.2854H72.3897L73.8603 45.907H62.5856V38.6388C62.5856 35.3394 63.5 33.0958 68.2229 33.0958H74.2468V22.9146C73.2004 22.7732 69.6276 22.4621 65.4608 22.4621C56.7692 22.4621 50.8207 27.7695 50.8207 37.5076V45.8976H40.9978V57.276H50.8302V80.4569H16.5914V17.1076H79.9407V80.4569Z" fill="#4267B2"/>
</g>
</svg>
