<svg width="784" height="813" viewBox="0 0 784 813" fill="none" xmlns="http://www.w3.org/2000/svg">
<g id="project_svg" opacity="0.88">
<g id="Svg">
<g id="projects_list">
<path id="Vector" d="M180.527 167.985H101.218V140.043H142.616L180.527 167.985Z" fill="#4FD965" fill-opacity="0.91"/>
<path id="Vector_2" d="M101 164.15V245.786H358.538V164.15H101ZM201.444 232.089H117.777V220.583H201.444V232.089ZM341.761 210.721H117.777V199.215H341.761V210.721ZM341.761 189.353H117.777V177.847H341.761V189.353Z" fill="#443C3D"/>
<path id="Vector_3" d="M180.527 35.9429H101.218V8H142.616L180.527 35.9429Z" fill="#4FD965" fill-opacity="0.91"/>
<path id="Vector_4" d="M101 33.7511V115.387H358.538V33.7511H101ZM201.444 101.69H117.777V90.1843H201.444V101.69ZM249.815 80.3222H117.777V68.8164H249.815L249.815 80.3222ZM341.761 58.9543H117.777V47.4485H341.761V58.9543Z" fill="#443C3D"/>
<path id="Vector_5" d="M180.527 297.288H101.218V269.346H142.616L180.527 297.288Z" fill="#4FD965" fill-opacity="0.91"/>
<path id="Vector_6" d="M101 291.809V373.446H358.538V291.809H101ZM249.815 359.748H117.777V348.243H249.815V359.748ZM249.815 338.38H117.777V326.875H249.815V338.38ZM341.761 317.013H117.777V305.507H341.761V317.013Z" fill="#443C3D"/>
<path id="Vector_7" d="M431.53 97.3071H394.925V51.2836H419.764V52.3792H395.797V96.2114H430.658V74.2953H431.53V97.3071Z" fill="#443C3D"/>
<path id="Vector_8" d="M413.039 85.3024C412.193 82.162 401.585 71.487 408.085 69.6928L413.416 78.6292L437.923 47.8166L440.388 50.9156L413.039 85.3024Z" fill="#4FD965" fill-opacity="0.91"/>
<path id="Vector_9" d="M431.53 227.706H394.925V181.682H419.764V182.779H395.797V226.61H430.658V204.694H431.53V227.706Z" fill="#443C3D"/>
<path id="Vector_10" d="M413.039 215.701C412.193 212.561 401.585 201.886 408.085 200.092L413.416 209.028L437.923 178.215L440.388 181.315L413.039 215.701Z" fill="#4FD965" fill-opacity="0.91"/>
<path id="Vector_11" d="M431.53 357.557H394.925V311.534H419.764V312.63H395.797V356.461H430.658V334.545H431.53V357.557Z" fill="#443C3D"/>
<path id="Vector_12" d="M413.039 345.552C412.193 342.412 401.585 331.737 408.085 329.943L413.416 338.879L437.923 308.067L440.388 311.166L413.039 345.552Z" fill="#4FD965" fill-opacity="0.91"/>
</g>
<g id="projects_list_2">
<path id="Vector_13" d="M180.527 564.985H101.218V537.043H142.616L180.527 564.985Z" fill="#4FD965" fill-opacity="0.91"/>
<path id="Vector_14" d="M101 561.15V642.786H358.538V561.15H101ZM201.444 629.089H117.777V617.583H201.444V629.089ZM341.761 607.721H117.777V596.215H341.761V607.721ZM341.761 586.353H117.777V574.847H341.761V586.353Z" fill="#443C3D"/>
<path id="Vector_15" d="M180.527 432.943H101.218V405H142.616L180.527 432.943Z" fill="#4FD965" fill-opacity="0.91"/>
<path id="Vector_16" d="M101 430.751V512.387H358.538V430.751H101ZM201.444 498.69H117.777V487.184H201.444V498.69ZM249.815 477.322H117.777V465.816H249.815L249.815 477.322ZM341.761 455.954H117.777V444.448H341.761V455.954Z" fill="#443C3D"/>
<path id="Vector_17" d="M180.527 694.288H101.218V666.346H142.616L180.527 694.288Z" fill="#4FD965" fill-opacity="0.91"/>
<path id="Vector_18" d="M101 688.809V770.446H358.538V688.809H101ZM249.815 756.748H117.777V745.243H249.815V756.748ZM249.815 735.38H117.777V723.875H249.815V735.38ZM341.761 714.013H117.777V702.507H341.761V714.013Z" fill="#443C3D"/>
<path id="Vector_19" d="M431.53 494.307H394.925V448.284H419.764V449.379H395.797V493.211H430.658V471.295H431.53V494.307Z" fill="#443C3D"/>
<path id="Vector_20" d="M413.039 482.302C412.193 479.162 401.585 468.487 408.085 466.693L413.416 475.629L437.923 444.817L440.388 447.916L413.039 482.302Z" fill="#4FD965" fill-opacity="0.91"/>
<path id="Vector_21" d="M431.53 624.706H394.925V578.682H419.764V579.779H395.797V623.61H430.658V601.694H431.53V624.706Z" fill="#443C3D"/>
<path id="Vector_22" d="M413.039 612.701C412.193 609.561 401.585 598.886 408.085 597.092L413.416 606.028L437.923 575.215L440.388 578.315L413.039 612.701Z" fill="#4FD965" fill-opacity="0.91"/>
<path id="Vector_23" d="M431.53 754.557H394.925V708.534H419.764V709.63H395.797V753.461H430.658V731.545H431.53V754.557Z" fill="#443C3D"/>
<path id="Vector_24" d="M413.039 742.552C412.193 739.412 401.585 728.737 408.085 726.943L413.416 735.879L437.923 705.067L440.388 708.166L413.039 742.552Z" fill="#4FD965" fill-opacity="0.91"/>
</g>
<g id="boy">
<path id="Vector_25" d="M583.296 161.766C583.296 161.766 593.68 187.728 570.315 200.026C546.95 212.324 632.622 235.553 641.709 205.492C641.709 205.492 618.344 195.927 628.728 167.231L583.296 161.766Z" fill="#FFB9B9"/>
<path id="Vector_26" d="M611.205 698.09L609.906 726.786L631.973 730.885V702.19L611.205 698.09Z" fill="#FFB9B9"/>
<path id="Vector_27" d="M528.128 698.09L529.426 726.786L507.359 730.885V702.19L528.128 698.09Z" fill="#FFB9B9"/>
<path id="Vector_28" d="M608.608 177.48C628.681 177.48 644.954 160.35 644.954 139.22C644.954 118.089 628.681 100.96 608.608 100.96C588.535 100.96 572.262 118.089 572.262 139.22C572.262 160.35 588.535 177.48 608.608 177.48Z" fill="#FFB9B9"/>
<path id="Vector_29" d="M659.234 416.606L657.935 427.536L664.426 453.499L673.511 430.27L659.234 416.606Z" fill="#FFB9B9"/>
<path id="Vector_30" d="M515.147 420.705L507.359 517.722C507.359 517.722 498.272 535.485 503.465 550.516C503.465 550.516 495.676 571.012 498.272 577.845C500.868 584.677 502.166 591.509 499.57 594.242C496.974 596.975 495.676 673.495 499.57 680.327C503.464 687.159 506.061 703.556 506.061 703.556C506.061 703.556 528.128 709.022 533.32 693.991C538.512 678.961 535.916 677.594 541.108 673.495C546.301 669.396 546.301 612.005 546.301 612.005C546.301 612.005 539.81 605.173 543.705 602.44C547.599 599.707 550.195 602.44 546.301 595.608C542.406 588.776 535.916 588.776 542.407 586.043C546.023 584.568 549.5 582.738 552.791 580.577L590.435 476.728C590.435 476.728 604.714 592.875 607.31 598.341C609.906 603.807 613.8 596.975 609.906 603.807C606.012 610.639 604.714 606.54 606.012 610.639C607.31 614.738 598.223 673.495 603.416 685.793C606.446 692.901 609.047 700.203 611.204 707.656C611.204 707.656 631.973 717.221 634.569 710.389C637.165 703.556 635.867 691.258 639.761 689.892C643.656 688.526 647.55 685.793 647.55 674.861C647.55 663.93 655.338 610.639 655.338 610.639C655.338 610.639 646.252 606.54 648.848 599.707C651.444 592.875 651.444 594.242 650.146 588.776C648.848 583.31 646.252 581.944 648.848 577.845C651.444 573.745 651.444 561.447 651.444 561.447L667.021 453.499L654.992 416.605L515.147 420.705Z" fill="#2F2E41"/>
<path id="Vector_31" d="M612.502 719.954C612.502 719.954 608.608 715.854 607.31 719.954C606.012 724.053 606.012 762.313 606.012 762.313C606.012 762.313 616.396 770.512 616.396 774.611C616.396 778.71 624.185 792.375 642.358 789.642C642.539 789.614 642.719 789.586 642.897 789.556C645.528 789.107 648.024 788.02 650.187 786.381C652.35 784.742 654.121 782.595 655.361 780.111C656.6 777.627 657.274 774.874 657.329 772.069C657.383 769.264 656.817 766.484 655.675 763.949L637.165 722.686C637.165 722.686 624.185 709.022 612.502 719.954Z" fill="#2F2E41"/>
<path id="Vector_32" d="M526.83 719.954C526.83 719.954 530.724 715.854 532.022 719.954C533.32 724.053 533.32 762.313 533.32 762.313C533.32 762.313 522.936 770.512 522.936 774.611C522.936 778.71 515.147 792.375 496.974 789.642C496.793 789.614 496.613 789.586 496.435 789.556C493.804 789.107 491.308 788.02 489.145 786.381C486.982 784.741 485.211 782.595 483.971 780.111C482.732 777.627 482.058 774.874 482.004 772.069C481.949 769.264 482.515 766.484 483.657 763.949L502.167 722.686C502.167 722.686 515.147 709.022 526.83 719.954Z" fill="#2F2E41"/>
<path id="Vector_33" d="M580.906 97.7777L574.412 95.0411C574.412 95.0411 587.99 79.3052 606.881 80.6736L601.568 74.516C601.568 74.516 614.556 69.0427 626.363 83.4102C632.569 90.9629 639.75 99.8406 644.227 109.841H651.182L648.279 116.569L658.438 123.297L648.011 122.088C648.999 127.896 648.661 133.868 647.025 139.512L647.304 144.829C647.304 144.829 635.218 125.144 635.218 122.408V129.249C635.218 129.249 628.724 123.092 628.724 118.987L625.182 123.776L623.411 116.25L601.568 123.776L605.11 117.619L591.532 119.671L596.845 112.145C596.845 112.145 581.496 121.039 580.906 128.565C580.316 136.091 572.641 145.669 572.641 145.669L569.099 138.828C569.099 138.828 563.786 108.04 580.906 97.7777Z" fill="#2F2E41"/>
<path id="Vector_34" d="M664.425 223.938H678.887C679.95 223.938 680.981 224.318 681.811 225.017C682.641 225.715 683.221 226.69 683.454 227.781C685.686 238.184 691.437 267.671 690.386 290.894C689.088 319.589 691.684 340.085 690.386 344.185C689.088 348.284 690.386 349.65 690.386 353.75C690.386 357.849 694.28 355.116 690.386 360.582C686.492 366.048 686.492 364.681 686.492 368.78C686.492 372.88 673.511 435.736 673.511 435.736C673.511 435.736 664.587 420.296 654.771 423.233L656.636 367.414L659.233 344.185L655.338 303.192L664.425 223.938Z" fill="#443C3D"/>
<path id="Vector_35" d="M601.469 209.591C601.469 209.591 579.402 208.747 572.262 198.921C572.262 198.921 526.181 215.057 520.989 228.721C515.796 242.385 539.162 303.875 539.162 303.875C539.162 303.875 498.921 429.587 518.392 429.587C537.863 429.587 581.998 445.984 607.959 436.419C624.046 430.546 640.536 425.978 657.285 422.755C657.285 422.755 659.882 385.861 657.285 379.029C654.689 372.197 648.199 376.296 652.093 366.731C655.987 357.166 654.689 355.799 653.391 351.7C652.093 347.601 655.987 342.135 655.987 336.669C655.987 331.204 654.689 318.906 654.689 318.906C654.689 318.906 689.737 232.82 681.949 224.622C674.16 216.423 634.515 200.626 634.515 200.626C634.515 200.626 623.536 215.057 601.469 209.591Z" fill="#443C3D"/>
<path id="Vector_36" d="M499.571 430.27C499.571 430.27 487.888 494.492 507.359 489.026C526.83 483.561 517.743 430.27 517.743 430.27H499.571Z" fill="#FFB9B9"/>
<path id="Vector_37" d="M529.426 223.938L524.815 226.365C523.021 227.309 521.458 228.678 520.25 230.364C519.042 232.05 518.221 234.008 517.851 236.084L499.57 338.719C499.57 338.719 494.378 351.017 494.378 352.383C494.378 353.75 496.974 353.75 494.378 357.849C491.782 361.948 487.887 360.582 490.484 363.315C491.965 364.733 492.891 366.682 493.08 368.78L495.676 435.736C495.676 435.736 517.743 428.904 524.233 435.736C524.233 435.736 517.743 415.239 521.637 408.407C525.531 401.575 525.531 392.01 525.531 392.01C525.531 392.01 522.935 392.01 529.425 385.178C535.916 378.345 537.214 375.613 535.916 374.246C534.618 372.88 533.32 360.582 533.32 359.215C533.32 357.849 546.3 266.298 546.3 266.298L529.426 223.938Z" fill="#443C3D"/>
</g>
</g>
</g>
</svg>
