<svg width="794" height="504" viewBox="0 0 794 504" fill="none" xmlns="http://www.w3.org/2000/svg">
<g id="Languages">
<g id="Rectangle 9" filter="url(#filter0_d)">
<rect x="7" y="7" width="780" height="490" rx="27" fill="#AAA5A5" fill-opacity="0.06"/>
</g>
<g id="HTML">
<path id="HTML_2" d="M124.84 141H123.364V131.069H111.064V141H109.606V121.046H111.064V129.611H123.364V121.046H124.84V141ZM143.774 122.504H136.794V141H135.336V122.504H128.43V121.046H143.774V122.504ZM165.932 141H164.475V123.433L157.295 141H155.764L148.603 123.433V141H147.145V121.046H149.259L156.53 139.178L163.855 121.046H165.932V141ZM182.789 141H171.035V121.046H172.493V139.542H182.789V141Z" fill="#F5EDED"/>
<rect id="Rectangle 3" x="262.497" y="115.617" width="466.503" height="31.1002" rx="6.61689" fill="#C4C4C4"/>
<rect id="Rectangle 7" x="262.497" y="115.617" width="349.877" height="31.1002" rx="6.61689" fill="#4FD965" fill-opacity="0.91"/>
<path id="75%" d="M573.655 128.156L569.974 137.44H569.154L572.826 128.21H567.368V127.463H573.655V128.156ZM583.231 134.133C583.231 134.625 583.161 135.083 583.022 135.508C582.888 135.934 582.681 136.304 582.402 136.62C582.129 136.93 581.785 137.176 581.372 137.358C580.959 137.534 580.476 137.622 579.924 137.622C579.529 137.622 579.161 137.568 578.821 137.458C578.481 137.349 578.177 137.191 577.91 136.985C577.649 136.772 577.43 136.511 577.254 136.201C577.084 135.885 576.972 135.524 576.917 135.117H577.728C577.783 135.426 577.877 135.694 578.01 135.918C578.144 136.143 578.308 136.329 578.502 136.474C578.703 136.614 578.921 136.72 579.158 136.793C579.401 136.86 579.656 136.893 579.924 136.893C580.367 136.893 580.75 136.814 581.072 136.657C581.4 136.499 581.67 136.292 581.883 136.037C582.095 135.776 582.25 135.484 582.347 135.162C582.451 134.834 582.502 134.5 582.502 134.16C582.502 133.808 582.448 133.483 582.338 133.185C582.229 132.887 582.068 132.629 581.855 132.411C581.649 132.192 581.394 132.022 581.09 131.9C580.786 131.779 580.44 131.718 580.051 131.718C579.669 131.718 579.289 131.785 578.912 131.919C578.542 132.052 578.22 132.265 577.947 132.556H577.199C577.266 131.682 577.333 130.831 577.4 130.005C577.467 129.179 577.537 128.332 577.609 127.463H582.748V128.192H578.375L578.038 131.645C578.177 131.512 578.335 131.402 578.511 131.317C578.694 131.226 578.882 131.159 579.076 131.117C579.271 131.068 579.468 131.035 579.669 131.017C579.869 130.998 580.06 130.989 580.243 130.989C580.668 130.989 581.063 131.071 581.427 131.235C581.798 131.399 582.113 131.624 582.375 131.909C582.642 132.189 582.851 132.52 583.003 132.903C583.155 133.285 583.231 133.695 583.231 134.133ZM593.163 132.329C593.819 132.329 594.332 132.559 594.702 133.021C595.079 133.477 595.267 134.124 595.267 134.962C595.267 135.806 595.079 136.462 594.702 136.93C594.332 137.391 593.819 137.622 593.163 137.622C592.513 137.622 592.002 137.391 591.632 136.93C591.261 136.468 591.076 135.812 591.076 134.962C591.076 134.124 591.261 133.477 591.632 133.021C592.002 132.559 592.513 132.329 593.163 132.329ZM587.605 127.281C587.927 127.281 588.215 127.342 588.47 127.463C588.731 127.585 588.95 127.761 589.126 127.992C589.308 128.216 589.448 128.493 589.545 128.821C589.643 129.149 589.691 129.522 589.691 129.941C589.691 130.786 589.503 131.436 589.126 131.891C588.756 132.347 588.248 132.575 587.605 132.575C586.949 132.575 586.435 132.347 586.065 131.891C585.694 131.436 585.509 130.786 585.509 129.941C585.509 129.097 585.694 128.444 586.065 127.982C586.435 127.515 586.949 127.281 587.605 127.281ZM587.605 132.028C588.012 132.028 588.33 131.864 588.561 131.536C588.798 131.202 588.917 130.67 588.917 129.941C588.917 129.206 588.798 128.672 588.561 128.338C588.33 128.004 588.012 127.837 587.605 127.837C587.192 127.837 586.867 128.004 586.63 128.338C586.393 128.672 586.274 129.206 586.274 129.941C586.274 130.67 586.393 131.202 586.63 131.536C586.867 131.864 587.192 132.028 587.605 132.028ZM593.163 137.076C593.576 137.076 593.898 136.909 594.128 136.575C594.365 136.234 594.484 135.697 594.484 134.962C594.484 134.233 594.365 133.704 594.128 133.376C593.891 133.042 593.57 132.875 593.163 132.875C592.756 132.875 592.434 133.042 592.197 133.376C591.966 133.704 591.851 134.233 591.851 134.962C591.851 135.697 591.966 136.234 592.197 136.575C592.434 136.909 592.756 137.076 593.163 137.076ZM593.427 127.463L588.124 137.44H587.331L592.634 127.463H593.427Z" fill="black"/>
</g>
<g id="CPP">
<path id="C++" d="M124.093 205.385C123.959 204.79 123.71 204.237 123.346 203.727C122.981 203.205 122.526 202.755 121.979 202.379C121.432 201.99 120.801 201.686 120.084 201.467C119.379 201.249 118.62 201.139 117.806 201.139C116.652 201.139 115.601 201.328 114.654 201.704C113.718 202.081 112.916 202.64 112.248 203.381C111.592 204.11 111.082 205.027 110.717 206.132C110.365 207.226 110.189 208.501 110.189 209.959C110.189 211.417 110.365 212.705 110.717 213.822C111.082 214.928 111.592 215.857 112.248 216.611C112.916 217.364 113.712 217.935 114.635 218.324C115.571 218.712 116.609 218.907 117.751 218.907C119.477 218.907 120.898 218.524 122.016 217.759C123.133 216.981 123.826 215.851 124.093 214.369H125.605C125.46 215.317 125.162 216.167 124.713 216.92C124.263 217.661 123.698 218.287 123.018 218.797C122.338 219.308 121.554 219.696 120.667 219.964C119.78 220.231 118.821 220.364 117.788 220.364C116.379 220.364 115.109 220.121 113.979 219.636C112.862 219.137 111.908 218.439 111.118 217.54C110.329 216.641 109.721 215.554 109.296 214.278C108.871 212.99 108.658 211.551 108.658 209.959C108.658 208.38 108.871 206.959 109.296 205.695C109.721 204.432 110.329 203.357 111.118 202.47C111.92 201.571 112.88 200.884 113.998 200.411C115.127 199.925 116.391 199.682 117.788 199.682C118.748 199.682 119.659 199.821 120.521 200.101C121.396 200.38 122.18 200.775 122.872 201.285C123.565 201.783 124.148 202.385 124.621 203.089C125.095 203.782 125.423 204.547 125.605 205.385H124.093ZM141.259 212.474H136.612V217.194H135.027V212.474H130.307V210.889H135.027V206.205H136.612V210.889H141.259V212.474ZM157.951 212.474H153.304V217.194H151.719V212.474H146.999V210.889H151.719V206.205H153.304V210.889H157.951V212.474Z" fill="#F5EDED"/>
<rect id="Rectangle 3_2" x="262.497" y="193.617" width="466.503" height="31.1002" rx="6.61689" fill="#C4C4C4"/>
<rect id="Rectangle 7_2" x="262.497" y="193.617" width="303.227" height="31.1002" rx="6.61689" fill="#4FD965" fill-opacity="0.91"/>
<path id="65%" d="M523.807 211.592C523.807 211.264 523.755 210.951 523.652 210.654C523.555 210.35 523.412 210.086 523.223 209.861C523.035 209.63 522.801 209.448 522.522 209.314C522.249 209.175 521.939 209.105 521.593 209.105C521.398 209.105 521.195 209.138 520.982 209.205C520.776 209.266 520.572 209.351 520.372 209.46C520.171 209.569 519.977 209.7 519.789 209.852C519.6 209.998 519.43 210.155 519.278 210.326C519.303 211.577 519.524 212.521 519.943 213.159C520.363 213.797 520.924 214.116 521.629 214.116C521.975 214.116 522.282 214.046 522.549 213.906C522.823 213.761 523.05 213.572 523.233 213.341C523.421 213.105 523.564 212.834 523.661 212.531C523.758 212.227 523.807 211.914 523.807 211.592ZM524.627 211.501C524.627 211.95 524.566 212.379 524.444 212.786C524.329 213.187 524.147 213.539 523.898 213.843C523.649 214.146 523.336 214.389 522.959 214.571C522.583 214.754 522.148 214.845 521.656 214.845C521.128 214.845 520.663 214.739 520.262 214.526C519.861 214.313 519.524 214.004 519.251 213.597C518.978 213.19 518.771 212.688 518.631 212.093C518.492 211.498 518.422 210.818 518.422 210.052C518.422 208.224 518.692 206.842 519.233 205.907C519.773 204.971 520.618 204.503 521.766 204.503C522.458 204.503 523.035 204.698 523.497 205.087C523.958 205.475 524.262 206.034 524.408 206.763H523.679C523.588 206.271 523.363 205.894 523.005 205.633C522.646 205.372 522.212 205.241 521.702 205.241C521.356 205.241 521.037 205.336 520.745 205.524C520.46 205.706 520.208 205.976 519.989 206.335C519.77 206.687 519.594 207.121 519.46 207.638C519.327 208.148 519.245 208.731 519.214 209.387C519.621 209.059 520.031 208.81 520.445 208.64C520.864 208.464 521.319 208.376 521.811 208.376C522.236 208.376 522.622 208.461 522.968 208.631C523.321 208.795 523.618 209.023 523.861 209.314C524.104 209.6 524.293 209.931 524.426 210.307C524.56 210.684 524.627 211.082 524.627 211.501ZM534.248 211.355C534.248 211.847 534.178 212.306 534.039 212.731C533.905 213.156 533.699 213.527 533.419 213.843C533.146 214.152 532.803 214.398 532.39 214.581C531.977 214.757 531.494 214.845 530.941 214.845C530.546 214.845 530.179 214.79 529.838 214.681C529.498 214.571 529.194 214.414 528.927 214.207C528.666 213.994 528.447 213.733 528.271 213.423C528.101 213.108 527.989 212.746 527.934 212.339H528.745C528.8 212.649 528.894 212.916 529.027 213.141C529.161 213.366 529.325 213.551 529.519 213.697C529.72 213.836 529.939 213.943 530.175 214.016C530.418 214.083 530.674 214.116 530.941 214.116C531.384 214.116 531.767 214.037 532.089 213.879C532.417 213.721 532.687 213.515 532.9 213.259C533.112 212.998 533.267 212.707 533.364 212.385C533.468 212.057 533.519 211.723 533.519 211.382C533.519 211.03 533.465 210.705 533.355 210.408C533.246 210.11 533.085 209.852 532.872 209.633C532.666 209.414 532.411 209.244 532.107 209.123C531.803 209.001 531.457 208.941 531.068 208.941C530.686 208.941 530.306 209.007 529.929 209.141C529.559 209.275 529.237 209.487 528.964 209.779H528.217C528.283 208.904 528.35 208.054 528.417 207.228C528.484 206.402 528.554 205.554 528.627 204.686H533.765V205.415H529.392L529.055 208.868C529.194 208.734 529.352 208.625 529.529 208.54C529.711 208.449 529.899 208.382 530.093 208.339C530.288 208.291 530.485 208.257 530.686 208.239C530.886 208.221 531.078 208.212 531.26 208.212C531.685 208.212 532.08 208.294 532.444 208.458C532.815 208.622 533.131 208.846 533.392 209.132C533.659 209.411 533.869 209.742 534.02 210.125C534.172 210.508 534.248 210.918 534.248 211.355ZM544.18 209.551C544.836 209.551 545.349 209.782 545.72 210.244C546.096 210.699 546.284 211.346 546.284 212.184C546.284 213.029 546.096 213.685 545.72 214.152C545.349 214.614 544.836 214.845 544.18 214.845C543.53 214.845 543.02 214.614 542.649 214.152C542.278 213.691 542.093 213.035 542.093 212.184C542.093 211.346 542.278 210.699 542.649 210.244C543.02 209.782 543.53 209.551 544.18 209.551ZM538.622 204.503C538.944 204.503 539.232 204.564 539.487 204.686C539.749 204.807 539.967 204.983 540.143 205.214C540.326 205.439 540.465 205.715 540.562 206.043C540.66 206.371 540.708 206.745 540.708 207.164C540.708 208.008 540.52 208.658 540.143 209.114C539.773 209.569 539.266 209.797 538.622 209.797C537.966 209.797 537.452 209.569 537.082 209.114C536.711 208.658 536.526 208.008 536.526 207.164C536.526 206.32 536.711 205.667 537.082 205.205C537.452 204.737 537.966 204.503 538.622 204.503ZM538.622 209.25C539.029 209.25 539.348 209.086 539.578 208.758C539.815 208.424 539.934 207.893 539.934 207.164C539.934 206.429 539.815 205.894 539.578 205.56C539.348 205.226 539.029 205.059 538.622 205.059C538.209 205.059 537.884 205.226 537.647 205.56C537.41 205.894 537.291 206.429 537.291 207.164C537.291 207.893 537.41 208.424 537.647 208.758C537.884 209.086 538.209 209.25 538.622 209.25ZM544.18 214.298C544.593 214.298 544.915 214.131 545.146 213.797C545.382 213.457 545.501 212.919 545.501 212.184C545.501 211.455 545.382 210.927 545.146 210.599C544.909 210.265 544.587 210.098 544.18 210.098C543.773 210.098 543.451 210.265 543.214 210.599C542.983 210.927 542.868 211.455 542.868 212.184C542.868 212.919 542.983 213.457 543.214 213.797C543.451 214.131 543.773 214.298 544.18 214.298ZM544.444 204.686L539.141 214.663H538.348L543.651 204.686H544.444Z" fill="black"/>
</g>
<g id="JAVA">
<path id="JAVA_2" d="M118.462 292.768C118.462 293.971 118.353 294.991 118.134 295.829C117.915 296.655 117.587 297.336 117.15 297.87C116.713 298.393 116.166 298.769 115.51 299C114.866 299.243 114.107 299.364 113.232 299.364C112.467 299.364 111.774 299.243 111.155 299C110.535 298.745 110.007 298.386 109.569 297.925C109.132 297.463 108.798 296.91 108.567 296.267C108.336 295.611 108.221 294.876 108.221 294.062L109.679 294.043C109.739 295.368 110.061 296.346 110.645 296.977C111.24 297.597 112.102 297.907 113.232 297.907C113.815 297.907 114.338 297.846 114.799 297.724C115.273 297.591 115.674 297.342 116.002 296.977C116.33 296.613 116.579 296.109 116.749 295.465C116.919 294.821 117.004 293.977 117.004 292.932V279.046H118.462V292.768ZM139.564 299H137.815L135.373 292.586H125.551C125.198 293.594 124.816 294.663 124.403 295.793C123.99 296.91 123.595 297.98 123.218 299H121.669C122.325 297.275 122.969 295.586 123.601 293.934C124.245 292.282 124.883 290.642 125.514 289.014C126.146 287.374 126.778 285.728 127.41 284.076C128.053 282.423 128.703 280.741 129.359 279.028H131.419L139.564 299ZM134.954 291.438L130.325 280.34L125.933 291.438H134.954ZM158.279 279.046L150.461 299H148.584L140.767 279.046H142.389L149.532 297.178L156.675 279.046H158.279ZM177.395 299H175.645L173.203 292.586H163.381C163.029 293.594 162.646 294.663 162.233 295.793C161.82 296.91 161.425 297.98 161.049 299H159.5C160.156 297.275 160.8 295.586 161.431 293.934C162.075 292.282 162.713 290.642 163.345 289.014C163.977 287.374 164.608 285.728 165.24 284.076C165.884 282.423 166.534 280.741 167.19 279.028H169.249L177.395 299ZM172.784 291.438L168.156 280.34L163.764 291.438H172.784Z" fill="#F5EDED"/>
<rect id="Rectangle 3_3" x="262.497" y="273.617" width="466.503" height="31.1002" rx="6.61689" fill="#C4C4C4"/>
<rect id="Rectangle 7_3" x="262.497" y="273.617" width="233.252" height="31.1002" rx="6.61689" fill="#4FD965" fill-opacity="0.91"/>
<path id="50%" d="M445.376 292.133C445.376 292.625 445.306 293.083 445.166 293.508C445.033 293.934 444.826 294.304 444.547 294.62C444.273 294.93 443.93 295.176 443.517 295.358C443.104 295.534 442.621 295.622 442.068 295.622C441.674 295.622 441.306 295.568 440.966 295.458C440.626 295.349 440.322 295.191 440.055 294.985C439.794 294.772 439.575 294.511 439.399 294.201C439.229 293.885 439.116 293.524 439.062 293.117H439.872C439.927 293.426 440.021 293.694 440.155 293.918C440.289 294.143 440.453 294.328 440.647 294.474C440.847 294.614 441.066 294.72 441.303 294.793C441.546 294.86 441.801 294.893 442.068 294.893C442.512 294.893 442.894 294.814 443.216 294.656C443.544 294.499 443.815 294.292 444.027 294.037C444.24 293.776 444.395 293.484 444.492 293.162C444.595 292.834 444.647 292.5 444.647 292.16C444.647 291.808 444.592 291.483 444.483 291.185C444.374 290.887 444.213 290.629 444 290.411C443.793 290.192 443.538 290.022 443.235 289.9C442.931 289.779 442.585 289.718 442.196 289.718C441.813 289.718 441.434 289.785 441.057 289.919C440.686 290.052 440.365 290.265 440.091 290.556H439.344C439.411 289.682 439.478 288.831 439.544 288.005C439.611 287.179 439.681 286.332 439.754 285.463H444.893V286.192H440.519L440.182 289.645C440.322 289.512 440.48 289.402 440.656 289.317C440.838 289.226 441.027 289.159 441.221 289.117C441.415 289.068 441.613 289.035 441.813 289.017C442.014 288.998 442.205 288.989 442.387 288.989C442.812 288.989 443.207 289.071 443.572 289.235C443.942 289.399 444.258 289.624 444.519 289.909C444.787 290.189 444.996 290.52 445.148 290.903C445.3 291.285 445.376 291.695 445.376 292.133ZM455.38 290.447C455.38 291.146 455.298 291.808 455.134 292.433C454.97 293.059 454.733 293.609 454.423 294.082C454.12 294.556 453.743 294.933 453.294 295.212C452.85 295.486 452.346 295.622 451.781 295.622C451.216 295.622 450.712 295.483 450.269 295.203C449.825 294.924 449.449 294.547 449.139 294.073C448.835 293.6 448.601 293.05 448.437 292.424C448.279 291.799 448.2 291.14 448.2 290.447C448.2 289.755 448.279 289.096 448.437 288.47C448.601 287.844 448.835 287.298 449.139 286.83C449.442 286.356 449.816 285.979 450.259 285.7C450.709 285.421 451.216 285.281 451.781 285.281C452.346 285.281 452.85 285.421 453.294 285.7C453.743 285.973 454.123 286.347 454.433 286.821C454.742 287.288 454.976 287.835 455.134 288.461C455.298 289.086 455.38 289.748 455.38 290.447ZM454.66 290.447C454.66 289.846 454.597 289.278 454.469 288.743C454.347 288.203 454.165 287.732 453.922 287.331C453.685 286.93 453.388 286.611 453.029 286.374C452.671 286.137 452.258 286.019 451.79 286.019C451.329 286.019 450.919 286.137 450.56 286.374C450.208 286.605 449.91 286.924 449.667 287.331C449.424 287.732 449.239 288.203 449.111 288.743C448.99 289.278 448.929 289.846 448.929 290.447C448.929 291.042 448.99 291.607 449.111 292.142C449.233 292.676 449.412 293.147 449.649 293.554C449.892 293.961 450.193 294.283 450.551 294.52C450.909 294.757 451.322 294.875 451.79 294.875C452.264 294.875 452.68 294.757 453.038 294.52C453.397 294.277 453.694 293.952 453.931 293.545C454.174 293.138 454.357 292.667 454.478 292.133C454.6 291.598 454.66 291.036 454.66 290.447ZM464.874 290.329C465.53 290.329 466.043 290.559 466.414 291.021C466.791 291.477 466.979 292.124 466.979 292.962C466.979 293.806 466.791 294.462 466.414 294.93C466.043 295.391 465.53 295.622 464.874 295.622C464.224 295.622 463.714 295.391 463.343 294.93C462.973 294.468 462.788 293.812 462.788 292.962C462.788 292.124 462.973 291.477 463.343 291.021C463.714 290.559 464.224 290.329 464.874 290.329ZM459.316 285.281C459.638 285.281 459.927 285.342 460.182 285.463C460.443 285.585 460.662 285.761 460.838 285.992C461.02 286.216 461.16 286.493 461.257 286.821C461.354 287.149 461.403 287.522 461.403 287.941C461.403 288.786 461.214 289.436 460.838 289.891C460.467 290.347 459.96 290.575 459.316 290.575C458.66 290.575 458.147 290.347 457.776 289.891C457.406 289.436 457.221 288.786 457.221 287.941C457.221 287.097 457.406 286.444 457.776 285.982C458.147 285.515 458.66 285.281 459.316 285.281ZM459.316 290.028C459.723 290.028 460.042 289.864 460.273 289.536C460.51 289.202 460.628 288.67 460.628 287.941C460.628 287.206 460.51 286.672 460.273 286.338C460.042 286.004 459.723 285.837 459.316 285.837C458.903 285.837 458.578 286.004 458.341 286.338C458.104 286.672 457.986 287.206 457.986 287.941C457.986 288.67 458.104 289.202 458.341 289.536C458.578 289.864 458.903 290.028 459.316 290.028ZM464.874 295.076C465.287 295.076 465.609 294.909 465.84 294.574C466.077 294.234 466.195 293.697 466.195 292.962C466.195 292.233 466.077 291.704 465.84 291.376C465.603 291.042 465.281 290.875 464.874 290.875C464.467 290.875 464.145 291.042 463.908 291.376C463.678 291.704 463.562 292.233 463.562 292.962C463.562 293.697 463.678 294.234 463.908 294.574C464.145 294.909 464.467 295.076 464.874 295.076ZM465.138 285.463L459.836 295.44H459.043L464.346 285.463H465.138Z" fill="black"/>
</g>
<g id="PYTHON">
<path id="PYTHON_2" d="M109.606 358.046H116.859C117.83 358.046 118.766 358.125 119.665 358.283C120.564 358.441 121.353 358.732 122.034 359.158C122.726 359.571 123.273 360.136 123.674 360.852C124.087 361.569 124.293 362.48 124.293 363.586C124.293 365.542 123.674 367.03 122.435 368.05C121.208 369.071 119.41 369.581 117.041 369.581H111.064V378H109.606V358.046ZM111.064 368.123H117.095C118.116 368.123 118.985 368.026 119.701 367.832C120.418 367.637 121.001 367.352 121.451 366.975C121.912 366.599 122.246 366.137 122.453 365.59C122.659 365.031 122.763 364.388 122.763 363.659C122.763 362.772 122.605 362.055 122.289 361.508C121.985 360.962 121.566 360.543 121.032 360.251C120.509 359.947 119.902 359.747 119.209 359.65C118.517 359.552 117.788 359.504 117.023 359.504H111.064V368.123ZM143.919 358.046L136.12 369.435V378H134.662V369.435L126.79 358.046H128.503L135.391 367.905L142.225 358.046H143.919ZM161.158 359.504H154.179V378H152.721V359.504H145.815V358.046H161.158V359.504ZM179.982 378H178.506V368.069H166.206V378H164.748V358.046H166.206V366.611H178.506V358.046H179.982V378ZM193.631 357.682C194.992 357.682 196.249 357.925 197.403 358.411C198.557 358.896 199.547 359.589 200.374 360.488C201.212 361.387 201.862 362.468 202.323 363.732C202.797 364.995 203.034 366.404 203.034 367.959C203.034 369.502 202.803 370.911 202.342 372.187C201.88 373.463 201.23 374.562 200.392 375.485C199.566 376.396 198.576 377.107 197.421 377.617C196.279 378.115 195.016 378.364 193.631 378.364C192.246 378.364 190.977 378.115 189.823 377.617C188.668 377.107 187.672 376.396 186.834 375.485C186.008 374.574 185.364 373.481 184.902 372.205C184.441 370.93 184.21 369.514 184.21 367.959C184.21 366.392 184.441 364.977 184.902 363.713C185.376 362.45 186.032 361.375 186.87 360.488C187.709 359.589 188.699 358.896 189.841 358.411C190.995 357.925 192.258 357.682 193.631 357.682ZM193.613 376.907C194.755 376.907 195.806 376.712 196.765 376.324C197.737 375.923 198.576 375.339 199.28 374.574C199.985 373.809 200.531 372.873 200.92 371.768C201.309 370.65 201.503 369.381 201.503 367.959C201.503 366.526 201.303 365.262 200.902 364.169C200.513 363.076 199.967 362.158 199.262 361.417C198.569 360.664 197.743 360.099 196.784 359.723C195.836 359.334 194.797 359.139 193.668 359.139C192.513 359.139 191.45 359.334 190.479 359.723C189.519 360.111 188.687 360.682 187.982 361.435C187.277 362.177 186.725 363.094 186.324 364.187C185.935 365.28 185.741 366.538 185.741 367.959C185.741 369.381 185.935 370.65 186.324 371.768C186.713 372.873 187.253 373.809 187.946 374.574C188.65 375.339 189.482 375.923 190.442 376.324C191.414 376.712 192.471 376.907 193.613 376.907ZM222.624 378H220.71L208.537 359.777V378H207.08V358.046H209.084L221.166 376.232V358.046H222.624V378Z" fill="#F5EDED"/>
<rect id="Rectangle 3_4" x="262.497" y="352.617" width="466.503" height="31.1002" rx="6.61689" fill="#C4C4C4"/>
<rect id="Rectangle 7_4" x="262.497" y="352.617" width="326.552" height="31.1002" rx="6.61689" fill="#4FD965" fill-opacity="0.91"/>
<path id="70%" d="M524.672 364.378L520.991 373.663H520.171L523.843 364.433H518.385V363.686H524.672V364.378ZM534.686 368.67C534.686 369.368 534.604 370.03 534.44 370.656C534.276 371.281 534.039 371.831 533.729 372.305C533.425 372.779 533.049 373.155 532.599 373.435C532.156 373.708 531.652 373.845 531.087 373.845C530.522 373.845 530.018 373.705 529.574 373.426C529.131 373.146 528.754 372.77 528.444 372.296C528.141 371.822 527.907 371.272 527.743 370.647C527.585 370.021 527.506 369.362 527.506 368.67C527.506 367.977 527.585 367.318 527.743 366.692C527.907 366.067 528.141 365.52 528.444 365.052C528.748 364.579 529.122 364.202 529.565 363.922C530.015 363.643 530.522 363.503 531.087 363.503C531.652 363.503 532.156 363.643 532.599 363.922C533.049 364.196 533.428 364.569 533.738 365.043C534.048 365.511 534.282 366.058 534.44 366.683C534.604 367.309 534.686 367.971 534.686 368.67ZM533.966 368.67C533.966 368.068 533.902 367.5 533.774 366.966C533.653 366.425 533.471 365.954 533.228 365.553C532.991 365.153 532.693 364.834 532.335 364.597C531.977 364.36 531.563 364.241 531.096 364.241C530.634 364.241 530.224 364.36 529.866 364.597C529.513 364.828 529.216 365.146 528.973 365.553C528.73 365.954 528.545 366.425 528.417 366.966C528.296 367.5 528.235 368.068 528.235 368.67C528.235 369.265 528.296 369.83 528.417 370.364C528.538 370.899 528.718 371.37 528.955 371.777C529.198 372.183 529.498 372.505 529.857 372.742C530.215 372.979 530.628 373.098 531.096 373.098C531.57 373.098 531.986 372.979 532.344 372.742C532.702 372.499 533 372.174 533.237 371.767C533.48 371.36 533.662 370.89 533.784 370.355C533.905 369.821 533.966 369.259 533.966 368.67ZM544.18 368.551C544.836 368.551 545.349 368.782 545.72 369.244C546.096 369.699 546.284 370.346 546.284 371.184C546.284 372.029 546.096 372.685 545.72 373.152C545.349 373.614 544.836 373.845 544.18 373.845C543.53 373.845 543.02 373.614 542.649 373.152C542.278 372.691 542.093 372.035 542.093 371.184C542.093 370.346 542.278 369.699 542.649 369.244C543.02 368.782 543.53 368.551 544.18 368.551ZM538.622 363.503C538.944 363.503 539.232 363.564 539.487 363.686C539.749 363.807 539.967 363.983 540.143 364.214C540.326 364.439 540.465 364.715 540.562 365.043C540.66 365.371 540.708 365.745 540.708 366.164C540.708 367.008 540.52 367.658 540.143 368.114C539.773 368.569 539.266 368.797 538.622 368.797C537.966 368.797 537.452 368.569 537.082 368.114C536.711 367.658 536.526 367.008 536.526 366.164C536.526 365.32 536.711 364.667 537.082 364.205C537.452 363.737 537.966 363.503 538.622 363.503ZM538.622 368.25C539.029 368.25 539.348 368.086 539.578 367.758C539.815 367.424 539.934 366.893 539.934 366.164C539.934 365.429 539.815 364.894 539.578 364.56C539.348 364.226 539.029 364.059 538.622 364.059C538.209 364.059 537.884 364.226 537.647 364.56C537.41 364.894 537.291 365.429 537.291 366.164C537.291 366.893 537.41 367.424 537.647 367.758C537.884 368.086 538.209 368.25 538.622 368.25ZM544.18 373.298C544.593 373.298 544.915 373.131 545.146 372.797C545.382 372.457 545.501 371.919 545.501 371.184C545.501 370.455 545.382 369.927 545.146 369.599C544.909 369.265 544.587 369.098 544.18 369.098C543.773 369.098 543.451 369.265 543.214 369.599C542.983 369.927 542.868 370.455 542.868 371.184C542.868 371.919 542.983 372.457 543.214 372.797C543.451 373.131 543.773 373.298 544.18 373.298ZM544.444 363.686L539.141 373.663H538.348L543.651 363.686H544.444Z" fill="black"/>
</g>
<g id="SQL">
<path id="SQL_2" d="M116.931 451.364C115.583 451.364 114.405 451.225 113.396 450.945C112.388 450.654 111.537 450.247 110.845 449.724C110.165 449.19 109.642 448.552 109.278 447.811C108.913 447.058 108.701 446.213 108.64 445.278H110.08C110.225 446.177 110.499 446.924 110.9 447.519C111.301 448.115 111.793 448.589 112.376 448.941C112.971 449.293 113.645 449.542 114.398 449.688C115.152 449.834 115.953 449.907 116.804 449.907C117.691 449.907 118.486 449.816 119.191 449.633C119.908 449.439 120.515 449.166 121.013 448.813C121.524 448.449 121.912 448.018 122.18 447.519C122.447 447.009 122.58 446.438 122.58 445.807C122.58 445.138 122.465 444.58 122.234 444.13C122.003 443.668 121.615 443.267 121.068 442.927C120.521 442.587 119.798 442.283 118.899 442.016C118.013 441.749 116.907 441.476 115.583 441.196C114.49 440.953 113.548 440.674 112.758 440.358C111.981 440.042 111.337 439.678 110.827 439.265C110.317 438.839 109.94 438.359 109.697 437.825C109.454 437.278 109.333 436.647 109.333 435.93C109.333 435.152 109.497 434.442 109.825 433.798C110.153 433.154 110.614 432.601 111.209 432.139C111.817 431.678 112.54 431.319 113.378 431.064C114.228 430.809 115.164 430.682 116.184 430.682C117.205 430.682 118.14 430.803 118.991 431.046C119.841 431.277 120.582 431.617 121.214 432.067C121.858 432.516 122.374 433.063 122.763 433.707C123.164 434.35 123.419 435.079 123.528 435.893H122.125C121.991 435.359 121.773 434.861 121.469 434.399C121.165 433.937 120.77 433.543 120.284 433.215C119.811 432.874 119.24 432.613 118.571 432.431C117.915 432.237 117.162 432.139 116.312 432.139C114.526 432.139 113.171 432.467 112.248 433.123C111.337 433.779 110.881 434.678 110.881 435.82C110.881 436.343 110.966 436.798 111.137 437.187C111.307 437.576 111.592 437.928 111.993 438.244C112.406 438.548 112.947 438.821 113.615 439.064C114.283 439.295 115.115 439.514 116.111 439.72C116.695 439.842 117.296 439.969 117.915 440.103C118.535 440.236 119.136 440.394 119.72 440.577C120.315 440.759 120.88 440.984 121.414 441.251C121.949 441.518 122.41 441.846 122.799 442.235C123.2 442.624 123.516 443.091 123.747 443.638C123.99 444.173 124.111 444.81 124.111 445.551C124.111 446.402 123.929 447.185 123.565 447.902C123.212 448.607 122.714 449.22 122.07 449.743C121.439 450.253 120.679 450.654 119.792 450.945C118.918 451.225 117.964 451.364 116.931 451.364ZM136.958 430.682C138.319 430.682 139.576 430.925 140.73 431.411C141.884 431.896 142.875 432.589 143.701 433.488C144.539 434.387 145.189 435.468 145.651 436.732C146.124 437.995 146.361 439.404 146.361 440.959C146.361 442.624 146.1 444.124 145.578 445.46C145.055 446.797 144.32 447.926 143.373 448.85L146.525 451.328C146.343 451.559 146.185 451.753 146.051 451.911C145.93 452.069 145.802 452.233 145.669 452.403L142.279 449.761C141.538 450.283 140.718 450.684 139.819 450.964C138.932 451.231 137.979 451.364 136.958 451.364C135.573 451.364 134.304 451.115 133.15 450.617C131.996 450.107 130.999 449.396 130.161 448.485C129.335 447.574 128.691 446.481 128.23 445.205C127.768 443.93 127.537 442.514 127.537 440.959C127.537 439.392 127.768 437.977 128.23 436.713C128.703 435.45 129.359 434.375 130.198 433.488C131.036 432.589 132.026 431.896 133.168 431.411C134.322 430.925 135.585 430.682 136.958 430.682ZM136.94 449.907C137.718 449.907 138.453 449.816 139.145 449.633C139.837 449.439 140.481 449.166 141.077 448.813L138.872 447.082C139.078 446.839 139.236 446.645 139.345 446.499C139.467 446.341 139.607 446.171 139.765 445.989L142.243 447.957C143.057 447.191 143.689 446.226 144.138 445.059C144.6 443.881 144.83 442.514 144.83 440.959C144.83 439.526 144.63 438.262 144.229 437.169C143.84 436.076 143.294 435.158 142.589 434.417C141.897 433.664 141.071 433.099 140.111 432.723C139.163 432.334 138.125 432.139 136.995 432.139C135.841 432.139 134.778 432.334 133.806 432.723C132.846 433.111 132.014 433.682 131.309 434.435C130.605 435.177 130.052 436.094 129.651 437.187C129.262 438.28 129.068 439.538 129.068 440.959C129.068 442.381 129.262 443.65 129.651 444.768C130.04 445.873 130.58 446.809 131.273 447.574C131.977 448.339 132.81 448.923 133.769 449.324C134.741 449.712 135.798 449.907 136.94 449.907ZM162.379 451H150.625V431.046H152.083V449.542H162.379V451Z" fill="#F5EDED"/>
<rect id="Rectangle 3_5" x="262.497" y="425.617" width="466.503" height="31.1002" rx="6.61689" fill="#C4C4C4"/>
<rect id="Rectangle 7_5" x="262.497" y="425.617" width="279.9" height="31.1002" rx="6.61689" fill="#4FD965" fill-opacity="0.91"/>
<path id="60%" d="M509.061 444.929C509.061 444.601 509.01 444.289 508.906 443.991C508.809 443.687 508.667 443.423 508.478 443.198C508.29 442.967 508.056 442.785 507.777 442.652C507.503 442.512 507.193 442.442 506.847 442.442C506.653 442.442 506.449 442.475 506.237 442.542C506.03 442.603 505.827 442.688 505.626 442.797C505.426 442.907 505.232 443.037 505.043 443.189C504.855 443.335 504.685 443.493 504.533 443.663C504.557 444.914 504.779 445.859 505.198 446.497C505.617 447.134 506.179 447.453 506.884 447.453C507.23 447.453 507.537 447.383 507.804 447.244C508.077 447.098 508.305 446.91 508.487 446.679C508.676 446.442 508.818 446.172 508.916 445.868C509.013 445.564 509.061 445.251 509.061 444.929ZM509.881 444.838C509.881 445.288 509.821 445.716 509.699 446.123C509.584 446.524 509.401 446.876 509.152 447.18C508.903 447.484 508.591 447.727 508.214 447.909C507.837 448.091 507.403 448.182 506.911 448.182C506.383 448.182 505.918 448.076 505.517 447.863C505.116 447.651 504.779 447.341 504.506 446.934C504.232 446.527 504.026 446.026 503.886 445.431C503.746 444.835 503.676 444.155 503.676 443.39C503.676 441.561 503.947 440.179 504.487 439.244C505.028 438.309 505.872 437.841 507.02 437.841C507.713 437.841 508.29 438.035 508.752 438.424C509.213 438.813 509.517 439.372 509.663 440.1H508.934C508.843 439.608 508.618 439.232 508.26 438.971C507.901 438.709 507.467 438.579 506.957 438.579C506.61 438.579 506.291 438.673 506 438.861C505.714 439.044 505.462 439.314 505.244 439.672C505.025 440.024 504.849 440.459 504.715 440.975C504.582 441.485 504.5 442.068 504.469 442.725C504.876 442.396 505.286 442.147 505.699 441.977C506.118 441.801 506.574 441.713 507.066 441.713C507.491 441.713 507.877 441.798 508.223 441.968C508.575 442.132 508.873 442.36 509.116 442.652C509.359 442.937 509.547 443.268 509.681 443.645C509.815 444.021 509.881 444.419 509.881 444.838ZM519.94 443.007C519.94 443.705 519.858 444.368 519.694 444.993C519.53 445.619 519.293 446.169 518.984 446.642C518.68 447.116 518.303 447.493 517.854 447.772C517.41 448.046 516.906 448.182 516.341 448.182C515.776 448.182 515.272 448.043 514.829 447.763C514.385 447.484 514.009 447.107 513.699 446.633C513.395 446.159 513.161 445.61 512.997 444.984C512.84 444.358 512.761 443.699 512.761 443.007C512.761 442.314 512.84 441.655 512.997 441.03C513.161 440.404 513.395 439.857 513.699 439.39C514.003 438.916 514.376 438.539 514.82 438.26C515.269 437.981 515.776 437.841 516.341 437.841C516.906 437.841 517.41 437.981 517.854 438.26C518.303 438.533 518.683 438.907 518.993 439.381C519.303 439.848 519.536 440.395 519.694 441.021C519.858 441.646 519.94 442.308 519.94 443.007ZM519.221 443.007C519.221 442.406 519.157 441.838 519.029 441.303C518.908 440.763 518.725 440.292 518.483 439.891C518.246 439.49 517.948 439.171 517.59 438.934C517.231 438.697 516.818 438.579 516.35 438.579C515.889 438.579 515.479 438.697 515.12 438.934C514.768 439.165 514.47 439.484 514.227 439.891C513.985 440.292 513.799 440.763 513.672 441.303C513.55 441.838 513.489 442.406 513.489 443.007C513.489 443.602 513.55 444.167 513.672 444.702C513.793 445.236 513.972 445.707 514.209 446.114C514.452 446.521 514.753 446.843 515.111 447.08C515.47 447.317 515.883 447.435 516.35 447.435C516.824 447.435 517.24 447.317 517.599 447.08C517.957 446.837 518.255 446.512 518.492 446.105C518.735 445.698 518.917 445.227 519.038 444.693C519.16 444.158 519.221 443.596 519.221 443.007ZM529.434 442.889C530.09 442.889 530.604 443.119 530.974 443.581C531.351 444.037 531.539 444.683 531.539 445.522C531.539 446.366 531.351 447.022 530.974 447.49C530.604 447.951 530.09 448.182 529.434 448.182C528.784 448.182 528.274 447.951 527.904 447.49C527.533 447.028 527.348 446.372 527.348 445.522C527.348 444.683 527.533 444.037 527.904 443.581C528.274 443.119 528.784 442.889 529.434 442.889ZM523.876 437.841C524.198 437.841 524.487 437.902 524.742 438.023C525.003 438.145 525.222 438.321 525.398 438.551C525.58 438.776 525.72 439.053 525.817 439.381C525.914 439.709 525.963 440.082 525.963 440.501C525.963 441.346 525.775 441.996 525.398 442.451C525.028 442.907 524.52 443.135 523.876 443.135C523.22 443.135 522.707 442.907 522.337 442.451C521.966 441.996 521.781 441.346 521.781 440.501C521.781 439.657 521.966 439.004 522.337 438.542C522.707 438.075 523.22 437.841 523.876 437.841ZM523.876 442.588C524.283 442.588 524.602 442.424 524.833 442.096C525.07 441.762 525.188 441.23 525.188 440.501C525.188 439.766 525.07 439.232 524.833 438.898C524.602 438.564 524.283 438.397 523.876 438.397C523.463 438.397 523.138 438.564 522.902 438.898C522.665 439.232 522.546 439.766 522.546 440.501C522.546 441.23 522.665 441.762 522.902 442.096C523.138 442.424 523.463 442.588 523.876 442.588ZM529.434 447.636C529.847 447.636 530.169 447.469 530.4 447.134C530.637 446.794 530.756 446.257 530.756 445.522C530.756 444.793 530.637 444.264 530.4 443.936C530.163 443.602 529.841 443.435 529.434 443.435C529.027 443.435 528.705 443.602 528.469 443.936C528.238 444.264 528.122 444.793 528.122 445.522C528.122 446.257 528.238 446.794 528.469 447.134C528.705 447.469 529.027 447.636 529.434 447.636ZM529.699 438.023L524.396 448H523.603L528.906 438.023H529.699Z" fill="black"/>
</g>
<g id="Languages_2">
<path d="M84.2427 66H66.9209V36.5933H69.0693V63.8516H84.2427V66ZM103.337 63.3145C102.603 63.959 101.887 64.4961 101.188 64.9258C100.49 65.3376 99.8009 65.6688 99.1206 65.9194C98.4582 66.1522 97.7957 66.3133 97.1333 66.4028C96.4709 66.4924 95.7995 66.5371 95.1191 66.5371C94.2061 66.5371 93.3556 66.3939 92.5679 66.1074C91.7801 65.8389 91.0998 65.4539 90.5269 64.9526C89.9539 64.4334 89.4974 63.8158 89.1572 63.0996C88.835 62.3656 88.6738 61.5599 88.6738 60.6826C88.6738 58.3014 89.6854 56.4484 91.7085 55.1235C93.7495 53.7987 96.8021 53.1362 100.866 53.1362H103.337C103.337 52.2231 103.283 51.3817 103.176 50.6118C103.068 49.842 102.818 49.1795 102.424 48.6245C102.03 48.0516 101.448 47.604 100.678 47.2817C99.9084 46.9595 98.861 46.7983 97.5361 46.7983C95.5846 46.7983 94.1165 47.1027 93.1318 47.7114C92.165 48.3201 91.5921 49.2422 91.4131 50.4775H89.2915C89.5063 48.5081 90.2762 47.049 91.6011 46.1001C92.9259 45.1333 94.8953 44.6499 97.5093 44.6499C98.9595 44.6499 100.186 44.8289 101.188 45.187C102.209 45.5451 103.033 46.0643 103.659 46.7446C104.304 47.4071 104.769 48.2217 105.056 49.1885C105.342 50.1374 105.485 51.2116 105.485 52.4111V66H103.337V63.3145ZM103.337 55.2847H100.087C96.9722 55.2847 94.6447 55.7323 93.105 56.6274C91.5832 57.5226 90.8223 58.8027 90.8223 60.4678C90.8223 61.7031 91.3057 62.6699 92.2725 63.3682C93.2393 64.0485 94.5641 64.3887 96.2471 64.3887C96.9811 64.3887 97.6883 64.2812 98.3687 64.0664C99.0669 63.8337 99.7204 63.5382 100.329 63.1802C100.938 62.8221 101.493 62.4282 101.994 61.9985C102.513 61.5509 102.961 61.1213 103.337 60.7095V55.2847ZM114.589 48.2754C115.288 47.4518 115.968 46.7983 116.63 46.3149C117.311 45.8315 117.964 45.4645 118.591 45.2139C119.235 44.9632 119.844 44.811 120.417 44.7573C120.99 44.6857 121.527 44.6499 122.028 44.6499C126.307 44.6499 128.447 47.1743 128.447 52.2231V66H126.298V52.4111C126.298 51.4443 126.209 50.6118 126.03 49.9136C125.869 49.1974 125.591 48.6156 125.197 48.168C124.821 47.7025 124.32 47.3623 123.693 47.1475C123.085 46.9147 122.333 46.7983 121.438 46.7983C120.256 46.7983 119.092 47.1475 117.946 47.8457C116.818 48.5439 115.699 49.5286 114.589 50.7998V66H112.441V45.187H114.589V48.2754ZM151.22 64.7646C151.22 66.4297 151.041 67.8441 150.683 69.0078C150.325 70.1895 149.788 71.1473 149.072 71.8813C148.374 72.6154 147.487 73.1525 146.413 73.4927C145.339 73.8328 144.095 74.0029 142.68 74.0029C141.499 74.0029 140.433 73.8687 139.484 73.6001C138.535 73.3494 137.721 72.9824 137.041 72.499C136.36 72.0156 135.823 71.4159 135.429 70.6997C135.053 69.9836 134.838 69.1689 134.785 68.2559H136.933C137.023 69.4912 137.533 70.3953 138.464 70.9683C139.395 71.5591 140.773 71.8545 142.6 71.8545C143.674 71.8545 144.614 71.7202 145.419 71.4517C146.225 71.201 146.896 70.7803 147.434 70.1895C147.971 69.5986 148.374 68.8198 148.642 67.853C148.929 66.8862 149.072 65.6956 149.072 64.2812V62.9653C148.374 63.7889 147.711 64.4424 147.084 64.9258C146.476 65.3913 145.885 65.7493 145.312 66C144.739 66.2327 144.184 66.376 143.647 66.4297C143.128 66.5013 142.618 66.5371 142.116 66.5371C140.809 66.5371 139.654 66.2775 138.652 65.7583C137.649 65.2391 136.808 64.514 136.127 63.583C135.447 62.6341 134.928 61.4972 134.57 60.1724C134.23 58.8475 134.06 57.3704 134.06 55.7412C134.06 54.0225 134.265 52.4827 134.677 51.1221C135.107 49.7435 135.689 48.5798 136.423 47.6309C137.175 46.6641 138.052 45.93 139.055 45.4287C140.075 44.9095 141.167 44.6499 142.331 44.6499C142.832 44.6499 143.352 44.6857 143.889 44.7573C144.426 44.8289 144.981 44.9632 145.554 45.1602C146.127 45.3392 146.708 45.5898 147.299 45.9121C147.89 46.2344 148.481 46.6462 149.072 47.1475V45.187H151.22V64.7646ZM149.072 49.8062C148.105 48.8035 147.093 48.0516 146.037 47.5503C144.999 47.049 143.844 46.7983 142.573 46.7983C141.606 46.7983 140.729 46.9863 139.941 47.3623C139.171 47.7204 138.509 48.2754 137.954 49.0273C137.399 49.7614 136.969 50.6924 136.665 51.8203C136.36 52.9303 136.208 54.2373 136.208 55.7412C136.208 58.57 136.754 60.7184 137.846 62.1865C138.938 63.6546 140.46 64.3887 142.412 64.3887C143.701 64.3887 144.882 64.0396 145.957 63.3413C147.031 62.6252 148.069 61.5688 149.072 60.1724V49.8062ZM172.06 63.207C171.541 63.8337 170.95 64.3618 170.288 64.7915C169.643 65.2033 168.981 65.5435 168.3 65.812C167.638 66.0627 166.975 66.2417 166.313 66.3491C165.668 66.4744 165.087 66.5371 164.567 66.5371C160.306 66.5371 158.176 64.0037 158.176 58.937V45.187H160.324V58.749C160.324 60.7005 160.682 62.1328 161.398 63.0459C162.132 63.9411 163.395 64.3887 165.185 64.3887C166.474 64.3887 167.683 64.0306 168.811 63.3145C169.956 62.5983 171.04 61.5778 172.06 60.2529V45.187H174.208V66H172.06V63.207ZM194.646 63.3145C193.911 63.959 193.195 64.4961 192.497 64.9258C191.799 65.3376 191.11 65.6688 190.429 65.9194C189.767 66.1522 189.104 66.3133 188.442 66.4028C187.779 66.4924 187.108 66.5371 186.428 66.5371C185.515 66.5371 184.664 66.3939 183.876 66.1074C183.089 65.8389 182.408 65.4539 181.835 64.9526C181.263 64.4334 180.806 63.8158 180.466 63.0996C180.144 62.3656 179.982 61.5599 179.982 60.6826C179.982 58.3014 180.994 56.4484 183.017 55.1235C185.058 53.7987 188.111 53.1362 192.175 53.1362H194.646C194.646 52.2231 194.592 51.3817 194.484 50.6118C194.377 49.842 194.126 49.1795 193.732 48.6245C193.339 48.0516 192.757 47.604 191.987 47.2817C191.217 46.9595 190.17 46.7983 188.845 46.7983C186.893 46.7983 185.425 47.1027 184.44 47.7114C183.474 48.3201 182.901 49.2422 182.722 50.4775H180.6C180.815 48.5081 181.585 47.049 182.91 46.1001C184.235 45.1333 186.204 44.6499 188.818 44.6499C190.268 44.6499 191.494 44.8289 192.497 45.187C193.518 45.5451 194.341 46.0643 194.968 46.7446C195.612 47.4071 196.078 48.2217 196.364 49.1885C196.651 50.1374 196.794 51.2116 196.794 52.4111V66H194.646V63.3145ZM194.646 55.2847H191.396C188.281 55.2847 185.953 55.7323 184.414 56.6274C182.892 57.5226 182.131 58.8027 182.131 60.4678C182.131 61.7031 182.614 62.6699 183.581 63.3682C184.548 64.0485 185.873 64.3887 187.556 64.3887C188.29 64.3887 188.997 64.2812 189.677 64.0664C190.375 63.8337 191.029 63.5382 191.638 63.1802C192.246 62.8221 192.801 62.4282 193.303 61.9985C193.822 61.5509 194.27 61.1213 194.646 60.7095V55.2847ZM219.702 64.7646C219.702 66.4297 219.523 67.8441 219.165 69.0078C218.806 70.1895 218.269 71.1473 217.553 71.8813C216.855 72.6154 215.969 73.1525 214.895 73.4927C213.82 73.8328 212.576 74.0029 211.162 74.0029C209.98 74.0029 208.915 73.8687 207.966 73.6001C207.017 73.3494 206.202 72.9824 205.522 72.499C204.842 72.0156 204.305 71.4159 203.911 70.6997C203.535 69.9836 203.32 69.1689 203.266 68.2559H205.415C205.504 69.4912 206.014 70.3953 206.945 70.9683C207.876 71.5591 209.255 71.8545 211.081 71.8545C212.155 71.8545 213.095 71.7202 213.901 71.4517C214.707 71.201 215.378 70.7803 215.915 70.1895C216.452 69.5986 216.855 68.8198 217.124 67.853C217.41 66.8862 217.553 65.6956 217.553 64.2812V62.9653C216.855 63.7889 216.193 64.4424 215.566 64.9258C214.957 65.3913 214.366 65.7493 213.793 66C213.221 66.2327 212.666 66.376 212.128 66.4297C211.609 66.5013 211.099 66.5371 210.598 66.5371C209.291 66.5371 208.136 66.2775 207.133 65.7583C206.131 65.2391 205.289 64.514 204.609 63.583C203.929 62.6341 203.409 61.4972 203.051 60.1724C202.711 58.8475 202.541 57.3704 202.541 55.7412C202.541 54.0225 202.747 52.4827 203.159 51.1221C203.588 49.7435 204.17 48.5798 204.904 47.6309C205.656 46.6641 206.534 45.93 207.536 45.4287C208.557 44.9095 209.649 44.6499 210.812 44.6499C211.314 44.6499 211.833 44.6857 212.37 44.7573C212.907 44.8289 213.462 44.9632 214.035 45.1602C214.608 45.3392 215.19 45.5898 215.781 45.9121C216.372 46.2344 216.962 46.6462 217.553 47.1475V45.187H219.702V64.7646ZM217.553 49.8062C216.586 48.8035 215.575 48.0516 214.519 47.5503C213.48 47.049 212.325 46.7983 211.054 46.7983C210.087 46.7983 209.21 46.9863 208.422 47.3623C207.653 47.7204 206.99 48.2754 206.435 49.0273C205.88 49.7614 205.45 50.6924 205.146 51.8203C204.842 52.9303 204.689 54.2373 204.689 55.7412C204.689 58.57 205.236 60.7184 206.328 62.1865C207.42 63.6546 208.942 64.3887 210.893 64.3887C212.182 64.3887 213.364 64.0396 214.438 63.3413C215.512 62.6252 216.551 61.5688 217.553 60.1724V49.8062ZM235.036 66.5371C233.586 66.5371 232.27 66.2954 231.088 65.812C229.907 65.3107 228.886 64.5946 228.027 63.6636C227.185 62.7147 226.532 61.5599 226.066 60.1992C225.601 58.8385 225.368 57.2899 225.368 55.5532C225.368 53.8703 225.592 52.3574 226.04 51.0146C226.487 49.654 227.123 48.5081 227.946 47.5771C228.77 46.6283 229.746 45.9032 230.874 45.4019C232.001 44.9006 233.255 44.6499 234.633 44.6499C236.048 44.6499 237.328 44.9006 238.474 45.4019C239.619 45.9032 240.595 46.6283 241.401 47.5771C242.207 48.5081 242.824 49.654 243.254 51.0146C243.684 52.3574 243.898 53.8792 243.898 55.5801V56.0635H227.517C227.624 57.4779 227.884 58.7043 228.295 59.7427C228.707 60.7811 229.244 61.6494 229.907 62.3477C230.569 63.028 231.33 63.5382 232.189 63.8784C233.067 64.2186 234.016 64.3887 235.036 64.3887C235.752 64.3887 236.468 64.3081 237.185 64.147C237.901 63.9679 238.545 63.7083 239.118 63.3682C239.709 63.028 240.201 62.6073 240.595 62.106C240.989 61.6047 241.222 61.0317 241.293 60.3872H243.415C243.218 61.3719 242.869 62.2492 242.368 63.019C241.866 63.771 241.249 64.4155 240.515 64.9526C239.781 65.4718 238.948 65.8657 238.017 66.1343C237.086 66.4028 236.092 66.5371 235.036 66.5371ZM241.723 53.915C241.365 51.5339 240.55 49.7524 239.279 48.5708C238.026 47.3892 236.477 46.7983 234.633 46.7983C233.72 46.7983 232.87 46.9416 232.082 47.228C231.294 47.5145 230.587 47.9531 229.96 48.5439C229.352 49.1348 228.833 49.8778 228.403 50.7729C227.991 51.6681 227.696 52.7155 227.517 53.915H241.723ZM256.413 66.5371C251.311 66.5371 248.527 64.4871 248.061 60.3872H250.236C250.397 61.6405 250.97 62.6252 251.955 63.3413C252.958 64.0396 254.435 64.3887 256.386 64.3887C257.335 64.3887 258.168 64.2902 258.884 64.0933C259.6 63.8784 260.191 63.6009 260.656 63.2607C261.14 62.9027 261.498 62.4819 261.73 61.9985C261.963 61.5151 262.08 60.9959 262.08 60.4409C262.08 59.8859 261.981 59.4115 261.784 59.0176C261.605 58.6237 261.265 58.2656 260.764 57.9434C260.28 57.6211 259.609 57.3167 258.75 57.0303C257.908 56.7259 256.825 56.4036 255.5 56.0635C254.372 55.777 253.369 55.4816 252.492 55.1772C251.615 54.8729 250.872 54.4969 250.263 54.0493C249.672 53.6017 249.225 53.0646 248.92 52.438C248.616 51.7935 248.464 50.9967 248.464 50.0479C248.464 49.2243 248.634 48.4813 248.974 47.8188C249.332 47.1385 249.825 46.5656 250.451 46.1001C251.078 45.6346 251.839 45.2765 252.734 45.0259C253.629 44.7752 254.623 44.6499 255.715 44.6499C258.186 44.6499 260.056 45.0706 261.328 45.9121C262.617 46.7357 263.333 48.0426 263.476 49.833H261.301C261.158 48.7946 260.656 48.0337 259.797 47.5503C258.955 47.049 257.693 46.7983 256.01 46.7983C255.222 46.7983 254.497 46.87 253.835 47.0132C253.173 47.1564 252.6 47.3713 252.116 47.6577C251.651 47.9263 251.284 48.2754 251.015 48.7051C250.747 49.1169 250.612 49.5913 250.612 50.1284C250.612 50.4328 250.666 50.7461 250.773 51.0684C250.881 51.3906 251.149 51.7218 251.579 52.062C252.027 52.4022 252.689 52.7513 253.566 53.1094C254.444 53.4495 255.643 53.8076 257.165 54.1836C258.365 54.488 259.403 54.8102 260.28 55.1504C261.175 55.4727 261.91 55.8665 262.482 56.332C263.073 56.7796 263.512 57.3078 263.798 57.9165C264.085 58.5252 264.228 59.2414 264.228 60.0649C264.228 60.978 264.04 61.8374 263.664 62.6431C263.306 63.4308 262.787 64.1112 262.106 64.6841C261.444 65.257 260.629 65.7046 259.663 66.0269C258.696 66.367 257.613 66.5371 256.413 66.5371Z" fill="#363546"/>
<path d="M84.2427 66V67H85.2427V66H84.2427ZM66.9209 66H65.9209V67H66.9209V66ZM66.9209 36.5933V35.5933H65.9209V36.5933H66.9209ZM69.0693 36.5933H70.0693V35.5933H69.0693V36.5933ZM69.0693 63.8516H68.0693V64.8516H69.0693V63.8516ZM84.2427 63.8516H85.2427V62.8516H84.2427V63.8516ZM84.2427 65H66.9209V67H84.2427V65ZM67.9209 66V36.5933H65.9209V66H67.9209ZM66.9209 37.5933H69.0693V35.5933H66.9209V37.5933ZM68.0693 36.5933V63.8516H70.0693V36.5933H68.0693ZM69.0693 64.8516H84.2427V62.8516H69.0693V64.8516ZM83.2427 63.8516V66H85.2427V63.8516H83.2427ZM103.337 63.3145H104.337V61.1056L102.677 62.563L103.337 63.3145ZM101.188 64.9258L101.696 65.7871L101.705 65.7824L101.713 65.7774L101.188 64.9258ZM99.1206 65.9194L99.4521 66.8629L99.4592 66.8604L99.4663 66.8578L99.1206 65.9194ZM92.5679 66.1074L92.9096 65.1676L92.9001 65.1642L92.8905 65.1609L92.5679 66.1074ZM90.5269 64.9526L89.8553 65.6936L89.8618 65.6995L89.8684 65.7052L90.5269 64.9526ZM89.1572 63.0996L88.2416 63.5016L88.2476 63.5152L88.2539 63.5287L89.1572 63.0996ZM91.7085 55.1235L91.164 54.2847L91.1606 54.287L91.7085 55.1235ZM103.337 53.1362V54.1362H104.337V53.1362H103.337ZM102.424 48.6245L101.6 49.191L101.604 49.1972L101.608 49.2033L102.424 48.6245ZM100.678 47.2817L101.064 46.3593L100.678 47.2817ZM93.1318 47.7114L92.606 46.8608L92.599 46.8652L93.1318 47.7114ZM91.4131 50.4775V51.4775H92.2786L92.4027 50.621L91.4131 50.4775ZM89.2915 50.4775L88.2974 50.3691L88.1765 51.4775H89.2915V50.4775ZM91.6011 46.1001L92.1834 46.9131L92.1905 46.9079L91.6011 46.1001ZM101.188 45.187L100.852 46.1288L100.857 46.1306L101.188 45.187ZM103.659 46.7446L102.924 47.4221L102.933 47.4322L102.942 47.442L103.659 46.7446ZM105.056 49.1885L104.097 49.4726L104.098 49.4775L105.056 49.1885ZM105.485 66V67H106.485V66H105.485ZM103.337 66H102.337V67H103.337V66ZM103.337 55.2847H104.337V54.2847H103.337V55.2847ZM93.105 56.6274L92.6024 55.7629L92.598 55.7655L93.105 56.6274ZM92.2725 63.3682L91.6869 64.1789L91.697 64.186L92.2725 63.3682ZM98.3687 64.0664L98.6698 65.02L98.6774 65.0176L98.6849 65.0151L98.3687 64.0664ZM100.329 63.1802L100.836 64.0421L100.329 63.1802ZM101.994 61.9985L102.645 62.7578L102.647 62.7559L101.994 61.9985ZM103.337 60.7095L104.075 61.3837L104.337 61.0973V60.7095H103.337ZM102.677 62.563C101.978 63.1772 101.307 63.6789 100.664 64.0741L101.713 65.7774C102.467 65.3133 103.228 64.7408 103.997 64.0659L102.677 62.563ZM100.68 64.0644C100.028 64.4492 99.3928 64.7534 98.7749 64.9811L99.4663 66.8578C100.209 66.5841 100.952 66.2259 101.696 65.7871L100.68 64.0644ZM98.7891 64.976C98.1875 65.1873 97.5912 65.3319 96.9994 65.4118L97.2672 67.3938C98.0002 67.2948 98.7288 67.117 99.4521 66.8629L98.7891 64.976ZM96.9994 65.4118C96.3821 65.4953 95.7555 65.5371 95.1191 65.5371V67.5371C95.8435 67.5371 96.5596 67.4894 97.2672 67.3938L96.9994 65.4118ZM95.1191 65.5371C94.3122 65.5371 93.5785 65.4108 92.9096 65.1676L92.2261 67.0472C93.1328 67.3769 94.0999 67.5371 95.1191 67.5371V65.5371ZM92.8905 65.1609C92.2147 64.9305 91.6513 64.6077 91.1854 64.2001L89.8684 65.7052C90.5483 66.3002 91.3455 66.7472 92.2452 67.0539L92.8905 65.1609ZM91.1984 64.2117C90.7249 63.7825 90.346 63.2716 90.0605 62.6706L88.2539 63.5287C88.6488 64.3599 89.183 65.0843 89.8553 65.6936L91.1984 64.2117ZM90.0729 62.6976C89.8113 62.1018 89.6738 61.4347 89.6738 60.6826H87.6738C87.6738 61.6851 87.8586 62.6293 88.2416 63.5016L90.0729 62.6976ZM89.6738 60.6826C89.6738 58.645 90.5101 57.1037 92.2563 55.9601L91.1606 54.287C88.8607 55.7931 87.6738 57.9579 87.6738 60.6826H89.6738ZM92.253 55.9623C94.0563 54.7917 96.8794 54.1362 100.866 54.1362V52.1362C96.7248 52.1362 93.4428 52.8056 91.164 54.2848L92.253 55.9623ZM100.866 54.1362H103.337V52.1362H100.866V54.1362ZM104.337 53.1362C104.337 52.1847 104.281 51.2964 104.166 50.4736L102.185 50.75C102.285 51.467 102.337 52.2616 102.337 53.1362H104.337ZM104.166 50.4736C104.04 49.5677 103.738 48.749 103.239 48.0458L101.608 49.2033C101.897 49.61 102.097 50.1162 102.185 50.75L104.166 50.4736ZM103.248 48.058C102.725 47.2976 101.975 46.7407 101.064 46.3593L100.292 48.2042C100.921 48.4673 101.335 48.8056 101.6 49.191L103.248 48.058ZM101.064 46.3593C100.122 45.9646 98.9246 45.7983 97.5361 45.7983V47.7983C98.7974 47.7983 99.6952 47.9543 100.292 48.2042L101.064 46.3593ZM97.5361 45.7983C95.512 45.7983 93.8231 46.1084 92.606 46.8608L93.6577 48.562C94.4099 48.097 95.6573 47.7983 97.5361 47.7983V45.7983ZM92.599 46.8652C91.3596 47.6456 90.6401 48.8392 90.4234 50.3341L92.4027 50.621C92.5442 49.6451 92.9705 48.9947 93.6646 48.5577L92.599 46.8652ZM91.4131 49.4775H89.2915V51.4775H91.4131V49.4775ZM90.2856 50.586C90.4768 48.8331 91.1388 47.6612 92.1834 46.9131L91.0188 45.2871C89.4136 46.4368 88.5359 48.1831 88.2974 50.3691L90.2856 50.586ZM92.1905 46.9079C93.2696 46.1205 94.9909 45.6499 97.5093 45.6499V43.6499C94.7998 43.6499 92.5823 44.1461 91.0116 45.2923L92.1905 46.9079ZM97.5093 45.6499C98.8835 45.6499 99.9887 45.8204 100.852 46.1288L101.525 44.2453C100.383 43.8375 99.0354 43.6499 97.5093 43.6499V45.6499ZM100.857 46.1306C101.75 46.4436 102.425 46.8812 102.924 47.4221L104.395 46.0672C103.64 45.2474 102.668 44.6465 101.52 44.2434L100.857 46.1306ZM102.942 47.442C103.464 47.978 103.852 48.6467 104.097 49.4726L106.014 48.9044C105.686 47.7967 105.143 46.8362 104.376 46.0473L102.942 47.442ZM104.098 49.4775C104.351 50.3154 104.485 51.2897 104.485 52.4111H106.485C106.485 51.1335 106.333 49.9593 106.013 48.8995L104.098 49.4775ZM104.485 52.4111V66H106.485V52.4111H104.485ZM105.485 65H103.337V67H105.485V65ZM104.337 66V63.3145H102.337V66H104.337ZM103.337 54.2847H100.087V56.2847H103.337V54.2847ZM100.087 54.2847C96.9105 54.2847 94.3703 54.7351 92.6024 55.7629L93.6076 57.4919C94.9191 56.7294 97.0338 56.2847 100.087 56.2847V54.2847ZM92.598 55.7655C90.7932 56.8271 89.8223 58.423 89.8223 60.4678H91.8223C91.8223 59.1825 92.3731 58.2181 93.612 57.4894L92.598 55.7655ZM89.8223 60.4678C89.8223 62.0106 90.449 63.2848 91.687 64.1788L92.858 62.5575C92.1623 62.0551 91.8223 61.3956 91.8223 60.4678H89.8223ZM91.697 64.186C92.8899 65.0255 94.4421 65.3887 96.2471 65.3887V63.3887C94.6861 63.3887 93.5886 63.0715 92.848 62.5504L91.697 64.186ZM96.2471 65.3887C97.0803 65.3887 97.8892 65.2665 98.6698 65.02L98.0675 63.1128C97.4874 63.296 96.8819 63.3887 96.2471 63.3887V65.3887ZM98.6849 65.0151C99.4468 64.7611 100.165 64.4372 100.836 64.0421L99.8221 62.3182C99.2762 62.6393 98.687 62.9062 98.0524 63.1177L98.6849 65.0151ZM100.836 64.0421C101.492 63.6562 102.096 63.2284 102.645 62.7578L101.343 61.2393C100.89 61.628 100.383 61.988 99.8221 62.3182L100.836 64.0421ZM102.647 62.7559C103.19 62.288 103.667 61.8307 104.075 61.3837L102.598 60.0352C102.255 60.4118 101.837 60.8139 101.341 61.2411L102.647 62.7559ZM104.337 60.7095V55.2847H102.337V60.7095H104.337ZM114.589 48.2754H113.589V51.0012L115.352 48.9221L114.589 48.2754ZM116.63 46.3149L116.051 45.4997L116.041 45.5072L116.63 46.3149ZM118.591 45.2139L118.228 44.2818L118.219 44.2854L118.591 45.2139ZM120.417 44.7573L120.51 45.753L120.526 45.7515L120.541 45.7496L120.417 44.7573ZM128.447 66V67H129.447V66H128.447ZM126.298 66H125.298V67H126.298V66ZM126.03 49.9136L125.054 50.1331L125.057 50.1476L125.061 50.1619L126.03 49.9136ZM125.197 48.168L124.419 48.7963L124.433 48.8127L124.447 48.8286L125.197 48.168ZM123.693 47.1475L123.336 48.0815L123.353 48.0877L123.369 48.0934L123.693 47.1475ZM117.946 47.8457L117.426 46.9917L117.42 46.9954L117.946 47.8457ZM114.589 50.7998L113.836 50.1421L113.589 50.4246V50.7998H114.589ZM114.589 66V67H115.589V66H114.589ZM112.441 66H111.441V67H112.441V66ZM112.441 45.187V44.187H111.441V45.187H112.441ZM114.589 45.187H115.589V44.187H114.589V45.187ZM115.352 48.9221C116.014 48.1411 116.638 47.5475 117.22 47.1227L116.041 45.5072C115.298 46.0492 114.561 46.7626 113.827 47.6287L115.352 48.9221ZM117.21 47.1301C117.84 46.6823 118.424 46.3576 118.962 46.1423L118.219 44.2854C117.504 44.5714 116.782 44.9808 116.051 45.4998L117.21 47.1301ZM118.953 46.1459C119.528 45.9223 120.046 45.7965 120.51 45.753L120.324 43.7617C119.642 43.8256 118.942 44.0042 118.228 44.2819L118.953 46.1459ZM120.541 45.7496C121.079 45.6824 121.574 45.6499 122.028 45.6499V43.6499C121.48 43.6499 120.901 43.689 120.293 43.765L120.541 45.7496ZM122.028 45.6499C123.966 45.6499 125.252 46.2138 126.079 47.1898C126.933 48.1974 127.447 49.8162 127.447 52.2231H129.447C129.447 49.5813 128.891 47.4134 127.605 45.8967C126.293 44.3482 124.369 43.6499 122.028 43.6499V45.6499ZM127.447 52.2231V66H129.447V52.2231H127.447ZM128.447 65H126.298V67H128.447V65ZM127.298 66V52.4111H125.298V66H127.298ZM127.298 52.4111C127.298 51.3871 127.204 50.4668 126.998 49.6652L125.061 50.1619C125.214 50.7569 125.298 51.5016 125.298 52.4111H127.298ZM127.005 49.6941C126.816 48.8517 126.475 48.1067 125.948 47.5073L124.447 48.8286C124.707 49.1244 124.921 49.5431 125.054 50.1331L127.005 49.6941ZM125.975 47.5396C125.468 46.9123 124.803 46.4707 124.018 46.2015L123.369 48.0934C123.837 48.2539 124.174 48.4927 124.419 48.7963L125.975 47.5396ZM124.05 46.2134C123.294 45.9241 122.412 45.7983 121.438 45.7983V47.7983C122.253 47.7983 122.875 47.9053 123.336 48.0815L124.05 46.2134ZM121.438 45.7983C120.048 45.7983 118.707 46.2112 117.426 46.9918L118.467 48.6996C119.477 48.0837 120.463 47.7983 121.438 47.7983V45.7983ZM117.42 46.9954C116.188 47.7582 114.995 48.8152 113.836 50.1421L115.343 51.4576C116.404 50.2421 117.449 49.3297 118.473 48.696L117.42 46.9954ZM113.589 50.7998V66H115.589V50.7998H113.589ZM114.589 65H112.441V67H114.589V65ZM113.441 66V45.187H111.441V66H113.441ZM112.441 46.187H114.589V44.187H112.441V46.187ZM113.589 45.187V48.2754H115.589V45.187H113.589ZM150.683 69.0078L149.727 68.7137L149.726 68.7178L150.683 69.0078ZM149.072 71.8813L148.356 71.183L148.347 71.1921L149.072 71.8813ZM139.484 73.6001L139.757 72.6379L139.748 72.6355L139.74 72.6333L139.484 73.6001ZM135.429 70.6997L134.544 71.1645L134.548 71.1731L134.553 71.1816L135.429 70.6997ZM134.785 68.2559V67.2559H133.724L133.786 68.3146L134.785 68.2559ZM136.933 68.2559L137.93 68.1836L137.863 67.2559H136.933V68.2559ZM138.464 70.9683L139 70.1239L138.988 70.1166L138.464 70.9683ZM145.419 71.4517L145.122 70.4968L145.113 70.4998L145.103 70.503L145.419 71.4517ZM148.642 67.853L147.683 67.5689L147.681 67.5771L147.679 67.5854L148.642 67.853ZM149.072 62.9653H150.072V60.2395L148.309 62.3186L149.072 62.9653ZM147.084 64.9258L147.692 65.7201L147.695 65.7176L147.084 64.9258ZM145.312 66L145.688 66.9265L145.701 66.9215L145.713 66.9162L145.312 66ZM143.647 66.4297L143.547 65.4347L143.529 65.4365L143.51 65.4391L143.647 66.4297ZM136.127 63.583L135.315 64.1657L135.32 64.173L136.127 63.583ZM134.57 60.1724L133.601 60.4211L133.604 60.4333L134.57 60.1724ZM134.677 51.1221L133.723 50.8245L133.72 50.8324L134.677 51.1221ZM136.423 47.6309L135.633 47.0169L135.632 47.019L136.423 47.6309ZM139.055 45.4287L139.502 46.3232L139.508 46.32L139.055 45.4287ZM145.554 45.1602L145.229 46.1058L145.242 46.1104L145.255 46.1146L145.554 45.1602ZM149.072 47.1475L148.425 47.91L150.072 49.3074V47.1475H149.072ZM149.072 45.187V44.187H148.072V45.187H149.072ZM151.22 45.187H152.22V44.187H151.22V45.187ZM149.072 49.8062H150.072V49.4025L149.792 49.112L149.072 49.8062ZM146.037 47.5503L145.602 48.4509L145.608 48.4537L146.037 47.5503ZM139.941 47.3623L140.363 48.2691L140.372 48.2648L139.941 47.3623ZM137.954 49.0273L138.751 49.6305L138.758 49.6212L137.954 49.0273ZM136.665 51.8203L137.629 52.0847L137.63 52.0808L136.665 51.8203ZM137.846 62.1865L137.044 62.7834L137.846 62.1865ZM145.957 63.3413L146.502 64.1798L146.511 64.1734L145.957 63.3413ZM149.072 60.1724L149.884 60.7556L150.072 60.4942V60.1724H149.072ZM150.22 64.7646C150.22 66.3639 150.048 67.673 149.727 68.7137L151.639 69.3019C152.035 68.0151 152.22 66.4955 152.22 64.7646H150.22ZM149.726 68.7178C149.405 69.777 148.94 70.5849 148.356 71.183L149.788 72.5797C150.636 71.7097 151.245 70.6019 151.64 69.2978L149.726 68.7178ZM148.347 71.1921C147.778 71.7906 147.043 72.2443 146.111 72.5393L146.715 74.446C147.932 74.0607 148.969 73.4402 149.796 72.5706L148.347 71.1921ZM146.111 72.5393C145.156 72.8419 144.017 73.0029 142.68 73.0029V75.0029C144.172 75.0029 145.522 74.8238 146.715 74.446L146.111 72.5393ZM142.68 73.0029C141.573 73.0029 140.602 72.877 139.757 72.6379L139.212 74.5623C140.265 74.8603 141.424 75.0029 142.68 75.0029V73.0029ZM139.74 72.6333C138.887 72.408 138.187 72.0866 137.62 71.6838L136.461 73.3142C137.255 73.8783 138.184 74.2909 139.229 74.5669L139.74 72.6333ZM137.62 71.6838C137.06 71.2858 136.625 70.799 136.305 70.2178L134.553 71.1816C135.021 72.0327 135.661 72.7454 136.461 73.3142L137.62 71.6838ZM136.315 70.2349C136.013 69.66 135.829 68.9869 135.783 68.1971L133.786 68.3146C133.847 69.3509 134.094 70.3071 134.544 71.1645L136.315 70.2349ZM134.785 69.2559H136.933V67.2559H134.785V69.2559ZM135.936 68.3281C136.045 69.8351 136.695 71.0541 137.94 71.8199L138.988 70.1166C138.37 69.7365 138 69.1474 137.93 68.1836L135.936 68.3281ZM137.928 71.8126C139.093 72.5518 140.695 72.8545 142.6 72.8545V70.8545C140.852 70.8545 139.697 70.5664 139 70.1239L137.928 71.8126ZM142.6 72.8545C143.754 72.8545 144.805 72.7105 145.736 72.4003L145.103 70.503C144.422 70.7299 143.593 70.8545 142.6 70.8545V72.8545ZM145.716 72.4065C146.682 72.1061 147.51 71.5923 148.174 70.8621L146.694 69.5168C146.283 69.9682 145.768 70.296 145.122 70.4968L145.716 72.4065ZM148.174 70.8621C148.839 70.1298 149.306 69.2004 149.606 68.1207L147.679 67.5854C147.441 68.4393 147.102 69.0675 146.694 69.5168L148.174 70.8621ZM149.601 68.1371C149.923 67.0493 150.072 65.7563 150.072 64.2812H148.072C148.072 65.6349 147.934 66.7231 147.683 67.5689L149.601 68.1371ZM150.072 64.2812V62.9653H148.072V64.2812H150.072ZM148.309 62.3186C147.641 63.1066 147.029 63.7058 146.474 64.134L147.695 65.7176C148.393 65.179 149.106 64.4712 149.835 63.612L148.309 62.3186ZM146.477 64.1314C145.918 64.5587 145.396 64.8716 144.911 65.0838L145.713 66.9162C146.374 66.6271 147.033 66.2239 147.692 65.7201L146.477 64.1314ZM144.936 65.0735C144.439 65.2754 143.977 65.3917 143.547 65.4347L143.746 67.4247C144.391 67.3602 145.04 67.1901 145.688 66.9265L144.936 65.0735ZM143.51 65.4391C143.034 65.5047 142.57 65.5371 142.116 65.5371V67.5371C142.665 67.5371 143.221 67.4979 143.784 67.4203L143.51 65.4391ZM142.116 65.5371C140.944 65.5371 139.951 65.3051 139.112 64.8703L138.192 66.6463C139.358 67.2499 140.674 67.5371 142.116 67.5371V65.5371ZM139.112 64.8703C138.249 64.4238 137.526 63.8019 136.935 62.993L135.32 64.173C136.09 65.2261 137.049 66.0544 138.192 66.6463L139.112 64.8703ZM136.94 63.0003C136.341 62.1641 135.867 61.1406 135.535 59.9115L133.604 60.4333C133.988 61.8538 134.554 63.1041 135.315 64.1657L136.94 63.0003ZM135.538 59.9237C135.223 58.6938 135.06 57.302 135.06 55.7412H133.06C133.06 57.4389 133.237 59.0012 133.601 60.4211L135.538 59.9237ZM135.06 55.7412C135.06 54.1008 135.256 52.6613 135.634 51.4117L133.72 50.8324C133.275 52.3042 133.06 53.9441 133.06 55.7412H135.06ZM135.632 51.4196C136.033 50.1322 136.566 49.0804 137.214 48.2427L135.632 47.019C134.812 48.0791 134.181 49.3548 133.723 50.8245L135.632 51.4196ZM137.212 48.2448C137.881 47.3848 138.645 46.7517 139.502 46.3231L138.607 44.5343C137.459 45.1084 136.469 45.9433 135.633 47.0169L137.212 48.2448ZM139.508 46.32C140.386 45.8735 141.322 45.6499 142.331 45.6499V43.6499C141.012 43.6499 139.765 43.9456 138.601 44.5374L139.508 46.32ZM142.331 45.6499C142.785 45.6499 143.26 45.6823 143.757 45.7486L144.021 43.7661C143.443 43.6891 142.88 43.6499 142.331 43.6499V45.6499ZM143.757 45.7486C144.221 45.8105 144.711 45.9279 145.229 46.1058L145.879 44.2145C145.25 43.9985 144.631 43.8474 144.021 43.7661L143.757 45.7486ZM145.255 46.1146C145.759 46.2719 146.28 46.4954 146.82 46.79L147.778 45.0342C147.137 44.6843 146.494 44.4064 145.852 44.2057L145.255 46.1146ZM146.82 46.79C147.343 47.0752 147.878 47.4463 148.425 47.91L149.719 46.385C149.084 45.846 148.437 45.3936 147.778 45.0342L146.82 46.79ZM150.072 47.1475V45.187H148.072V47.1475H150.072ZM149.072 46.187H151.22V44.187H149.072V46.187ZM150.22 45.187V64.7646H152.22V45.187H150.22ZM149.792 49.112C148.757 48.0389 147.65 47.2087 146.466 46.6469L145.608 48.4537C146.537 48.8945 147.453 49.5682 148.352 50.5003L149.792 49.112ZM146.472 46.6497C145.284 46.0765 143.979 45.7983 142.573 45.7983V47.7983C143.709 47.7983 144.713 48.0215 145.602 48.4508L146.472 46.6497ZM142.573 45.7983C141.473 45.7983 140.446 46.013 139.51 46.4598L140.372 48.2648C141.011 47.9596 141.739 47.7983 142.573 47.7983V45.7983ZM139.519 46.4556C138.583 46.8912 137.793 47.5607 137.149 48.4335L138.758 49.6212C139.224 48.9901 139.759 48.5496 140.363 48.269L139.519 46.4556ZM137.156 48.4242C136.506 49.2842 136.028 50.34 135.699 51.5598L137.63 52.0808C137.91 51.0448 138.291 50.2386 138.751 49.6305L137.156 48.4242ZM135.7 51.5559C135.366 52.7737 135.208 54.1736 135.208 55.7412H137.208C137.208 54.301 137.354 53.0869 137.629 52.0847L135.7 51.5559ZM135.208 55.7412C135.208 58.6749 135.77 61.0715 137.044 62.7834L138.649 61.5897C137.738 60.3654 137.208 58.4651 137.208 55.7412H135.208ZM137.044 62.7834C138.339 64.5242 140.169 65.3887 142.412 65.3887V63.3887C140.752 63.3887 139.538 62.7851 138.649 61.5897L137.044 62.7834ZM142.412 65.3887C143.893 65.3887 145.264 64.9841 146.502 64.1798L145.412 62.5029C144.501 63.095 143.508 63.3887 142.412 63.3887V65.3887ZM146.511 64.1734C147.713 63.3724 148.833 62.2193 149.884 60.7556L148.259 59.5892C147.305 60.9184 146.349 61.8779 145.402 62.5093L146.511 64.1734ZM150.072 60.1724V49.8062H148.072V60.1724H150.072ZM172.06 63.207H173.06V60.4328L171.29 62.569L172.06 63.207ZM170.288 64.7915L170.826 65.6342L170.832 65.6305L170.288 64.7915ZM168.3 65.812L168.654 66.7473L168.661 66.7448L168.667 66.7422L168.3 65.812ZM166.313 66.3491L166.153 65.362L166.137 65.3645L166.122 65.3675L166.313 66.3491ZM158.176 45.187V44.187H157.176V45.187H158.176ZM160.324 45.187H161.324V44.187H160.324V45.187ZM161.398 63.0459L160.612 63.663L160.618 63.6716L160.625 63.68L161.398 63.0459ZM168.811 63.3145L168.281 62.4664L168.275 62.4702L168.811 63.3145ZM172.06 60.2529L172.852 60.8632L173.06 60.5934V60.2529H172.06ZM172.06 45.187V44.187H171.06V45.187H172.06ZM174.208 45.187H175.208V44.187H174.208V45.187ZM174.208 66V67H175.208V66H174.208ZM172.06 66H171.06V67H172.06V66ZM171.29 62.569C170.833 63.12 170.318 63.5797 169.743 63.9525L170.832 65.6305C171.582 65.1439 172.248 64.5473 172.83 63.8451L171.29 62.569ZM169.749 63.9488C169.156 64.3276 168.551 64.6379 167.933 64.8819L168.667 66.7422C169.41 66.449 170.13 66.079 170.826 65.6342L169.749 63.9488ZM167.946 64.8767C167.343 65.105 166.746 65.2659 166.153 65.362L166.473 67.3362C167.205 67.2175 167.932 67.0204 168.654 66.7473L167.946 64.8767ZM166.122 65.3675C165.525 65.4837 165.008 65.5371 164.567 65.5371V67.5371C165.165 67.5371 165.812 67.4652 166.504 67.3307L166.122 65.3675ZM164.567 65.5371C162.641 65.5371 161.362 64.9726 160.539 63.9935C159.688 62.9811 159.176 61.3544 159.176 58.937H157.176C157.176 61.5863 157.729 63.7597 159.008 65.2807C160.315 66.8349 162.233 67.5371 164.567 67.5371V65.5371ZM159.176 58.937V45.187H157.176V58.937H159.176ZM158.176 46.187H160.324V44.187H158.176V46.187ZM159.324 45.187V58.749H161.324V45.187H159.324ZM159.324 58.749C159.324 60.7853 159.691 62.4891 160.612 63.663L162.185 62.4288C161.674 61.7765 161.324 60.6158 161.324 58.749H159.324ZM160.625 63.68C161.634 64.9097 163.26 65.3887 165.185 65.3887V63.3887C163.529 63.3887 162.631 62.9725 162.172 62.4118L160.625 63.68ZM165.185 65.3887C166.671 65.3887 168.065 64.9727 169.347 64.1587L168.275 62.4702C167.301 63.0885 166.277 63.3887 165.185 63.3887V65.3887ZM169.341 64.1625C170.608 63.3703 171.776 62.2607 172.852 60.8632L171.268 59.6427C170.303 60.8949 169.305 61.8263 168.281 62.4665L169.341 64.1625ZM173.06 60.2529V45.187H171.06V60.2529H173.06ZM172.06 46.187H174.208V44.187H172.06V46.187ZM173.208 45.187V66H175.208V45.187H173.208ZM174.208 65H172.06V67H174.208V65ZM173.06 66V63.207H171.06V66H173.06ZM194.646 63.3145H195.646V61.1056L193.986 62.563L194.646 63.3145ZM192.497 64.9258L193.005 65.7871L193.013 65.7824L193.021 65.7774L192.497 64.9258ZM190.429 65.9194L190.761 66.8629L190.768 66.8604L190.775 66.8578L190.429 65.9194ZM183.876 66.1074L184.218 65.1676L184.209 65.1642L184.199 65.1609L183.876 66.1074ZM181.835 64.9526L181.164 65.6936L181.17 65.6995L181.177 65.7052L181.835 64.9526ZM180.466 63.0996L179.55 63.5016L179.556 63.5152L179.563 63.5287L180.466 63.0996ZM183.017 55.1235L182.473 54.2847L182.469 54.287L183.017 55.1235ZM194.646 53.1362V54.1362H195.646V53.1362H194.646ZM193.732 48.6245L192.908 49.191L192.913 49.1972L192.917 49.2033L193.732 48.6245ZM191.987 47.2817L192.373 46.3593L191.987 47.2817ZM184.44 47.7114L183.915 46.8608L183.908 46.8652L184.44 47.7114ZM182.722 50.4775V51.4775H183.587L183.711 50.621L182.722 50.4775ZM180.6 50.4775L179.606 50.3691L179.485 51.4775H180.6V50.4775ZM182.91 46.1001L183.492 46.9131L183.499 46.9079L182.91 46.1001ZM192.497 45.187L192.161 46.1288L192.166 46.1306L192.497 45.187ZM194.968 46.7446L194.232 47.4221L194.242 47.4322L194.251 47.442L194.968 46.7446ZM196.364 49.1885L195.405 49.4726L195.407 49.4775L196.364 49.1885ZM196.794 66V67H197.794V66H196.794ZM194.646 66H193.646V67H194.646V66ZM194.646 55.2847H195.646V54.2847H194.646V55.2847ZM184.414 56.6274L183.911 55.7629L183.907 55.7655L184.414 56.6274ZM183.581 63.3682L182.996 64.1789L183.006 64.186L183.581 63.3682ZM189.677 64.0664L189.978 65.02L189.986 65.0176L189.993 65.0151L189.677 64.0664ZM191.638 63.1802L192.145 64.0421L191.638 63.1802ZM193.303 61.9985L193.954 62.7578L193.956 62.7559L193.303 61.9985ZM194.646 60.7095L195.384 61.3837L195.646 61.0973V60.7095H194.646ZM193.986 62.563C193.286 63.1772 192.615 63.6789 191.973 64.0741L193.021 65.7774C193.775 65.3133 194.537 64.7408 195.305 64.0659L193.986 62.563ZM191.989 64.0644C191.337 64.4492 190.701 64.7534 190.083 64.9811L190.775 66.8578C191.518 66.5841 192.261 66.2259 193.005 65.7871L191.989 64.0644ZM190.098 64.976C189.496 65.1873 188.9 65.3319 188.308 65.4118L188.576 67.3938C189.309 67.2948 190.037 67.117 190.761 66.8629L190.098 64.976ZM188.308 65.4118C187.691 65.4953 187.064 65.5371 186.428 65.5371V67.5371C187.152 67.5371 187.868 67.4894 188.576 67.3938L188.308 65.4118ZM186.428 65.5371C185.621 65.5371 184.887 65.4108 184.218 65.1676L183.535 67.0472C184.441 67.3769 185.409 67.5371 186.428 67.5371V65.5371ZM184.199 65.1609C183.523 64.9305 182.96 64.6077 182.494 64.2001L181.177 65.7052C181.857 66.3002 182.654 66.7472 183.554 67.0539L184.199 65.1609ZM182.507 64.2117C182.033 63.7825 181.655 63.2716 181.369 62.6706L179.563 63.5287C179.957 64.3599 180.492 65.0843 181.164 65.6936L182.507 64.2117ZM181.381 62.6976C181.12 62.1018 180.982 61.4347 180.982 60.6826H178.982C178.982 61.6851 179.167 62.6293 179.55 63.5016L181.381 62.6976ZM180.982 60.6826C180.982 58.645 181.819 57.1037 183.565 55.9601L182.469 54.287C180.169 55.7931 178.982 57.9579 178.982 60.6826H180.982ZM183.562 55.9623C185.365 54.7917 188.188 54.1362 192.175 54.1362V52.1362C188.033 52.1362 184.751 52.8056 182.473 54.2848L183.562 55.9623ZM192.175 54.1362H194.646V52.1362H192.175V54.1362ZM195.646 53.1362C195.646 52.1847 195.59 51.2964 195.475 50.4736L193.494 50.75C193.594 51.467 193.646 52.2616 193.646 53.1362H195.646ZM195.475 50.4736C195.348 49.5677 195.047 48.749 194.548 48.0458L192.917 49.2033C193.206 49.61 193.406 50.1162 193.494 50.75L195.475 50.4736ZM194.556 48.058C194.034 47.2976 193.284 46.7407 192.373 46.3593L191.601 48.2042C192.229 48.4673 192.643 48.8056 192.908 49.191L194.556 48.058ZM192.373 46.3593C191.43 45.9646 190.233 45.7983 188.845 45.7983V47.7983C190.106 47.7983 191.004 47.9543 191.601 48.2042L192.373 46.3593ZM188.845 45.7983C186.821 45.7983 185.132 46.1084 183.915 46.8608L184.966 48.562C185.719 48.097 186.966 47.7983 188.845 47.7983V45.7983ZM183.908 46.8652C182.668 47.6456 181.949 48.8392 181.732 50.3341L183.711 50.621C183.853 49.6451 184.279 48.9947 184.973 48.5577L183.908 46.8652ZM182.722 49.4775H180.6V51.4775H182.722V49.4775ZM181.594 50.586C181.785 48.8331 182.447 47.6612 183.492 46.9131L182.327 45.2871C180.722 46.4368 179.844 48.1831 179.606 50.3691L181.594 50.586ZM183.499 46.9079C184.578 46.1205 186.3 45.6499 188.818 45.6499V43.6499C186.108 43.6499 183.891 44.1461 182.32 45.2923L183.499 46.9079ZM188.818 45.6499C190.192 45.6499 191.297 45.8204 192.161 46.1288L192.833 44.2453C191.692 43.8375 190.344 43.6499 188.818 43.6499V45.6499ZM192.166 46.1306C193.058 46.4436 193.734 46.8812 194.232 47.4221L195.703 46.0672C194.948 45.2474 193.977 44.6465 192.828 44.2434L192.166 46.1306ZM194.251 47.442C194.773 47.978 195.161 48.6467 195.405 49.4726L197.323 48.9044C196.995 47.7967 196.452 46.8362 195.684 46.0473L194.251 47.442ZM195.407 49.4775C195.66 50.3154 195.794 51.2897 195.794 52.4111H197.794C197.794 51.1335 197.642 49.9593 197.322 48.8995L195.407 49.4775ZM195.794 52.4111V66H197.794V52.4111H195.794ZM196.794 65H194.646V67H196.794V65ZM195.646 66V63.3145H193.646V66H195.646ZM194.646 54.2847H191.396V56.2847H194.646V54.2847ZM191.396 54.2847C188.219 54.2847 185.679 54.7351 183.911 55.7629L184.916 57.4919C186.228 56.7294 188.342 56.2847 191.396 56.2847V54.2847ZM183.907 55.7655C182.102 56.8271 181.131 58.423 181.131 60.4678H183.131C183.131 59.1825 183.682 58.2181 184.921 57.4894L183.907 55.7655ZM181.131 60.4678C181.131 62.0106 181.758 63.2848 182.996 64.1788L184.167 62.5575C183.471 62.0551 183.131 61.3956 183.131 60.4678H181.131ZM183.006 64.186C184.199 65.0255 185.751 65.3887 187.556 65.3887V63.3887C185.995 63.3887 184.897 63.0715 184.157 62.5504L183.006 64.186ZM187.556 65.3887C188.389 65.3887 189.198 65.2665 189.978 65.02L189.376 63.1128C188.796 63.296 188.191 63.3887 187.556 63.3887V65.3887ZM189.993 65.0151C190.755 64.7611 191.473 64.4372 192.145 64.0421L191.131 62.3182C190.585 62.6393 189.996 62.9062 189.361 63.1177L189.993 65.0151ZM192.145 64.0421C192.801 63.6562 193.404 63.2284 193.954 62.7578L192.652 61.2393C192.198 61.628 191.692 61.988 191.131 62.3182L192.145 64.0421ZM193.956 62.7559C194.498 62.288 194.976 61.8307 195.384 61.3837L193.907 60.0352C193.563 60.4118 193.145 60.8139 192.65 61.2411L193.956 62.7559ZM195.646 60.7095V55.2847H193.646V60.7095H195.646ZM219.165 69.0078L218.209 68.7137L218.208 68.7178L219.165 69.0078ZM217.553 71.8813L216.837 71.183L216.829 71.1921L217.553 71.8813ZM207.966 73.6001L208.238 72.6379L208.23 72.6355L208.221 72.6333L207.966 73.6001ZM203.911 70.6997L203.025 71.1645L203.03 71.1731L203.034 71.1816L203.911 70.6997ZM203.266 68.2559V67.2559H202.206L202.268 68.3146L203.266 68.2559ZM205.415 68.2559L206.412 68.1836L206.345 67.2559H205.415V68.2559ZM206.945 70.9683L207.481 70.1239L207.469 70.1166L206.945 70.9683ZM213.901 71.4517L213.604 70.4968L213.594 70.4998L213.585 70.503L213.901 71.4517ZM217.124 67.853L216.165 67.5689L216.162 67.5771L216.16 67.5854L217.124 67.853ZM217.553 62.9653H218.553V60.2395L216.79 62.3186L217.553 62.9653ZM215.566 64.9258L216.173 65.7201L216.177 65.7176L215.566 64.9258ZM213.793 66L214.17 66.9265L214.182 66.9215L214.194 66.9162L213.793 66ZM212.128 66.4297L212.029 65.4347L212.01 65.4365L211.992 65.4391L212.128 66.4297ZM204.609 63.583L203.796 64.1657L203.801 64.173L204.609 63.583ZM203.051 60.1724L202.083 60.4211L202.086 60.4333L203.051 60.1724ZM203.159 51.1221L202.204 50.8245L202.202 50.8324L203.159 51.1221ZM204.904 47.6309L204.115 47.0169L204.113 47.019L204.904 47.6309ZM207.536 45.4287L207.983 46.3232L207.99 46.32L207.536 45.4287ZM214.035 45.1602L213.71 46.1058L213.723 46.1104L213.737 46.1146L214.035 45.1602ZM217.553 47.1475L216.906 47.91L218.553 49.3074V47.1475H217.553ZM217.553 45.187V44.187H216.553V45.187H217.553ZM219.702 45.187H220.702V44.187H219.702V45.187ZM217.553 49.8062H218.553V49.4025L218.273 49.112L217.553 49.8062ZM214.519 47.5503L214.084 48.4509L214.09 48.4537L214.519 47.5503ZM208.422 47.3623L208.844 48.2691L208.853 48.2648L208.422 47.3623ZM206.435 49.0273L207.233 49.6305L207.24 49.6212L206.435 49.0273ZM205.146 51.8203L206.11 52.0847L206.111 52.0808L205.146 51.8203ZM206.328 62.1865L205.525 62.7834L206.328 62.1865ZM214.438 63.3413L214.983 64.1798L214.993 64.1734L214.438 63.3413ZM217.553 60.1724L218.366 60.7556L218.553 60.4942V60.1724H217.553ZM218.702 64.7646C218.702 66.3639 218.529 67.673 218.209 68.7137L220.12 69.3019C220.516 68.0151 220.702 66.4955 220.702 64.7646H218.702ZM218.208 68.7178C217.887 69.777 217.421 70.5849 216.837 71.183L218.269 72.5797C219.118 71.7097 219.726 70.6019 220.122 69.2978L218.208 68.7178ZM216.829 71.1921C216.259 71.7906 215.524 72.2443 214.593 72.5393L215.196 74.446C216.413 74.0607 217.451 73.4402 218.278 72.5706L216.829 71.1921ZM214.593 72.5393C213.637 72.8419 212.499 73.0029 211.162 73.0029V75.0029C212.654 75.0029 214.003 74.8238 215.196 74.446L214.593 72.5393ZM211.162 73.0029C210.054 73.0029 209.083 72.877 208.238 72.6379L207.693 74.5623C208.746 74.8603 209.906 75.0029 211.162 75.0029V73.0029ZM208.221 72.6333C207.368 72.408 206.668 72.0866 206.101 71.6838L204.943 73.3142C205.737 73.8783 206.665 74.2909 207.71 74.5669L208.221 72.6333ZM206.101 71.6838C205.541 71.2858 205.107 70.799 204.787 70.2178L203.034 71.1816C203.503 72.0327 204.142 72.7454 204.943 73.3142L206.101 71.6838ZM204.796 70.2349C204.494 69.66 204.311 68.9869 204.264 68.1971L202.268 68.3146C202.329 69.3509 202.575 70.3071 203.025 71.1645L204.796 70.2349ZM203.266 69.2559H205.415V67.2559H203.266V69.2559ZM204.417 68.3281C204.526 69.8351 205.177 71.0541 206.421 71.8199L207.469 70.1166C206.852 69.7365 206.482 69.1474 206.412 68.1836L204.417 68.3281ZM206.409 71.8126C207.574 72.5518 209.177 72.8545 211.081 72.8545V70.8545C209.333 70.8545 208.178 70.5664 207.481 70.1239L206.409 71.8126ZM211.081 72.8545C212.236 72.8545 213.287 72.7105 214.217 72.4003L213.585 70.503C212.904 70.7299 212.075 70.8545 211.081 70.8545V72.8545ZM214.198 72.4065C215.164 72.1061 215.991 71.5923 216.655 70.8621L215.175 69.5168C214.765 69.9682 214.249 70.296 213.604 70.4968L214.198 72.4065ZM216.655 70.8621C217.321 70.1298 217.787 69.2004 218.087 68.1207L216.16 67.5854C215.923 68.4393 215.584 69.0675 215.175 69.5168L216.655 70.8621ZM218.082 68.1371C218.405 67.0493 218.553 65.7563 218.553 64.2812H216.553C216.553 65.6349 216.415 66.7231 216.165 67.5689L218.082 68.1371ZM218.553 64.2812V62.9653H216.553V64.2812H218.553ZM216.79 62.3186C216.122 63.1066 215.51 63.7058 214.955 64.134L216.177 65.7176C216.875 65.179 217.588 64.4712 218.316 63.612L216.79 62.3186ZM214.958 64.1314C214.4 64.5587 213.878 64.8716 213.393 65.0838L214.194 66.9162C214.855 66.6271 215.515 66.2239 216.173 65.7201L214.958 64.1314ZM213.417 65.0735C212.92 65.2754 212.458 65.3917 212.029 65.4347L212.228 67.4247C212.873 67.3602 213.521 67.1901 214.17 66.9265L213.417 65.0735ZM211.992 65.4391C211.516 65.5047 211.051 65.5371 210.598 65.5371V67.5371C211.147 67.5371 211.703 67.4979 212.265 67.4203L211.992 65.4391ZM210.598 65.5371C209.425 65.5371 208.433 65.3051 207.593 64.8703L206.673 66.6463C207.839 67.2499 209.156 67.5371 210.598 67.5371V65.5371ZM207.593 64.8703C206.731 64.4238 206.007 63.8019 205.416 62.993L203.801 64.173C204.571 65.2261 205.531 66.0544 206.673 66.6463L207.593 64.8703ZM205.422 63.0003C204.822 62.1641 204.349 61.1406 204.017 59.9115L202.086 60.4333C202.47 61.8538 203.035 63.1041 203.796 64.1657L205.422 63.0003ZM204.02 59.9237C203.704 58.6938 203.541 57.302 203.541 55.7412H201.541C201.541 57.4389 201.718 59.0012 202.083 60.4211L204.02 59.9237ZM203.541 55.7412C203.541 54.1008 203.738 52.6613 204.116 51.4117L202.202 50.8324C201.756 52.3042 201.541 53.9441 201.541 55.7412H203.541ZM204.113 51.4196C204.515 50.1322 205.047 49.0804 205.695 48.2427L204.113 47.019C203.293 48.0791 202.662 49.3548 202.204 50.8245L204.113 51.4196ZM205.694 48.2448C206.363 47.3848 207.126 46.7517 207.983 46.3231L207.089 44.5343C205.941 45.1084 204.95 45.9433 204.115 47.0169L205.694 48.2448ZM207.99 46.32C208.867 45.8735 209.804 45.6499 210.812 45.6499V43.6499C209.494 43.6499 208.246 43.9456 207.083 44.5374L207.99 46.32ZM210.812 45.6499C211.266 45.6499 211.741 45.6823 212.238 45.7486L212.502 43.7661C211.925 43.6891 211.361 43.6499 210.812 43.6499V45.6499ZM212.238 45.7486C212.702 45.8105 213.193 45.9279 213.71 46.1058L214.36 44.2145C213.732 43.9985 213.112 43.8474 212.502 43.7661L212.238 45.7486ZM213.737 46.1146C214.24 46.2719 214.762 46.4954 215.302 46.79L216.26 45.0342C215.618 44.6843 214.976 44.4064 214.333 44.2057L213.737 46.1146ZM215.302 46.79C215.825 47.0752 216.36 47.4463 216.906 47.91L218.2 46.385C217.565 45.846 216.918 45.3936 216.26 45.0342L215.302 46.79ZM218.553 47.1475V45.187H216.553V47.1475H218.553ZM217.553 46.187H219.702V44.187H217.553V46.187ZM218.702 45.187V64.7646H220.702V45.187H218.702ZM218.273 49.112C217.238 48.0389 216.131 47.2087 214.947 46.6469L214.09 48.4537C215.019 48.8945 215.935 49.5682 216.833 50.5003L218.273 49.112ZM214.953 46.6497C213.766 46.0765 212.46 45.7983 211.054 45.7983V47.7983C212.19 47.7983 213.194 48.0215 214.084 48.4508L214.953 46.6497ZM211.054 45.7983C209.955 45.7983 208.928 46.013 207.992 46.4598L208.853 48.2648C209.492 47.9596 210.22 47.7983 211.054 47.7983V45.7983ZM208.001 46.4556C207.064 46.8912 206.275 47.5607 205.63 48.4335L207.24 49.6212C207.705 48.9901 208.241 48.5496 208.844 48.269L208.001 46.4556ZM205.637 48.4242C204.987 49.2842 204.51 50.34 204.181 51.5598L206.111 52.0808C206.391 51.0448 206.773 50.2386 207.233 49.6305L205.637 48.4242ZM204.182 51.5559C203.848 52.7737 203.689 54.1736 203.689 55.7412H205.689C205.689 54.301 205.836 53.0869 206.11 52.0847L204.182 51.5559ZM203.689 55.7412C203.689 58.6749 204.252 61.0715 205.525 62.7834L207.13 61.5897C206.219 60.3654 205.689 58.4651 205.689 55.7412H203.689ZM205.525 62.7834C206.82 64.5242 208.65 65.3887 210.893 65.3887V63.3887C209.233 63.3887 208.019 62.7851 207.13 61.5897L205.525 62.7834ZM210.893 65.3887C212.374 65.3887 213.745 64.9841 214.983 64.1798L213.893 62.5029C212.982 63.095 211.99 63.3887 210.893 63.3887V65.3887ZM214.993 64.1734C216.194 63.3724 217.315 62.2193 218.366 60.7556L216.741 59.5892C215.787 60.9184 214.83 61.8779 213.883 62.5093L214.993 64.1734ZM218.553 60.1724V49.8062H216.553V60.1724H218.553ZM231.088 65.812L230.698 66.7327L230.71 66.7376L231.088 65.812ZM228.027 63.6636L227.279 64.3271L227.285 64.3345L227.292 64.3419L228.027 63.6636ZM226.066 60.1992L225.12 60.5229L226.066 60.1992ZM226.04 51.0146L226.988 51.3309L226.989 51.3271L226.04 51.0146ZM227.946 47.5771L228.695 48.2398L228.702 48.2326L227.946 47.5771ZM241.401 47.5771L240.639 48.2244L240.645 48.2315L241.401 47.5771ZM243.254 51.0146L242.3 51.3158L242.301 51.3194L243.254 51.0146ZM243.898 56.0635V57.0635H244.898V56.0635H243.898ZM227.517 56.0635V55.0635H226.438L226.519 56.1392L227.517 56.0635ZM228.295 59.7427L227.366 60.1113L228.295 59.7427ZM229.907 62.3477L229.181 63.036L229.19 63.0453L229.907 62.3477ZM232.189 63.8784L231.821 64.8082L231.828 64.8108L232.189 63.8784ZM237.185 64.147L237.404 65.1226L237.416 65.12L237.427 65.1171L237.185 64.147ZM239.118 63.3682L238.619 62.5015L238.608 62.5083L239.118 63.3682ZM240.595 62.106L239.809 61.4881L240.595 62.106ZM241.293 60.3872V59.3872H240.398L240.3 60.2768L241.293 60.3872ZM243.415 60.3872L244.396 60.5833L244.635 59.3872H243.415V60.3872ZM242.368 63.019L243.2 63.5738L243.206 63.5647L242.368 63.019ZM240.515 64.9526L241.092 65.7691L241.099 65.7644L241.105 65.7597L240.515 64.9526ZM241.723 53.915V54.915H242.885L242.712 53.7663L241.723 53.915ZM239.279 48.5708L238.593 49.2984L238.598 49.3032L239.279 48.5708ZM229.96 48.5439L229.274 47.8164L229.269 47.8213L229.264 47.8264L229.96 48.5439ZM228.403 50.7729L227.501 50.3402L227.498 50.3476L227.494 50.355L228.403 50.7729ZM227.517 53.915L226.528 53.7674L226.356 54.915H227.517V53.915ZM235.036 65.5371C233.698 65.5371 232.513 65.3145 231.467 64.8865L230.71 66.7376C232.027 67.2764 233.474 67.5371 235.036 67.5371V65.5371ZM231.479 64.8914C230.426 64.4448 229.523 63.8106 228.762 62.9853L227.292 64.3419C228.249 65.3785 229.387 66.1766 230.698 66.7326L231.479 64.8914ZM228.775 63.0001C228.032 62.1626 227.441 61.1277 227.013 59.8755L225.12 60.5229C225.623 61.9921 226.338 63.2667 227.279 64.3271L228.775 63.0001ZM227.013 59.8755C226.589 58.6381 226.368 57.2019 226.368 55.5532H224.368C224.368 57.3779 224.613 59.039 225.12 60.5229L227.013 59.8755ZM226.368 55.5532C226.368 53.958 226.58 52.5545 226.988 51.3309L225.091 50.6984C224.604 52.1603 224.368 53.7825 224.368 55.5532H226.368ZM226.989 51.3271C227.401 50.0761 227.974 49.0545 228.695 48.2397L227.197 46.9146C226.271 47.9617 225.573 49.2319 225.09 50.7022L226.989 51.3271ZM228.702 48.2326C229.431 47.3923 230.288 46.7564 231.28 46.3157L230.467 44.488C229.203 45.0499 228.109 45.8642 227.191 46.9217L228.702 48.2326ZM231.28 46.3157C232.266 45.8775 233.378 45.6499 234.633 45.6499V43.6499C233.131 43.6499 231.737 43.9236 230.467 44.488L231.28 46.3157ZM234.633 45.6499C235.928 45.6499 237.069 45.8788 238.073 46.318L238.874 44.4857C237.587 43.9223 236.168 43.6499 234.633 43.6499V45.6499ZM238.073 46.318C239.08 46.7586 239.932 47.392 240.639 48.2244L242.163 46.9299C241.259 45.8645 240.159 45.0477 238.874 44.4857L238.073 46.318ZM240.645 48.2315C241.348 49.0444 241.905 50.0646 242.3 51.3158L244.207 50.7135C243.743 49.2433 243.065 47.9719 242.157 46.9228L240.645 48.2315ZM242.301 51.3194C242.694 52.5458 242.898 53.962 242.898 55.5801H244.898C244.898 53.7964 244.673 52.1691 244.206 50.7099L242.301 51.3194ZM242.898 55.5801V56.0635H244.898V55.5801H242.898ZM243.898 55.0635H227.517V57.0635H243.898V55.0635ZM226.519 56.1392C226.633 57.6283 226.908 58.9579 227.366 60.1113L229.225 59.3741C228.859 58.4506 228.615 57.3274 228.514 55.9877L226.519 56.1392ZM227.366 60.1113C227.817 61.2495 228.418 62.2315 229.181 63.0359L230.632 61.6594C230.07 61.0673 229.597 60.3127 229.225 59.3741L227.366 60.1113ZM229.19 63.0453C229.948 63.8239 230.827 64.4147 231.821 64.8082L232.557 62.9486C231.833 62.6618 231.19 62.2321 230.623 61.65L229.19 63.0453ZM231.828 64.8108C232.83 65.1993 233.902 65.3887 235.036 65.3887V63.3887C234.129 63.3887 233.304 63.2379 232.551 62.9461L231.828 64.8108ZM235.036 65.3887C235.828 65.3887 236.618 65.2995 237.404 65.1226L236.965 63.1714C236.319 63.3167 235.677 63.3887 235.036 63.3887V65.3887ZM237.427 65.1171C238.227 64.917 238.964 64.6228 239.629 64.228L238.608 62.5083C238.127 62.7939 237.574 63.0188 236.942 63.1768L237.427 65.1171ZM239.617 64.2348C240.311 63.8353 240.903 63.3324 241.382 62.7238L239.809 61.4881C239.499 61.8821 239.107 62.2207 238.619 62.5015L239.617 64.2348ZM241.382 62.7238C241.893 62.0733 242.196 61.324 242.287 60.4976L240.3 60.2768C240.248 60.7395 240.086 61.136 239.809 61.4881L241.382 62.7238ZM241.293 61.3872H243.415V59.3872H241.293V61.3872ZM242.434 60.1911C242.26 61.0629 241.955 61.8194 241.53 62.4734L243.206 63.5647C243.782 62.6789 244.176 61.6809 244.396 60.5833L242.434 60.1911ZM241.536 62.4643C241.1 63.118 240.564 63.6773 239.924 64.1456L241.105 65.7597C241.933 65.1537 242.633 64.424 243.2 63.5737L241.536 62.4643ZM239.937 64.1362C239.301 64.586 238.572 64.9335 237.74 65.1735L238.294 67.0951C239.324 66.798 240.26 66.3577 241.092 65.7691L239.937 64.1362ZM237.74 65.1735C236.907 65.4138 236.007 65.5371 235.036 65.5371V67.5371C236.178 67.5371 237.265 67.3919 238.294 67.0951L237.74 65.1735ZM242.712 53.7663C242.333 51.2468 241.451 49.2242 239.96 47.8384L238.598 49.3032C239.65 50.2807 240.397 51.8209 240.734 54.0637L242.712 53.7663ZM239.965 47.8432C238.513 46.4735 236.713 45.7983 234.633 45.7983V47.7983C236.242 47.7983 237.539 48.3048 238.593 49.2984L239.965 47.8432ZM234.633 45.7983C233.614 45.7983 232.647 45.9585 231.74 46.2882L232.424 48.1678C233.093 47.9246 233.826 47.7983 234.633 47.7983V45.7983ZM231.74 46.2882C230.821 46.6225 229.997 47.1347 229.274 47.8164L230.646 49.2715C231.177 48.7715 231.768 48.4064 232.424 48.1678L231.74 46.2882ZM229.264 47.8264C228.558 48.512 227.973 49.3565 227.501 50.3402L229.304 51.2057C229.692 50.399 230.146 49.7575 230.657 49.2615L229.264 47.8264ZM227.494 50.355C227.035 51.3532 226.717 52.4951 226.528 53.7674L228.506 54.0627C228.674 52.9359 228.947 51.9831 229.311 51.1909L227.494 50.355ZM227.517 54.915H241.723V52.915H227.517V54.915ZM248.061 60.3872V59.3872H246.941L247.067 60.5L248.061 60.3872ZM250.236 60.3872L251.228 60.2597L251.116 59.3872H250.236V60.3872ZM251.955 63.3413L251.367 64.15L251.375 64.1561L251.384 64.1619L251.955 63.3413ZM258.884 64.0933L259.149 65.0575L259.16 65.0544L259.171 65.0511L258.884 64.0933ZM260.656 63.2607L261.246 64.0681L261.251 64.0643L260.656 63.2607ZM261.784 59.0176L260.874 59.4314L260.881 59.4482L260.89 59.4648L261.784 59.0176ZM260.764 57.9434L260.209 58.7754L260.216 58.78L260.223 58.7845L260.764 57.9434ZM258.75 57.0303L258.409 57.9706L258.421 57.975L258.433 57.979L258.75 57.0303ZM255.5 56.0635L255.749 55.0949L255.746 55.0942L255.5 56.0635ZM252.492 55.1772L252.164 56.122L252.492 55.1772ZM250.263 54.0493L249.659 54.8464L249.665 54.8507L249.671 54.855L250.263 54.0493ZM248.92 52.438L248.016 52.865L248.021 52.8749L248.92 52.438ZM248.974 47.8188L248.089 47.3531L248.085 47.362L248.974 47.8188ZM261.328 45.9121L260.776 46.746L260.782 46.7504L260.789 46.7548L261.328 45.9121ZM263.476 49.833V50.833H264.559L264.473 49.7533L263.476 49.833ZM261.301 49.833L260.31 49.9696L260.429 50.833H261.301V49.833ZM259.797 47.5503L259.285 48.4094L259.296 48.4158L259.307 48.4219L259.797 47.5503ZM252.116 47.6577L252.616 48.524L252.626 48.518L252.116 47.6577ZM251.015 48.7051L251.853 49.2513L251.858 49.2433L251.863 49.2351L251.015 48.7051ZM251.579 52.062L250.958 52.8461L250.966 52.8522L250.974 52.8582L251.579 52.062ZM253.566 53.1094L253.189 54.0352L253.197 54.0386L253.205 54.0417L253.566 53.1094ZM257.165 54.1836L257.411 53.2143L257.405 53.2128L257.165 54.1836ZM260.28 55.1504L259.919 56.0828L259.93 56.0872L259.942 56.0913L260.28 55.1504ZM262.482 56.332L261.852 57.1081L261.865 57.1189L261.879 57.1291L262.482 56.332ZM263.664 62.6431L262.758 62.2202L262.754 62.2293L263.664 62.6431ZM262.106 64.6841L261.462 63.9191L261.452 63.9277L262.106 64.6841ZM259.663 66.0269L259.346 65.0782L259.339 65.0808L259.331 65.0835L259.663 66.0269ZM256.413 65.5371C253.978 65.5371 252.247 65.0455 251.091 64.1944C249.966 63.3661 249.263 62.1059 249.055 60.2744L247.067 60.5C247.325 62.7684 248.246 64.5832 249.905 65.8049C251.533 67.0038 253.745 67.5371 256.413 67.5371V65.5371ZM248.061 61.3872H250.236V59.3872H248.061V61.3872ZM249.244 60.5147C249.439 62.0293 250.15 63.2653 251.367 64.15L252.543 62.5326C251.79 61.985 251.356 61.2516 251.228 60.2597L249.244 60.5147ZM251.384 64.1619C252.627 65.0278 254.343 65.3887 256.386 65.3887V63.3887C254.527 63.3887 253.288 63.0513 252.527 62.5207L251.384 64.1619ZM256.386 65.3887C257.401 65.3887 258.326 65.2837 259.149 65.0575L258.619 63.1291C258.009 63.2967 257.269 63.3887 256.386 63.3887V65.3887ZM259.171 65.0511C259.965 64.8128 260.667 64.4918 261.246 64.0681L260.066 62.4534C259.715 62.71 259.234 62.944 258.596 63.1354L259.171 65.0511ZM261.251 64.0643C261.849 63.6215 262.32 63.079 262.631 62.4324L260.829 61.5647C260.675 61.8849 260.43 62.1838 260.061 62.4572L261.251 64.0643ZM262.631 62.4324C262.932 61.8089 263.08 61.1408 263.08 60.4409H261.08C261.08 60.8511 260.995 61.2214 260.829 61.5647L262.631 62.4324ZM263.08 60.4409C263.08 59.77 262.961 59.1345 262.679 58.5704L260.89 59.4648C261.002 59.6884 261.08 60.0018 261.08 60.4409H263.08ZM262.695 58.6038C262.411 57.9805 261.909 57.4905 261.304 57.1022L260.223 58.7845C260.621 59.0407 260.799 59.2669 260.874 59.4314L262.695 58.6038ZM261.318 57.1113C260.732 56.7203 259.968 56.3824 259.066 56.0816L258.433 57.979C259.25 58.2511 259.829 58.5219 260.209 58.7754L261.318 57.1113ZM259.09 56.0899C258.207 55.7706 257.09 55.4393 255.749 55.0949L255.251 57.0321C256.56 57.368 257.609 57.6812 258.409 57.9706L259.09 56.0899ZM255.746 55.0942C254.639 54.8131 253.665 54.5256 252.82 54.2325L252.164 56.122C253.074 56.4377 254.105 56.7409 255.254 57.0327L255.746 55.0942ZM252.82 54.2325C252.017 53.9538 251.368 53.6201 250.856 53.2437L249.671 54.855C250.376 55.3737 251.213 55.792 252.164 56.122L252.82 54.2325ZM250.867 53.2522C250.394 52.8935 250.051 52.477 249.82 52.0011L248.021 52.8749C248.398 53.6522 248.951 54.31 249.659 54.8464L250.867 53.2522ZM249.825 52.011C249.601 51.5365 249.464 50.8957 249.464 50.0479H247.464C247.464 51.0978 247.631 52.0504 248.016 52.865L249.825 52.011ZM249.464 50.0479C249.464 49.3661 249.604 48.7823 249.864 48.2757L248.085 47.362C247.664 48.1803 247.464 49.0825 247.464 50.0479H249.464ZM249.859 48.2846C250.146 47.7389 250.539 47.2804 251.048 46.9028L249.855 45.2974C249.11 45.8507 248.518 46.5382 248.089 47.3531L249.859 48.2846ZM251.048 46.9028C251.559 46.5227 252.204 46.2127 253.004 45.9888L252.464 44.0629C251.473 44.3404 250.596 44.7465 249.855 45.2974L251.048 46.9028ZM253.004 45.9888C253.797 45.7666 254.698 45.6499 255.715 45.6499V43.6499C254.547 43.6499 253.461 43.7838 252.464 44.0629L253.004 45.9888ZM255.715 45.6499C258.1 45.6499 259.741 46.061 260.776 46.746L261.88 45.0783C260.372 44.0802 258.271 43.6499 255.715 43.6499V45.6499ZM260.789 46.7548C261.767 47.3792 262.356 48.373 262.479 49.9128L264.473 49.7533C264.31 47.7122 263.467 46.0921 261.866 45.0694L260.789 46.7548ZM263.476 48.833H261.301V50.833H263.476V48.833ZM262.291 49.6964C262.109 48.371 261.438 47.3263 260.287 46.6787L259.307 48.4219C259.874 48.7411 260.207 49.2182 260.31 49.9696L262.291 49.6964ZM260.309 46.6912C259.238 46.0531 257.76 45.7983 256.01 45.7983V47.7983C257.627 47.7983 258.673 48.0449 259.285 48.4094L260.309 46.6912ZM256.01 45.7983C255.163 45.7983 254.366 45.8753 253.624 46.0358L254.046 47.9906C254.629 47.8646 255.282 47.7983 256.01 47.7983V45.7983ZM253.624 46.0358C252.877 46.1972 252.199 46.4462 251.606 46.7974L252.626 48.518C253 48.2964 253.468 48.1156 254.046 47.9906L253.624 46.0358ZM251.616 46.7915C251.018 47.1368 250.528 47.5981 250.167 48.1751L251.863 49.2351C252.04 48.9527 252.283 48.7157 252.616 48.5239L251.616 46.7915ZM250.178 48.1588C249.793 48.7481 249.612 49.416 249.612 50.1284H251.612C251.612 49.7666 251.7 49.4857 251.853 49.2513L250.178 48.1588ZM249.612 50.1284C249.612 50.552 249.687 50.9721 249.825 51.3846L251.722 50.7521C251.645 50.5201 251.612 50.3136 251.612 50.1284H249.612ZM249.825 51.3846C250.021 51.9727 250.461 52.4525 250.958 52.8461L252.2 51.278C251.838 50.9912 251.741 50.8086 251.722 50.7521L249.825 51.3846ZM250.974 52.8582C251.523 53.2752 252.277 53.6633 253.189 54.0352L253.944 52.1835C253.101 51.8393 252.531 51.5291 252.184 51.2659L250.974 52.8582ZM253.205 54.0417C254.139 54.404 255.385 54.774 256.925 55.1544L257.405 53.2128C255.901 52.8413 254.748 52.495 253.928 52.177L253.205 54.0417ZM256.919 55.1529C258.091 55.4502 259.089 55.7609 259.919 56.0828L260.642 54.218C259.717 53.8595 258.638 53.5257 257.411 53.2143L256.919 55.1529ZM259.942 56.0913C260.76 56.3859 261.387 56.7307 261.852 57.1081L263.113 55.5559C262.432 55.0023 261.591 54.5594 260.619 54.2095L259.942 56.0913ZM261.879 57.1291C262.354 57.4892 262.683 57.8943 262.894 58.3423L264.703 57.4907C264.341 56.7213 263.793 56.07 263.086 55.5349L261.879 57.1291ZM262.894 58.3423C263.105 58.7914 263.228 59.3563 263.228 60.0649H265.228C265.228 59.1265 265.065 58.2591 264.703 57.4907L262.894 58.3423ZM263.228 60.0649C263.228 60.836 263.07 61.5506 262.758 62.2202L264.57 63.066C265.01 62.1242 265.228 61.1201 265.228 60.0649H263.228ZM262.754 62.2293C262.459 62.8778 262.032 63.4393 261.462 63.9192L262.751 65.449C263.541 64.783 264.153 63.9838 264.574 63.0569L262.754 62.2293ZM261.452 63.9277C260.904 64.4022 260.209 64.7906 259.346 65.0782L259.979 66.9755C261.05 66.6186 261.984 66.1118 262.761 65.4404L261.452 63.9277ZM259.331 65.0835C258.487 65.3804 257.518 65.5371 256.413 65.5371V67.5371C257.707 67.5371 258.905 67.3536 259.995 66.9702L259.331 65.0835Z" fill="black"/>
</g>
</g>
<defs>
<filter id="filter0_d" x="0" y="0" width="794" height="504" filterUnits="userSpaceOnUse" color-interpolation-filters="sRGB">
<feFlood flood-opacity="0" result="BackgroundImageFix"/>
<feColorMatrix in="SourceAlpha" type="matrix" values="0 0 0 0 0 0 0 0 0 0 0 0 0 0 0 0 0 0 127 0"/>
<feMorphology radius="5" operator="dilate" in="SourceAlpha" result="effect1_dropShadow"/>
<feOffset/>
<feGaussianBlur stdDeviation="1"/>
<feColorMatrix type="matrix" values="0 0 0 0 0 0 0 0 0 0 0 0 0 0 0 0 0 0 0.09 0"/>
<feBlend mode="normal" in2="BackgroundImageFix" result="effect1_dropShadow"/>
<feBlend mode="normal" in="SourceGraphic" in2="effect1_dropShadow" result="shape"/>
</filter>
</defs>
</svg>
