<svg width="287" height="943" viewBox="0 0 287 943" fill="none" xmlns="http://www.w3.org/2000/svg">
<path d="M110.287 915.859H137.322L150.185 807.297L110.281 807.299L110.287 915.859Z" fill="#FFB8B8"/>
<path d="M102.3 906.815L156.614 906.812H156.616C165.796 906.813 174.6 910.505 181.091 917.078C187.582 923.65 191.229 932.563 191.23 941.858V942.997L102.302 943L102.3 906.815Z" fill="#3F3131"/>
<path d="M41.8734 809.926L62.1542 828.783L143.344 758.228L113.413 730.398L41.8734 809.926Z" fill="#FFB8B8"/>
<path d="M41.9839 798.25L81.9557 835.677L81.9573 835.678C88.7124 842.004 92.7366 850.819 93.1446 860.183C93.5526 869.546 90.311 878.693 84.1329 885.61L83.376 886.457L17.9308 825.178L41.9839 798.25Z" fill="#3F3131"/>
<path d="M153.314 536.564L145.52 695.494L165.007 868.333L106.549 876.279L69.5276 657.749L57.8351 508.75L153.314 536.564Z" fill="#363546"/>
<path d="M243.799 478.253C243.799 478.253 267.045 635.209 218.617 686.865C170.188 738.522 104.326 829.914 104.326 829.914L57.8352 770.31L176 641.169L152.754 553.751L57.8351 508.055L45.3008 469.129H166.431L243.799 478.253Z" fill="#363546"/>
<path d="M115.715 105.437C115.715 105.437 130.842 131.777 105.121 148.159C79.3999 164.541 181.744 177.561 188.774 144.148C188.774 144.148 160.483 137.142 169.183 105.01L115.715 105.437Z" fill="#FFB8B8"/>
<path d="M146.923 118.628C170.339 115.847 187.295 95.157 184.795 72.4151C182.296 49.6732 161.287 33.4916 137.871 36.2724C114.456 39.0532 97.4995 59.7435 99.999 82.4854C102.498 105.227 123.507 121.409 146.923 118.628Z" fill="#FFB8B8"/>
<path d="M104.981 36.911L97.0895 34.8811C97.0895 34.8811 111.06 16.192 133.24 15.0509L126.321 9.20219C126.321 9.20219 140.813 1.56265 156.269 15.2908C164.394 22.5074 173.811 31.0059 180.209 41.0772L188.314 40.1188L185.725 47.709L198.359 53.4991L186.063 53.6446C187.899 59.716 188.21 66.1453 186.969 72.4024L187.922 78.047C187.922 78.047 171.512 58.6742 171.19 55.7493L171.997 63.0614C171.997 63.0614 163.701 57.3755 163.217 52.9882L159.654 58.5949L156.702 50.7956L132.13 61.8493L135.533 54.7803L119.949 58.8452L125.254 50.0695C125.254 50.0695 108.413 61.6906 108.612 69.8153C108.812 77.9399 100.997 89.2346 100.997 89.2346L96.0612 82.4106C96.0612 82.4106 86.2372 50.2385 104.981 36.911Z" fill="#2F2E41"/>
<path d="M187.87 141.724L207.166 155.498L238.341 214.589L220.565 343.781L216.832 473.2L90.4636 475.574L74.3329 178.999L113.37 144.866L187.87 141.724Z" fill="#CCCCCC"/>
<path d="M47.507 178.265L31.9475 176.277C31.9475 176.277 28.0577 178.265 26.1128 192.183C24.168 206.1 0.828979 329.372 0.828979 329.372L31.9475 480.478L66.9559 432.76L45.5621 349.254L66.9562 265.748L47.507 178.265Z" fill="#3F3131"/>
<path d="M246.37 176.277H257.978L287 337.211L259.914 462.385L232.826 416.686L240.566 367.015L236.697 323.304L223.153 297.474L246.37 176.277Z" fill="#3F3131"/>
<path d="M33.8925 176.03L96.212 150.196L110.818 139.266L154.637 336.999L183.849 247.572L175.085 133.304L255.906 176.03L228.641 311.164L224.746 362.833L236.431 404.566C236.431 404.566 266.659 442.381 259.691 469.129C246.059 500.925 198.59 491.681 198.59 491.681C198.59 491.681 168.269 436.362 164.374 420.464C160.479 404.566 154.637 376.744 154.637 376.744C154.637 376.744 121.529 503.929 82.5797 501.942C43.6301 499.954 43.63 458.222 43.63 458.222L53.3674 414.502L68.9474 368.795L61.1575 293.279L33.8925 176.03Z" fill="#3F3131"/>
</svg>
