<svg width="258" height="823" viewBox="0 0 258 823" fill="none" xmlns="http://www.w3.org/2000/svg">
<g id="man" opacity="0.88">
<path id="Vector" d="M101.302 200.666H98.1115V231.445H101.302V200.666Z" fill="#F2F2F2"/>
<path id="Vector_2" d="M201.195 391.129V432.348C201.195 432.348 210.71 498.756 210.71 556.768C210.71 614.78 195.34 749.887 195.34 749.887C195.34 749.887 164.599 761.336 162.403 743.78C160.207 726.224 154.352 633.1 154.352 619.36C154.352 605.62 128.735 501.046 128.735 501.046L112.633 617.07C112.633 617.07 117.756 754.466 112.633 758.283C107.509 762.099 82.6242 768.969 79.6965 762.099C76.7688 755.23 61.3986 607.91 61.3986 607.91C61.3986 607.91 48.956 415.555 56.2751 404.106C63.5943 392.656 70.1816 383.496 70.1816 383.496C70.1816 383.496 174.846 356.78 201.195 391.129Z" fill="#2F2E41"/>
<path id="Vector_3" d="M191.68 745.307L193.516 757.749C194.13 761.994 194.531 766.27 194.715 770.558C195.001 776.809 195.998 786.439 199.414 787.966C204.537 790.256 237.791 819.503 214.37 821.03C190.948 822.556 179.231 825.194 172.294 819.577C164.092 812.936 173.382 815.942 169.723 815.942C166.063 815.942 161.671 815.942 160.208 809.836C158.744 803.73 162.403 793.043 162.403 793.043V745.307H191.68Z" fill="#2F2E41"/>
<path id="Vector_4" d="M82.3949 744.709L80.5593 757.151C79.9446 761.396 79.5441 765.672 79.3596 769.96C79.0742 776.211 78.0768 785.841 74.6611 787.368C69.5377 789.658 36.2839 818.905 59.7053 820.432C83.1267 821.959 94.8439 824.596 101.781 818.979C109.983 812.338 100.693 815.345 104.352 815.345C108.012 815.345 112.403 815.345 113.867 809.238C115.331 803.132 111.672 792.445 111.672 792.445V744.709H82.3949Z" fill="#2F2E41"/>
<path id="Vector_5" d="M103.118 59.8514C103.118 59.8514 115.561 91.9105 124.344 97.2537C133.126 102.597 128.735 127.023 128.735 127.023L106.777 159.082H89.2114L67.9858 120.917C67.9858 120.917 66.522 95.7272 62.1305 89.6207C57.739 83.5142 103.118 59.8514 103.118 59.8514Z" fill="#D6B1AA"/>
<path id="Vector_6" opacity="0.1" d="M103.118 59.8514C103.118 59.8514 115.561 91.9105 124.344 97.2537C133.126 102.597 128.735 127.023 128.735 127.023L106.777 159.082H89.2114L67.9858 120.917C67.9858 120.917 66.522 95.7272 62.1305 89.6207C57.739 83.5142 103.118 59.8514 103.118 59.8514Z" fill="black"/>
<path id="Vector_7" d="M121.416 125.496L154.352 133.129L178.505 386.549C178.505 386.549 165.331 388.839 152.156 407.159C138.982 425.478 122.879 422.425 114.828 417.845C106.777 413.265 74.5728 400.289 73.8409 394.946C73.109 389.603 75.3048 295.715 75.3048 295.715L54.811 149.159L65.0579 133.129H83.3558L97.9943 146.106L121.416 125.496Z" fill="#4FD965" fill-opacity="0.91"/>
<path id="Vector_8" d="M71.6452 99.5439C92.6651 99.5439 109.705 81.773 109.705 59.8516C109.705 37.9301 92.6651 20.1593 71.6452 20.1593C50.6254 20.1593 33.5854 37.9301 33.5854 59.8516C33.5854 81.773 50.6254 99.5439 71.6452 99.5439Z" fill="#D6B1AA"/>
<path id="Vector_9" d="M126.539 112.52C126.539 112.52 198.267 120.153 204.855 136.183C211.442 152.212 200.463 223.2 200.463 223.2C200.463 223.2 226.812 285.029 226.08 299.532C225.348 314.035 250.965 413.265 223.152 401.816C195.34 390.366 204.123 360.597 190.216 381.97C176.31 403.342 170.454 400.289 170.454 400.289C170.454 400.289 156.548 423.952 152.156 421.662C147.765 419.372 144.837 401.816 154.352 393.419C163.867 385.023 162.403 370.52 144.105 343.041C125.807 315.561 106.777 171.295 117.756 149.159C128.735 127.023 126.539 112.52 126.539 112.52Z" fill="#3E3636"/>
<path id="Vector_10" d="M201.196 405.632L188.752 417.846L173.381 407.159L179.97 391.129L201.196 405.632Z" fill="#D6B1AA"/>
<path id="Vector_11" d="M73.8409 125.496C73.8409 125.496 18.2151 146.869 18.2151 169.768C18.2151 192.668 51.8833 292.662 51.8833 292.662C51.8833 292.662 51.8834 318.615 50.4195 324.721C48.9557 330.828 25.9268 384.088 46.028 388.839C58.5751 391.805 68.8841 399.597 69.8154 410.594C70.9212 423.652 61.3356 440.134 62.1302 443.035C63.5941 448.378 72.3771 456.011 71.6451 452.194C70.9132 448.378 77.5006 393.419 87.7474 368.993C97.9943 344.567 83.3559 180.455 80.4282 159.082C79.0153 147.735 76.8137 136.51 73.8409 125.496Z" fill="#3E3636"/>
<path id="Vector_12" d="M44.5649 404.105L57.739 436.929L67.6203 415.937L56.2745 389.602L44.5649 404.105Z" fill="#D6B1AA"/>
<path id="Vector_13" d="M114.523 84.4425C114.523 84.4425 126.539 89.6207 133.858 89.6207C141.178 89.6207 171.186 105.65 160.939 115.573C150.693 125.496 135.322 127.786 128.003 142.289C120.684 156.792 117.024 159.082 117.024 159.082L103.994 140.827C103.994 140.827 122.148 119.39 121.416 112.52C120.684 105.65 114.523 84.4425 114.523 84.4425Z" fill="#4FD965" fill-opacity="0.91"/>
<path id="Vector_14" d="M66.0087 102.795C66.0087 102.795 57.0067 106.414 54.8109 112.52C52.6152 118.627 38.7087 130.076 44.5641 133.13C50.4194 136.183 76.0365 148.396 81.16 150.686C86.2834 152.976 95.8316 144.189 95.8316 144.189C95.8316 144.189 82.9898 136.564 82.9898 131.221C82.9898 125.878 66.0087 102.795 66.0087 102.795Z" fill="#4FD965" fill-opacity="0.91"/>
<path id="Vector_15" d="M35.7813 159.082L18.2153 163.662C18.2153 163.662 -5.93798 276.632 1.38122 304.875C8.70042 333.118 43.1006 417.845 43.1006 417.845L65.0582 391.129C65.0582 391.129 55.4802 330.378 50.0224 326.404C44.5645 322.431 48.224 314.035 48.224 311.745C48.224 309.455 50.4198 310.982 45.2964 305.638C40.173 300.295 64.3263 270.526 57.739 262.129C51.1518 253.733 35.7813 159.082 35.7813 159.082Z" fill="#3E3636"/>
<path id="Vector_16" opacity="0.1" d="M208.88 180.073L198.267 138.473C198.267 138.473 226.812 159.845 232.667 191.141C238.523 222.437 261.212 285.029 246.574 312.508C231.935 339.987 206.318 419.372 197.535 417.845C188.752 416.319 167.527 397.236 166.795 394.183C166.063 391.129 204.854 320.904 198.999 315.561C193.144 310.218 194.608 296.478 198.999 293.425C203.391 290.372 208.514 275.869 204.854 276.632C201.195 277.396 190.216 269.763 192.412 261.366C194.608 252.97 181.433 196.485 181.433 196.485L208.88 180.073Z" fill="black"/>
<path id="Vector_17" d="M194.607 133.13L204.854 136.183C204.854 136.183 233.399 157.556 239.255 188.851C245.11 220.147 267.8 282.739 253.161 310.218C238.523 337.698 212.906 417.082 204.122 415.556C195.339 414.029 174.114 394.946 173.382 391.893C172.65 388.84 211.442 318.615 205.586 313.272C199.731 307.928 201.195 294.189 205.586 291.135C209.978 288.082 215.101 273.579 211.442 274.343C207.782 275.106 196.803 267.473 198.999 259.076C201.195 250.68 188.02 194.195 188.02 194.195L194.607 133.13Z" fill="#3E3636"/>
<path id="Vector_18" d="M101.181 24.0229L108.319 21.3158C108.319 21.3158 93.3933 5.74981 72.6272 7.1035L78.4678 1.01243C78.4678 1.01243 64.191 -4.40173 51.2122 9.81052C44.3895 17.2816 36.4954 26.0634 31.5744 35.9562H23.9297L27.1203 42.6111L15.9531 49.2661L27.4151 48.0707C26.3293 53.8162 26.7031 59.7579 28.4993 65.3063L31.0949 72.7508C31.0949 72.7508 41.4781 51.0939 41.4781 48.3868V55.1546C41.4781 55.1546 48.6165 49.0636 48.6165 45.003L52.5101 49.7404L54.457 42.2958L78.4678 49.7404L74.5742 43.6495L89.4999 45.6798L83.6592 38.2352C83.6592 38.2352 100.532 47.0333 101.181 54.4779C101.83 61.9224 110.266 71.3973 110.266 71.3973L114.159 64.6295C114.159 64.6295 120 34.1745 101.181 24.0229Z" fill="#2F2E41"/>
<path id="Vector_19" d="M99.7069 64.2397C102.791 64.2397 105.291 60.1429 105.291 55.0892C105.291 50.0355 102.791 45.9386 99.7069 45.9386C96.6232 45.9386 94.1233 50.0355 94.1233 55.0892C94.1233 60.1429 96.6232 64.2397 99.7069 64.2397Z" fill="#D6B1AA"/>
</g>
</svg>
