<svg width="794" height="295" viewBox="0 0 794 295" fill="none" xmlns="http://www.w3.org/2000/svg">
<g id="Framworks">
<g id="Rectangle 9" filter="url(#filter0_d)">
<rect x="7" y="7" width="780" height="281" rx="27" fill="#AAA5A5" fill-opacity="0.06"/>
</g>
<g id="Reat">
<path id="Photoshop" d="M69.7231 119.148H77.3022C78.3179 119.148 79.2954 119.23 80.2349 119.396C81.1743 119.561 81.9995 119.865 82.7104 120.31C83.4341 120.741 84.0054 121.332 84.4243 122.081C84.856 122.83 85.0718 123.782 85.0718 124.937C85.0718 126.981 84.4243 128.536 83.1294 129.603C81.8472 130.669 79.9683 131.202 77.4927 131.202H71.2466V140H69.7231V119.148ZM71.2466 129.679H77.5498C78.6162 129.679 79.5239 129.577 80.2729 129.374C81.022 129.171 81.6313 128.873 82.1011 128.479C82.5835 128.085 82.9326 127.603 83.1484 127.032C83.3643 126.448 83.4722 125.775 83.4722 125.013C83.4722 124.086 83.3071 123.337 82.9771 122.766C82.6597 122.195 82.2217 121.757 81.6631 121.452C81.1172 121.135 80.4824 120.925 79.7588 120.824C79.0352 120.722 78.2734 120.671 77.4736 120.671H71.2466V129.679ZM90.7847 127.432C91.2671 126.886 91.7368 126.441 92.1938 126.099C92.6636 125.756 93.1143 125.496 93.5459 125.318C93.9902 125.14 94.4092 125.02 94.8027 124.956C95.209 124.893 95.5898 124.861 95.9453 124.861C98.9795 124.861 100.497 126.651 100.497 130.231V140H98.9731V130.364C98.9731 129.679 98.9097 129.088 98.7827 128.593C98.6685 128.085 98.4717 127.673 98.1924 127.355C97.9258 127.025 97.5703 126.784 97.126 126.632C96.6943 126.467 96.1611 126.384 95.5264 126.384C94.6885 126.384 93.8823 126.632 93.1079 127.127C92.3462 127.622 91.5718 128.32 90.7847 129.222V140H89.2612V119.148H90.7847V127.432ZM111.046 124.861C112.049 124.861 112.957 125.039 113.77 125.394C114.582 125.737 115.274 126.245 115.845 126.917C116.417 127.578 116.854 128.39 117.159 129.355C117.464 130.307 117.616 131.386 117.616 132.592C117.616 133.824 117.458 134.922 117.14 135.887C116.835 136.852 116.397 137.67 115.826 138.343C115.255 139.003 114.563 139.511 113.75 139.867C112.938 140.209 112.037 140.381 111.046 140.381C110.056 140.381 109.155 140.209 108.342 139.867C107.542 139.524 106.857 139.022 106.286 138.362C105.714 137.689 105.27 136.871 104.953 135.906C104.635 134.941 104.477 133.836 104.477 132.592C104.477 131.374 104.629 130.288 104.934 129.336C105.251 128.371 105.695 127.559 106.267 126.898C106.838 126.238 107.53 125.737 108.342 125.394C109.155 125.039 110.056 124.861 111.046 124.861ZM111.046 138.857C111.795 138.857 112.475 138.73 113.084 138.477C113.706 138.21 114.239 137.816 114.684 137.296C115.128 136.763 115.471 136.109 115.712 135.334C115.966 134.547 116.093 133.633 116.093 132.592C116.093 131.564 115.966 130.663 115.712 129.888C115.471 129.101 115.128 128.454 114.684 127.946C114.239 127.425 113.706 127.038 113.084 126.784C112.475 126.518 111.795 126.384 111.046 126.384C110.285 126.384 109.593 126.518 108.971 126.784C108.361 127.038 107.834 127.425 107.39 127.946C106.946 128.454 106.603 129.101 106.362 129.888C106.121 130.663 106 131.564 106 132.592C106 133.633 106.121 134.547 106.362 135.334C106.603 136.109 106.946 136.763 107.39 137.296C107.834 137.816 108.361 138.21 108.971 138.477C109.593 138.73 110.285 138.857 111.046 138.857ZM126.395 140.133C126.179 140.159 125.963 140.178 125.748 140.19C125.532 140.203 125.316 140.209 125.1 140.209C124.44 140.209 123.907 140.121 123.5 139.943C123.107 139.752 122.802 139.473 122.586 139.105C122.383 138.737 122.25 138.28 122.187 137.734C122.123 137.175 122.091 136.528 122.091 135.792V126.765H120.206V125.242H122.091V121.376H123.615V125.242H126.033V126.765H123.615V135.925C123.615 136.534 123.659 137.023 123.748 137.391C123.837 137.747 123.97 138.026 124.148 138.229C124.326 138.419 124.542 138.546 124.795 138.61C125.062 138.661 125.36 138.686 125.69 138.686C125.83 138.686 125.951 138.686 126.052 138.686C126.154 138.686 126.268 138.68 126.395 138.667V140.133ZM135.345 124.861C136.348 124.861 137.256 125.039 138.068 125.394C138.881 125.737 139.573 126.245 140.144 126.917C140.715 127.578 141.153 128.39 141.458 129.355C141.763 130.307 141.915 131.386 141.915 132.592C141.915 133.824 141.756 134.922 141.439 135.887C141.134 136.852 140.696 137.67 140.125 138.343C139.554 139.003 138.862 139.511 138.049 139.867C137.237 140.209 136.335 140.381 135.345 140.381C134.355 140.381 133.454 140.209 132.641 139.867C131.841 139.524 131.156 139.022 130.584 138.362C130.013 137.689 129.569 136.871 129.251 135.906C128.934 134.941 128.775 133.836 128.775 132.592C128.775 131.374 128.928 130.288 129.232 129.336C129.55 128.371 129.994 127.559 130.565 126.898C131.137 126.238 131.829 125.737 132.641 125.394C133.454 125.039 134.355 124.861 135.345 124.861ZM135.345 138.857C136.094 138.857 136.773 138.73 137.383 138.477C138.005 138.21 138.538 137.816 138.982 137.296C139.427 136.763 139.77 136.109 140.011 135.334C140.265 134.547 140.392 133.633 140.392 132.592C140.392 131.564 140.265 130.663 140.011 129.888C139.77 129.101 139.427 128.454 138.982 127.946C138.538 127.425 138.005 127.038 137.383 126.784C136.773 126.518 136.094 126.384 135.345 126.384C134.583 126.384 133.892 126.518 133.27 126.784C132.66 127.038 132.133 127.425 131.689 127.946C131.245 128.454 130.902 129.101 130.661 129.888C130.419 130.663 130.299 131.564 130.299 132.592C130.299 133.633 130.419 134.547 130.661 135.334C130.902 136.109 131.245 136.763 131.689 137.296C132.133 137.816 132.66 138.21 133.27 138.477C133.892 138.73 134.583 138.857 135.345 138.857ZM150.789 140.381C147.171 140.381 145.197 138.927 144.867 136.02H146.409C146.523 136.909 146.93 137.607 147.628 138.115C148.339 138.61 149.386 138.857 150.77 138.857C151.443 138.857 152.033 138.788 152.541 138.648C153.049 138.496 153.468 138.299 153.798 138.058C154.141 137.804 154.395 137.505 154.56 137.163C154.725 136.82 154.807 136.452 154.807 136.058C154.807 135.665 154.737 135.328 154.598 135.049C154.471 134.77 154.229 134.516 153.874 134.287C153.531 134.059 153.055 133.843 152.446 133.64C151.849 133.424 151.081 133.195 150.142 132.954C149.342 132.751 148.631 132.542 148.009 132.326C147.387 132.11 146.86 131.843 146.428 131.526C146.009 131.208 145.692 130.828 145.476 130.383C145.26 129.926 145.152 129.361 145.152 128.688C145.152 128.104 145.273 127.578 145.514 127.108C145.768 126.625 146.117 126.219 146.562 125.889C147.006 125.559 147.545 125.305 148.18 125.127C148.815 124.95 149.52 124.861 150.294 124.861C152.046 124.861 153.373 125.159 154.274 125.756C155.188 126.34 155.696 127.267 155.797 128.536H154.255C154.153 127.8 153.798 127.26 153.188 126.917C152.592 126.562 151.697 126.384 150.503 126.384C149.945 126.384 149.431 126.435 148.961 126.537C148.491 126.638 148.085 126.791 147.742 126.994C147.412 127.184 147.152 127.432 146.961 127.736C146.771 128.028 146.676 128.365 146.676 128.746C146.676 128.961 146.714 129.184 146.79 129.412C146.866 129.641 147.057 129.875 147.361 130.117C147.679 130.358 148.148 130.605 148.771 130.859C149.393 131.101 150.243 131.354 151.322 131.621C152.173 131.837 152.909 132.065 153.531 132.307C154.166 132.535 154.687 132.814 155.093 133.145C155.512 133.462 155.823 133.836 156.026 134.268C156.229 134.7 156.331 135.208 156.331 135.792C156.331 136.439 156.197 137.048 155.931 137.62C155.677 138.178 155.309 138.661 154.826 139.067C154.356 139.473 153.779 139.791 153.093 140.019C152.408 140.26 151.64 140.381 150.789 140.381ZM162.005 127.432C162.488 126.886 162.958 126.441 163.415 126.099C163.884 125.756 164.335 125.496 164.767 125.318C165.211 125.14 165.63 125.02 166.023 124.956C166.43 124.893 166.811 124.861 167.166 124.861C170.2 124.861 171.717 126.651 171.717 130.231V140H170.194V130.364C170.194 129.679 170.13 129.088 170.003 128.593C169.889 128.085 169.692 127.673 169.413 127.355C169.146 127.025 168.791 126.784 168.347 126.632C167.915 126.467 167.382 126.384 166.747 126.384C165.909 126.384 165.103 126.632 164.329 127.127C163.567 127.622 162.792 128.32 162.005 129.222V140H160.482V119.148H162.005V127.432ZM182.267 124.861C183.27 124.861 184.178 125.039 184.99 125.394C185.803 125.737 186.495 126.245 187.066 126.917C187.637 127.578 188.075 128.39 188.38 129.355C188.685 130.307 188.837 131.386 188.837 132.592C188.837 133.824 188.678 134.922 188.361 135.887C188.056 136.852 187.618 137.67 187.047 138.343C186.476 139.003 185.784 139.511 184.971 139.867C184.159 140.209 183.257 140.381 182.267 140.381C181.277 140.381 180.375 140.209 179.563 139.867C178.763 139.524 178.078 139.022 177.506 138.362C176.935 137.689 176.491 136.871 176.173 135.906C175.856 134.941 175.697 133.836 175.697 132.592C175.697 131.374 175.85 130.288 176.154 129.336C176.472 128.371 176.916 127.559 177.487 126.898C178.059 126.238 178.75 125.737 179.563 125.394C180.375 125.039 181.277 124.861 182.267 124.861ZM182.267 138.857C183.016 138.857 183.695 138.73 184.305 138.477C184.927 138.21 185.46 137.816 185.904 137.296C186.349 136.763 186.691 136.109 186.933 135.334C187.187 134.547 187.313 133.633 187.313 132.592C187.313 131.564 187.187 130.663 186.933 129.888C186.691 129.101 186.349 128.454 185.904 127.946C185.46 127.425 184.927 127.038 184.305 126.784C183.695 126.518 183.016 126.384 182.267 126.384C181.505 126.384 180.813 126.518 180.191 126.784C179.582 127.038 179.055 127.425 178.611 127.946C178.167 128.454 177.824 129.101 177.583 129.888C177.341 130.663 177.221 131.564 177.221 132.592C177.221 133.633 177.341 134.547 177.583 135.334C177.824 136.109 178.167 136.763 178.611 137.296C179.055 137.816 179.582 138.21 180.191 138.477C180.813 138.73 181.505 138.857 182.267 138.857ZM194.264 127.432C194.747 126.848 195.21 126.384 195.654 126.042C196.111 125.699 196.549 125.438 196.968 125.261C197.387 125.083 197.787 124.969 198.168 124.918C198.562 124.867 198.942 124.842 199.311 124.842C200.225 124.842 201.037 125.026 201.748 125.394C202.459 125.762 203.056 126.283 203.538 126.956C204.021 127.616 204.389 128.416 204.643 129.355C204.896 130.294 205.023 131.335 205.023 132.478C205.023 133.684 204.871 134.776 204.566 135.753C204.274 136.718 203.862 137.543 203.329 138.229C202.808 138.915 202.186 139.448 201.462 139.829C200.751 140.197 199.977 140.381 199.139 140.381C198.784 140.381 198.416 140.362 198.035 140.324C197.654 140.298 197.26 140.222 196.854 140.095C196.448 139.968 196.029 139.784 195.597 139.543C195.166 139.289 194.721 138.953 194.264 138.534V145.427H192.741V125.242H194.264V127.432ZM194.264 136.687C195.635 138.134 197.209 138.857 198.987 138.857C199.672 138.857 200.288 138.724 200.834 138.458C201.393 138.178 201.869 137.772 202.262 137.239C202.656 136.706 202.96 136.045 203.176 135.258C203.392 134.458 203.5 133.532 203.5 132.478C203.5 130.472 203.113 128.955 202.338 127.927C201.577 126.898 200.498 126.384 199.101 126.384C197.273 126.384 195.661 127.368 194.264 129.336V136.687Z" fill="#F5EDED"/>
<rect id="Rectangle 3" x="255.811" y="119.842" width="467.093" height="30.3538" rx="6.61689" fill="#C4C4C4"/>
<rect id="Rectangle 7" x="255.811" y="119.842" width="397.026" height="30.3538" rx="6.61689" fill="#4FD965" fill-opacity="0.91"/>
<path id="85%" d="M566.104 133.799C566.104 133.532 566.059 133.298 565.968 133.097C565.876 132.891 565.746 132.721 565.576 132.587C565.406 132.448 565.202 132.344 564.965 132.277C564.735 132.205 564.479 132.168 564.2 132.168C563.921 132.168 563.662 132.205 563.426 132.277C563.195 132.344 562.994 132.448 562.824 132.587C562.66 132.721 562.533 132.891 562.441 133.097C562.35 133.298 562.305 133.532 562.305 133.799C562.305 134.03 562.35 134.246 562.441 134.446C562.539 134.64 562.672 134.826 562.842 135.002C563.019 135.172 563.225 135.336 563.462 135.494C563.705 135.646 563.975 135.791 564.273 135.931C564.862 135.676 565.315 135.372 565.63 135.02C565.946 134.662 566.104 134.255 566.104 133.799ZM566.505 138.983C566.475 138.655 566.393 138.382 566.259 138.163C566.126 137.939 565.955 137.744 565.749 137.58C565.548 137.416 565.315 137.267 565.047 137.134C564.78 137 564.498 136.854 564.2 136.696C563.665 136.939 563.243 137.173 562.934 137.398C562.63 137.617 562.402 137.823 562.25 138.018C562.098 138.212 562.004 138.391 561.968 138.555C561.931 138.713 561.913 138.856 561.913 138.983C561.913 139.311 561.98 139.6 562.113 139.849C562.247 140.098 562.42 140.308 562.633 140.478C562.852 140.642 563.098 140.766 563.371 140.851C563.644 140.936 563.921 140.979 564.2 140.979C564.51 140.979 564.804 140.936 565.084 140.851C565.369 140.766 565.615 140.642 565.822 140.478C566.034 140.308 566.201 140.098 566.323 139.849C566.451 139.6 566.511 139.311 566.505 138.983ZM566.842 133.799C566.842 134.267 566.706 134.722 566.432 135.166C566.159 135.609 565.746 135.989 565.193 136.305C565.612 136.517 565.952 136.727 566.214 136.933C566.481 137.14 566.69 137.352 566.842 137.571C566.994 137.79 567.097 138.015 567.152 138.245C567.207 138.476 567.234 138.722 567.234 138.983C567.234 139.433 567.155 139.828 566.997 140.168C566.845 140.502 566.633 140.784 566.359 141.015C566.092 141.246 565.773 141.419 565.403 141.535C565.032 141.65 564.631 141.708 564.2 141.708C563.769 141.708 563.368 141.65 562.997 141.535C562.633 141.419 562.317 141.246 562.05 141.015C561.782 140.784 561.57 140.502 561.412 140.168C561.26 139.828 561.184 139.433 561.184 138.983C561.184 138.467 561.351 137.987 561.685 137.544C562.019 137.094 562.578 136.69 563.362 136.332C562.712 135.961 562.25 135.564 561.977 135.138C561.71 134.713 561.576 134.267 561.576 133.799C561.576 133.416 561.643 133.079 561.776 132.788C561.91 132.49 562.092 132.241 562.323 132.041C562.56 131.84 562.836 131.691 563.152 131.594C563.474 131.491 563.823 131.439 564.2 131.439C564.577 131.439 564.926 131.491 565.248 131.594C565.57 131.691 565.849 131.84 566.086 132.041C566.323 132.235 566.508 132.481 566.642 132.779C566.775 133.07 566.842 133.41 566.842 133.799ZM576.929 138.218C576.929 138.71 576.859 139.169 576.719 139.594C576.585 140.019 576.379 140.39 576.099 140.705C575.826 141.015 575.483 141.261 575.07 141.444C574.657 141.62 574.174 141.708 573.621 141.708C573.226 141.708 572.859 141.653 572.519 141.544C572.179 141.434 571.875 141.276 571.608 141.07C571.346 140.857 571.128 140.596 570.952 140.286C570.781 139.971 570.669 139.609 570.614 139.202H571.425C571.48 139.512 571.574 139.779 571.708 140.004C571.841 140.229 572.005 140.414 572.2 140.56C572.4 140.699 572.619 140.806 572.856 140.879C573.099 140.945 573.354 140.979 573.621 140.979C574.065 140.979 574.447 140.9 574.769 140.742C575.097 140.584 575.368 140.377 575.58 140.122C575.793 139.861 575.948 139.57 576.045 139.248C576.148 138.92 576.2 138.586 576.2 138.245C576.2 137.893 576.145 137.568 576.036 137.27C575.926 136.973 575.765 136.715 575.553 136.496C575.346 136.277 575.091 136.107 574.787 135.986C574.484 135.864 574.137 135.804 573.749 135.804C573.366 135.804 572.986 135.87 572.61 136.004C572.239 136.138 571.917 136.35 571.644 136.642H570.897C570.964 135.767 571.031 134.917 571.097 134.091C571.164 133.265 571.234 132.417 571.307 131.549H576.446V132.277H572.072L571.735 135.731C571.875 135.597 572.033 135.488 572.209 135.403C572.391 135.312 572.579 135.245 572.774 135.202C572.968 135.154 573.166 135.12 573.366 135.102C573.567 135.084 573.758 135.075 573.94 135.075C574.365 135.075 574.76 135.157 575.125 135.321C575.495 135.485 575.811 135.709 576.072 135.995C576.339 136.274 576.549 136.605 576.701 136.988C576.853 137.371 576.929 137.781 576.929 138.218ZM586.86 136.414C587.516 136.414 588.029 136.645 588.4 137.106C588.776 137.562 588.965 138.209 588.965 139.047C588.965 139.892 588.776 140.548 588.4 141.015C588.029 141.477 587.516 141.708 586.86 141.708C586.21 141.708 585.7 141.477 585.329 141.015C584.959 140.554 584.774 139.898 584.774 139.047C584.774 138.209 584.959 137.562 585.329 137.106C585.7 136.645 586.21 136.414 586.86 136.414ZM581.302 131.366C581.624 131.366 581.913 131.427 582.168 131.549C582.429 131.67 582.648 131.846 582.824 132.077C583.006 132.302 583.146 132.578 583.243 132.906C583.34 133.234 583.389 133.608 583.389 134.027C583.389 134.871 583.2 135.521 582.824 135.977C582.453 136.432 581.946 136.66 581.302 136.66C580.646 136.66 580.133 136.432 579.762 135.977C579.392 135.521 579.206 134.871 579.206 134.027C579.206 133.183 579.392 132.53 579.762 132.068C580.133 131.6 580.646 131.366 581.302 131.366ZM581.302 136.113C581.709 136.113 582.028 135.949 582.259 135.621C582.496 135.287 582.614 134.756 582.614 134.027C582.614 133.292 582.496 132.757 582.259 132.423C582.028 132.089 581.709 131.922 581.302 131.922C580.889 131.922 580.564 132.089 580.327 132.423C580.09 132.757 579.972 133.292 579.972 134.027C579.972 134.756 580.09 135.287 580.327 135.621C580.564 135.949 580.889 136.113 581.302 136.113ZM586.86 141.161C587.273 141.161 587.595 140.994 587.826 140.66C588.063 140.32 588.181 139.782 588.181 139.047C588.181 138.318 588.063 137.79 587.826 137.462C587.589 137.128 587.267 136.961 586.86 136.961C586.453 136.961 586.131 137.128 585.894 137.462C585.663 137.79 585.548 138.318 585.548 139.047C585.548 139.782 585.663 140.32 585.894 140.66C586.131 140.994 586.453 141.161 586.86 141.161ZM587.124 131.549L581.821 141.526H581.029L586.332 131.549H587.124Z" fill="black"/>
</g>
<g id="Django">
<path id="Figma" d="M83.2627 210.671H71.2847V218.498H81.7012V220.021H71.2847V230H69.7612V209.148H83.2627V210.671ZM89.2231 230H87.6997V215.242H89.2231V230ZM89.2422 211.528H87.7188V209.148H89.2422V211.528ZM105.41 229.124C105.41 230.305 105.283 231.308 105.029 232.133C104.775 232.971 104.394 233.65 103.886 234.17C103.391 234.691 102.763 235.072 102.001 235.313C101.239 235.554 100.357 235.675 99.354 235.675C98.5161 235.675 97.7607 235.58 97.0879 235.389C96.415 235.211 95.8374 234.951 95.355 234.608C94.8726 234.266 94.4917 233.84 94.2124 233.333C93.9458 232.825 93.7935 232.247 93.7554 231.6H95.2788C95.3423 232.476 95.7041 233.117 96.3643 233.523C97.0244 233.942 98.002 234.151 99.2969 234.151C100.059 234.151 100.725 234.056 101.296 233.866C101.868 233.688 102.344 233.39 102.725 232.971C103.105 232.552 103.391 232 103.582 231.314C103.785 230.628 103.886 229.784 103.886 228.781V227.848C103.391 228.432 102.921 228.896 102.477 229.238C102.045 229.568 101.626 229.822 101.22 230C100.814 230.165 100.42 230.267 100.04 230.305C99.6714 230.355 99.3096 230.381 98.9541 230.381C98.0273 230.381 97.2085 230.197 96.4976 229.829C95.7866 229.46 95.1899 228.946 94.7075 228.286C94.2251 227.613 93.8569 226.807 93.603 225.868C93.3618 224.928 93.2412 223.881 93.2412 222.726C93.2412 221.507 93.3872 220.415 93.6792 219.45C93.9839 218.473 94.3965 217.647 94.917 216.975C95.4502 216.289 96.0723 215.769 96.7832 215.413C97.5068 215.045 98.2812 214.861 99.1064 214.861C99.4619 214.861 99.8301 214.886 100.211 214.937C100.592 214.988 100.985 215.083 101.392 215.223C101.798 215.35 102.21 215.527 102.629 215.756C103.048 215.984 103.467 216.276 103.886 216.632V215.242H105.41V229.124ZM103.886 218.517C103.201 217.806 102.483 217.273 101.734 216.917C100.998 216.562 100.179 216.384 99.2778 216.384C98.5923 216.384 97.9702 216.518 97.4116 216.784C96.8657 217.038 96.396 217.432 96.0024 217.965C95.6089 218.485 95.3042 219.146 95.0884 219.945C94.8726 220.732 94.7646 221.659 94.7646 222.726C94.7646 224.731 95.1519 226.255 95.9263 227.296C96.7007 228.337 97.7798 228.857 99.1636 228.857C100.078 228.857 100.916 228.61 101.677 228.115C102.439 227.607 103.175 226.858 103.886 225.868V218.517ZM129.842 230H128.318V220.364C128.318 218.955 128.096 217.939 127.652 217.317C127.22 216.695 126.452 216.384 125.348 216.384C124.535 216.384 123.742 216.638 122.967 217.146C122.206 217.641 121.463 218.346 120.739 219.26V230H119.216V220.364C119.216 219.666 119.165 219.063 119.063 218.555C118.975 218.047 118.816 217.635 118.587 217.317C118.359 217 118.054 216.765 117.673 216.613C117.305 216.46 116.848 216.384 116.302 216.384C115.502 216.384 114.741 216.638 114.017 217.146C113.293 217.641 112.563 218.346 111.827 219.26V230H110.304V215.242H111.827V217.432C112.335 216.86 112.811 216.41 113.255 216.08C113.712 215.737 114.138 215.477 114.531 215.299C114.938 215.121 115.318 215.007 115.674 214.956C116.042 214.893 116.391 214.861 116.721 214.861C117.673 214.861 118.486 215.083 119.159 215.527C119.832 215.972 120.32 216.651 120.625 217.565C121.006 217.032 121.406 216.594 121.825 216.251C122.256 215.896 122.688 215.616 123.12 215.413C123.564 215.21 124.008 215.07 124.453 214.994C124.897 214.905 125.329 214.861 125.748 214.861C128.477 214.861 129.842 216.651 129.842 220.231V230ZM144.276 228.096C143.756 228.553 143.248 228.934 142.753 229.238C142.258 229.53 141.769 229.765 141.287 229.943C140.817 230.108 140.347 230.222 139.877 230.286C139.408 230.349 138.932 230.381 138.449 230.381C137.802 230.381 137.199 230.279 136.64 230.076C136.082 229.886 135.599 229.613 135.193 229.257C134.787 228.889 134.463 228.451 134.222 227.943C133.993 227.423 133.879 226.852 133.879 226.229C133.879 224.541 134.596 223.227 136.031 222.288C137.478 221.348 139.643 220.878 142.524 220.878H144.276C144.276 220.231 144.238 219.634 144.162 219.088C144.086 218.542 143.908 218.073 143.629 217.679C143.35 217.273 142.937 216.956 142.391 216.727C141.845 216.499 141.103 216.384 140.163 216.384C138.779 216.384 137.738 216.6 137.04 217.032C136.354 217.463 135.948 218.117 135.821 218.993H134.317C134.469 217.597 135.015 216.562 135.955 215.889C136.894 215.204 138.291 214.861 140.144 214.861C141.172 214.861 142.042 214.988 142.753 215.242C143.477 215.496 144.061 215.864 144.505 216.346C144.962 216.816 145.292 217.394 145.495 218.079C145.698 218.752 145.8 219.514 145.8 220.364V230H144.276V228.096ZM144.276 222.402H141.972C139.763 222.402 138.113 222.719 137.021 223.354C135.942 223.989 135.402 224.896 135.402 226.077C135.402 226.953 135.745 227.639 136.431 228.134C137.116 228.616 138.056 228.857 139.249 228.857C139.77 228.857 140.271 228.781 140.753 228.629C141.249 228.464 141.712 228.254 142.144 228C142.575 227.747 142.969 227.467 143.324 227.163C143.692 226.845 144.01 226.541 144.276 226.249V222.402Z" fill="#F5EDED"/>
<rect id="Rectangle 3_2" x="255.811" y="202.802" width="467.093" height="30.3538" rx="6.61689" fill="#C4C4C4"/>
<rect id="Rectangle 7_2" x="255.811" y="203" width="420.38" height="30.3538" rx="6.61689" fill="#4FD965" fill-opacity="0.91"/>
<path id="90%" d="M620.116 218.551C620.116 217.895 620.052 217.321 619.925 216.829C619.803 216.331 619.633 215.915 619.414 215.581C619.196 215.247 618.935 214.995 618.631 214.825C618.333 214.655 618.008 214.57 617.656 214.57C617.31 214.57 616.997 214.646 616.717 214.797C616.444 214.949 616.21 215.147 616.016 215.39C615.828 215.633 615.682 215.912 615.579 216.228C615.475 216.538 615.424 216.851 615.424 217.166C615.424 217.501 615.472 217.816 615.569 218.114C615.673 218.412 615.818 218.673 616.007 218.898C616.201 219.122 616.438 219.302 616.717 219.435C617.003 219.563 617.325 219.627 617.683 219.627C617.878 219.627 618.081 219.602 618.294 219.554C618.506 219.499 618.719 219.426 618.932 219.335C619.144 219.238 619.351 219.122 619.551 218.989C619.752 218.855 619.94 218.709 620.116 218.551ZM620.872 218.725C620.872 220.541 620.599 221.904 620.052 222.816C619.512 223.727 618.664 224.182 617.51 224.182C616.812 224.182 616.232 223.994 615.77 223.617C615.308 223.235 615.017 222.694 614.895 221.995H615.642C615.679 222.263 615.749 222.491 615.852 222.679C615.961 222.861 616.098 223.01 616.262 223.125C616.432 223.241 616.629 223.326 616.854 223.38C617.079 223.429 617.325 223.453 617.592 223.453C617.938 223.453 618.257 223.368 618.549 223.198C618.84 223.028 619.099 222.776 619.323 222.442C619.548 222.108 619.73 221.692 619.87 221.194C620.016 220.69 620.107 220.109 620.143 219.453C619.991 219.569 619.827 219.681 619.651 219.791C619.475 219.894 619.281 219.988 619.068 220.073C618.862 220.158 618.634 220.228 618.385 220.283C618.136 220.331 617.859 220.355 617.556 220.355C617.13 220.355 616.742 220.273 616.389 220.109C616.037 219.945 615.736 219.724 615.487 219.444C615.238 219.159 615.044 218.828 614.904 218.451C614.765 218.075 614.695 217.674 614.695 217.248C614.695 216.799 614.758 216.371 614.886 215.964C615.02 215.551 615.211 215.186 615.46 214.87C615.709 214.555 616.016 214.305 616.38 214.123C616.751 213.935 617.17 213.841 617.638 213.841C618.16 213.841 618.622 213.95 619.023 214.169C619.424 214.381 619.761 214.697 620.034 215.116C620.307 215.529 620.514 216.04 620.654 216.647C620.799 217.255 620.872 217.947 620.872 218.725ZM630.94 219.007C630.94 219.705 630.858 220.368 630.694 220.993C630.53 221.619 630.293 222.169 629.984 222.642C629.68 223.116 629.303 223.493 628.854 223.772C628.41 224.046 627.906 224.182 627.341 224.182C626.776 224.182 626.272 224.043 625.829 223.763C625.385 223.484 625.009 223.107 624.699 222.633C624.395 222.159 624.161 221.61 623.997 220.984C623.84 220.358 623.761 219.699 623.761 219.007C623.761 218.314 623.84 217.655 623.997 217.03C624.161 216.404 624.395 215.857 624.699 215.39C625.003 214.916 625.376 214.539 625.82 214.26C626.269 213.981 626.776 213.841 627.341 213.841C627.906 213.841 628.41 213.981 628.854 214.26C629.303 214.533 629.683 214.907 629.993 215.381C630.303 215.848 630.536 216.395 630.694 217.021C630.858 217.646 630.94 218.308 630.94 219.007ZM630.221 219.007C630.221 218.406 630.157 217.838 630.029 217.303C629.908 216.763 629.725 216.292 629.483 215.891C629.246 215.49 628.948 215.171 628.59 214.934C628.231 214.697 627.818 214.579 627.35 214.579C626.889 214.579 626.479 214.697 626.12 214.934C625.768 215.165 625.47 215.484 625.227 215.891C624.985 216.292 624.799 216.763 624.672 217.303C624.55 217.838 624.489 218.406 624.489 219.007C624.489 219.602 624.55 220.167 624.672 220.702C624.793 221.236 624.972 221.707 625.209 222.114C625.452 222.521 625.753 222.843 626.111 223.08C626.47 223.317 626.883 223.435 627.35 223.435C627.824 223.435 628.24 223.317 628.599 223.08C628.957 222.837 629.255 222.512 629.492 222.105C629.735 221.698 629.917 221.227 630.038 220.693C630.16 220.158 630.221 219.596 630.221 219.007ZM640.434 218.889C641.09 218.889 641.604 219.119 641.974 219.581C642.351 220.037 642.539 220.683 642.539 221.522C642.539 222.366 642.351 223.022 641.974 223.49C641.604 223.951 641.09 224.182 640.434 224.182C639.784 224.182 639.274 223.951 638.904 223.49C638.533 223.028 638.348 222.372 638.348 221.522C638.348 220.683 638.533 220.037 638.904 219.581C639.274 219.119 639.784 218.889 640.434 218.889ZM634.876 213.841C635.198 213.841 635.487 213.902 635.742 214.023C636.003 214.145 636.222 214.321 636.398 214.551C636.58 214.776 636.72 215.053 636.817 215.381C636.914 215.709 636.963 216.082 636.963 216.501C636.963 217.346 636.775 217.996 636.398 218.451C636.028 218.907 635.52 219.135 634.876 219.135C634.22 219.135 633.707 218.907 633.337 218.451C632.966 217.996 632.781 217.346 632.781 216.501C632.781 215.657 632.966 215.004 633.337 214.542C633.707 214.075 634.22 213.841 634.876 213.841ZM634.876 218.588C635.283 218.588 635.602 218.424 635.833 218.096C636.07 217.762 636.188 217.23 636.188 216.501C636.188 215.766 636.07 215.232 635.833 214.898C635.602 214.564 635.283 214.397 634.876 214.397C634.463 214.397 634.138 214.564 633.902 214.898C633.665 215.232 633.546 215.766 633.546 216.501C633.546 217.23 633.665 217.762 633.902 218.096C634.138 218.424 634.463 218.588 634.876 218.588ZM640.434 223.636C640.847 223.636 641.169 223.469 641.4 223.134C641.637 222.794 641.756 222.257 641.756 221.522C641.756 220.793 641.637 220.264 641.4 219.936C641.163 219.602 640.841 219.435 640.434 219.435C640.027 219.435 639.705 219.602 639.469 219.936C639.238 220.264 639.122 220.793 639.122 221.522C639.122 222.257 639.238 222.794 639.469 223.134C639.705 223.469 640.027 223.636 640.434 223.636ZM640.699 214.023L635.396 224H634.603L639.906 214.023H640.699Z" fill="black"/>
</g>
<g id="Designing">
<path d="M83.6157 57.6364C83.6157 67.5908 78.6653 72.568 68.7646 72.568H59.8754V43.1881H68.7646C73.7239 43.1881 77.4389 44.3877 79.9096 46.7868C82.3803 49.1679 83.6157 52.7845 83.6157 57.6364ZM81.3329 57.6364C81.3329 55.7028 81.136 53.9751 80.7421 52.4533C80.3661 50.9314 79.6948 49.6424 78.728 48.5861C77.7612 47.5118 76.4631 46.6972 74.8339 46.1422C73.2226 45.5872 71.1816 45.3097 68.7109 45.3097H62.0239V70.4196H68.7109C71.1637 70.4196 73.1957 70.1331 74.8071 69.5602C76.4363 68.9873 77.7343 68.1548 78.7011 67.0626C79.6679 65.9526 80.3482 64.6098 80.7421 63.0343C81.136 61.4588 81.3329 59.6595 81.3329 57.6364ZM98.0102 73.1051C96.56 73.1051 95.2441 72.8634 94.0624 72.38C92.8808 71.8787 91.8603 71.1626 91.0009 70.2316C90.1594 69.2827 89.506 68.1279 89.0405 66.7672C88.575 65.4065 88.3422 63.8579 88.3422 62.1212C88.3422 60.4383 88.566 58.9254 89.0136 57.5826C89.4612 56.222 90.0968 55.0761 90.9203 54.1451C91.7439 53.1963 92.7197 52.4712 93.8476 51.9699C94.9755 51.4686 96.2288 51.2179 97.6074 51.2179C99.0217 51.2179 100.302 51.4686 101.448 51.9699C102.594 52.4712 103.569 53.1963 104.375 54.1451C105.181 55.0761 105.798 56.222 106.228 57.5826C106.658 58.9254 106.872 60.4472 106.872 62.1481V62.6315H90.4907C90.5981 64.0459 90.8577 65.2723 91.2695 66.3107C91.6812 67.3491 92.2184 68.2174 92.8808 68.9157C93.5432 69.596 94.3041 70.1062 95.1635 70.4464C96.0408 70.7866 96.9897 70.9567 98.0102 70.9567C98.7263 70.9567 99.4425 70.8761 100.159 70.715C100.875 70.5359 101.519 70.2763 102.092 69.9362C102.683 69.596 103.175 69.1753 103.569 68.674C103.963 68.1727 104.196 67.5997 104.268 66.9552H106.389C106.192 67.9399 105.843 68.8172 105.342 69.587C104.84 70.339 104.223 70.9835 103.489 71.5206C102.755 72.0398 101.922 72.4337 100.991 72.7023C100.06 72.9708 99.0665 73.1051 98.0102 73.1051ZM104.697 60.483C104.339 58.1019 103.525 56.3204 102.253 55.1388C101 53.9572 99.4514 53.3663 97.6074 53.3663C96.6943 53.3663 95.8438 53.5096 95.0561 53.796C94.2683 54.0825 93.5611 54.5211 92.9345 55.1119C92.3258 55.7028 91.8066 56.4458 91.3769 57.341C90.9651 58.2361 90.6697 59.2835 90.4907 60.483H104.697ZM119.387 73.1051C114.285 73.1051 111.501 71.0551 111.035 66.9552H113.21C113.372 68.2085 113.944 69.1932 114.929 69.9093C115.932 70.6076 117.409 70.9567 119.36 70.9567C120.309 70.9567 121.142 70.8582 121.858 70.6613C122.574 70.4464 123.165 70.1689 123.63 69.8287C124.114 69.4707 124.472 69.0499 124.705 68.5665C124.937 68.0831 125.054 67.5639 125.054 67.0089C125.054 66.4539 124.955 65.9795 124.758 65.5856C124.579 65.1917 124.239 64.8336 123.738 64.5114C123.254 64.1891 122.583 63.8847 121.724 63.5983C120.882 63.2939 119.799 62.9716 118.474 62.6315C117.346 62.345 116.344 62.0496 115.466 61.7452C114.589 61.4409 113.846 61.0649 113.237 60.6173C112.646 60.1697 112.199 59.6326 111.894 59.006C111.59 58.3615 111.438 57.5647 111.438 56.6159C111.438 55.7923 111.608 55.0493 111.948 54.3868C112.306 53.7065 112.799 53.1336 113.425 52.6681C114.052 52.2026 114.813 51.8445 115.708 51.5939C116.603 51.3432 117.597 51.2179 118.689 51.2179C121.16 51.2179 123.031 51.6386 124.302 52.4801C125.591 53.3037 126.307 54.6106 126.45 56.401H124.275C124.132 55.3626 123.63 54.6017 122.771 54.1183C121.929 53.617 120.667 53.3663 118.984 53.3663C118.197 53.3663 117.471 53.438 116.809 53.5812C116.147 53.7244 115.574 53.9393 115.09 54.2257C114.625 54.4943 114.258 54.8434 113.989 55.2731C113.721 55.6849 113.586 56.1593 113.586 56.6964C113.586 57.0008 113.64 57.3141 113.747 57.6364C113.855 57.9586 114.123 58.2898 114.553 58.63C115.001 58.9702 115.663 59.3193 116.54 59.6774C117.418 60.0175 118.617 60.3756 120.139 60.7516C121.339 61.056 122.377 61.3782 123.254 61.7184C124.15 62.0407 124.884 62.4345 125.456 62.9C126.047 63.3476 126.486 63.8758 126.772 64.4845C127.059 65.0932 127.202 65.8094 127.202 66.6329C127.202 67.546 127.014 68.4054 126.638 69.2111C126.28 69.9988 125.761 70.6792 125.08 71.2521C124.418 71.825 123.603 72.2726 122.637 72.5949C121.67 72.935 120.587 73.1051 119.387 73.1051ZM135.366 72.568H133.218V51.755H135.366V72.568ZM135.393 46.5182H133.245V43.1613H135.393V46.5182ZM158.193 71.3326C158.193 72.9977 158.014 74.4121 157.656 75.5758C157.298 76.7575 156.761 77.7153 156.045 78.4493C155.347 79.1834 154.46 79.7205 153.386 80.0607C152.312 80.4008 151.068 80.5709 149.653 80.5709C148.472 80.5709 147.406 80.4367 146.457 80.1681C145.509 79.9174 144.694 79.5504 144.014 79.067C143.333 78.5836 142.796 77.9839 142.402 77.2677C142.026 76.5516 141.811 75.7369 141.758 74.8239H143.906C143.996 76.0592 144.506 76.9633 145.437 77.5363C146.368 78.1271 147.747 78.4225 149.573 78.4225C150.647 78.4225 151.587 78.2882 152.393 78.0197C153.198 77.769 153.87 77.3483 154.407 76.7575C154.944 76.1666 155.347 75.3878 155.615 74.421C155.902 73.4542 156.045 72.2636 156.045 70.8493V69.5333C155.347 70.3569 154.684 71.0104 154.058 71.4938C153.449 71.9593 152.858 72.3173 152.285 72.568C151.712 72.8007 151.157 72.944 150.62 72.9977C150.101 73.0693 149.591 73.1051 149.089 73.1051C147.782 73.1051 146.628 72.8455 145.625 72.3263C144.622 71.8071 143.781 71.082 143.101 70.151C142.42 69.2021 141.901 68.0652 141.543 66.7404C141.203 65.4155 141.033 63.9384 141.033 62.3092C141.033 60.5905 141.239 59.0507 141.65 57.6901C142.08 56.3115 142.662 55.1478 143.396 54.1989C144.148 53.2321 145.025 52.498 146.028 51.9967C147.048 51.4775 148.14 51.2179 149.304 51.2179C149.805 51.2179 150.325 51.2537 150.862 51.3253C151.399 51.3969 151.954 51.5312 152.527 51.7282C153.1 51.9072 153.682 52.1578 154.272 52.4801C154.863 52.8024 155.454 53.2142 156.045 53.7155V51.755H158.193V71.3326ZM156.045 56.3742C155.078 55.3715 154.067 54.6196 153.01 54.1183C151.972 53.617 150.817 53.3663 149.546 53.3663C148.579 53.3663 147.702 53.5543 146.914 53.9303C146.144 54.2884 145.482 54.8434 144.927 55.5953C144.372 56.3294 143.942 57.2604 143.638 58.3883C143.333 59.4983 143.181 60.8053 143.181 62.3092C143.181 65.138 143.727 67.2864 144.819 68.7545C145.911 70.2226 147.433 70.9567 149.385 70.9567C150.674 70.9567 151.855 70.6076 152.93 69.9093C154.004 69.1932 155.042 68.1368 156.045 66.7404V56.3742ZM167.217 54.8434C167.915 54.0198 168.595 53.3663 169.258 52.8829C169.938 52.3995 170.592 52.0325 171.218 51.7819C171.863 51.5312 172.471 51.379 173.044 51.3253C173.617 51.2537 174.154 51.2179 174.656 51.2179C178.935 51.2179 181.074 53.7423 181.074 58.7911V72.568H178.926V58.9791C178.926 58.0123 178.836 57.1798 178.657 56.4816C178.496 55.7654 178.219 55.1836 177.825 54.736C177.449 54.2705 176.947 53.9303 176.321 53.7155C175.712 53.4827 174.96 53.3663 174.065 53.3663C172.883 53.3663 171.719 53.7155 170.574 54.4137C169.446 55.1119 168.327 56.0966 167.217 57.3678V72.568H165.068V51.755H167.217V54.8434ZM190.366 72.568H188.218V51.755H190.366V72.568ZM190.393 46.5182H188.245V43.1613H190.393V46.5182ZM199.39 54.8434C200.088 54.0198 200.768 53.3663 201.431 52.8829C202.111 52.3995 202.764 52.0325 203.391 51.7819C204.036 51.5312 204.644 51.379 205.217 51.3253C205.79 51.2537 206.327 51.2179 206.829 51.2179C211.108 51.2179 213.247 53.7423 213.247 58.7911V72.568H211.099V58.9791C211.099 58.0123 211.009 57.1798 210.83 56.4816C210.669 55.7654 210.391 55.1836 209.997 54.736C209.622 54.2705 209.12 53.9303 208.494 53.7155C207.885 53.4827 207.133 53.3663 206.238 53.3663C205.056 53.3663 203.892 53.7155 202.747 54.4137C201.619 55.1119 200.5 56.0966 199.39 57.3678V72.568H197.241V51.755H199.39V54.8434ZM236.02 71.3326C236.02 72.9977 235.841 74.4121 235.483 75.5758C235.125 76.7575 234.588 77.7153 233.872 78.4493C233.174 79.1834 232.288 79.7205 231.213 80.0607C230.139 80.4008 228.895 80.5709 227.48 80.5709C226.299 80.5709 225.233 80.4367 224.285 80.1681C223.336 79.9174 222.521 79.5504 221.841 79.067C221.16 78.5836 220.623 77.9839 220.229 77.2677C219.853 76.5516 219.639 75.7369 219.585 74.8239H221.733C221.823 76.0592 222.333 76.9633 223.264 77.5363C224.195 78.1271 225.574 78.4225 227.4 78.4225C228.474 78.4225 229.414 78.2882 230.22 78.0197C231.025 77.769 231.697 77.3483 232.234 76.7575C232.771 76.1666 233.174 75.3878 233.442 74.421C233.729 73.4542 233.872 72.2636 233.872 70.8493V69.5333C233.174 70.3569 232.511 71.0104 231.885 71.4938C231.276 71.9593 230.685 72.3173 230.112 72.568C229.539 72.8007 228.984 72.944 228.447 72.9977C227.928 73.0693 227.418 73.1051 226.916 73.1051C225.609 73.1051 224.455 72.8455 223.452 72.3263C222.449 71.8071 221.608 71.082 220.928 70.151C220.247 69.2021 219.728 68.0652 219.37 66.7404C219.03 65.4155 218.86 63.9384 218.86 62.3092C218.86 60.5905 219.066 59.0507 219.477 57.6901C219.907 56.3115 220.489 55.1478 221.223 54.1989C221.975 53.2321 222.852 52.498 223.855 51.9967C224.875 51.4775 225.968 51.2179 227.131 51.2179C227.633 51.2179 228.152 51.2537 228.689 51.3253C229.226 51.3969 229.781 51.5312 230.354 51.7282C230.927 51.9072 231.509 52.1578 232.1 52.4801C232.69 52.8024 233.281 53.2142 233.872 53.7155V51.755H236.02V71.3326ZM233.872 56.3742C232.905 55.3715 231.894 54.6196 230.837 54.1183C229.799 53.617 228.644 53.3663 227.373 53.3663C226.406 53.3663 225.529 53.5543 224.741 53.9303C223.971 54.2884 223.309 54.8434 222.754 55.5953C222.199 56.3294 221.769 57.2604 221.465 58.3883C221.16 59.4983 221.008 60.8053 221.008 62.3092C221.008 65.138 221.554 67.2864 222.646 68.7545C223.739 70.2226 225.26 70.9567 227.212 70.9567C228.501 70.9567 229.683 70.6076 230.757 69.9093C231.831 69.1932 232.869 68.1368 233.872 66.7404V56.3742Z" fill="#363546"/>
<path d="M59.8754 72.568H58.8754V73.568H59.8754V72.568ZM59.8754 43.1881V42.1881H58.8754V43.1881H59.8754ZM79.9096 46.7868L79.213 47.5042L79.2157 47.5068L79.9096 46.7868ZM80.7421 52.4533L79.7712 52.6931L79.774 52.7038L80.7421 52.4533ZM78.728 48.5861L77.9846 49.2551L77.9903 49.2612L78.728 48.5861ZM74.8339 46.1422L74.5082 47.0877L74.5115 47.0888L74.8339 46.1422ZM62.0239 45.3097V44.3097H61.0239V45.3097H62.0239ZM62.0239 70.4196H61.0239V71.4196H62.0239V70.4196ZM74.8071 69.5602L74.4753 68.6168L74.4721 68.618L74.8071 69.5602ZM78.7011 67.0626L79.4499 67.7255L79.4552 67.7194L78.7011 67.0626ZM82.6157 57.6364C82.6157 62.4608 81.4166 65.8952 79.1939 68.1299C76.9722 70.3636 73.5594 71.568 68.7646 71.568V73.568C73.8705 73.568 77.8832 72.2837 80.6119 69.5403C83.3396 66.7978 84.6157 62.7664 84.6157 57.6364H82.6157ZM68.7646 71.568H59.8754V73.568H68.7646V71.568ZM60.8754 72.568V43.1881H58.8754V72.568H60.8754ZM59.8754 44.1881H68.7646V42.1881H59.8754V44.1881ZM68.7646 44.1881C73.5782 44.1881 76.9974 45.3528 79.213 47.5042L80.6062 46.0693C77.8804 43.4225 73.8696 42.1881 68.7646 42.1881V44.1881ZM79.2157 47.5068C81.4214 49.6326 82.6157 52.9417 82.6157 57.6364H84.6157C84.6157 52.6272 83.3392 48.7032 80.6035 46.0667L79.2157 47.5068ZM82.3329 57.6364C82.3329 55.6368 82.1295 53.8225 81.7102 52.2027L79.774 52.7038C80.1425 54.1276 80.3329 55.7687 80.3329 57.6364H82.3329ZM81.7129 52.2134C81.3007 50.545 80.5558 49.102 79.4656 47.9109L77.9903 49.2612C78.8337 50.1828 79.4315 51.3179 79.7713 52.6931L81.7129 52.2134ZM79.4713 47.9171C78.3702 46.6937 76.9164 45.7952 75.1564 45.1956L74.5115 47.0888C76.0099 47.5993 77.1521 48.33 77.9847 49.255L79.4713 47.9171ZM75.1596 45.1967C73.4078 44.5933 71.2471 44.3097 68.7109 44.3097V46.3097C71.1161 46.3097 73.0374 46.5811 74.5082 47.0877L75.1596 45.1967ZM68.7109 44.3097H62.0239V46.3097H68.7109V44.3097ZM61.0239 45.3097V70.4196H63.0239V45.3097H61.0239ZM62.0239 71.4196H68.7109V69.4196H62.0239V71.4196ZM68.7109 71.4196C71.2325 71.4196 73.3875 71.1263 75.1421 70.5024L74.4721 68.618C73.004 69.14 71.0948 69.4196 68.7109 69.4196V71.4196ZM75.1388 70.5036C76.899 69.8846 78.3511 68.9667 79.4499 67.7255L77.9523 66.3998C77.1175 67.3428 75.9736 68.09 74.4753 68.6168L75.1388 70.5036ZM79.4552 67.7194C80.5361 66.4784 81.2841 64.9895 81.7123 63.2768L79.772 62.7918C79.4124 64.2302 78.7997 65.4268 77.947 66.4058L79.4552 67.7194ZM81.7123 63.2768C82.1301 61.6054 82.3329 59.7221 82.3329 57.6364H80.3329C80.3329 59.5968 80.1419 61.3122 79.772 62.7918L81.7123 63.2768ZM94.0624 72.38L93.6718 73.3007L93.6838 73.3056L94.0624 72.38ZM91.0009 70.2316L90.2527 70.8951L90.2593 70.9025L90.2661 70.9099L91.0009 70.2316ZM89.0405 66.7672L88.0943 67.0909L89.0405 66.7672ZM89.0136 57.5826L89.9623 57.8989L89.9635 57.8951L89.0136 57.5826ZM90.9203 54.1451L91.6694 54.8078L91.6756 54.8006L90.9203 54.1451ZM104.375 54.1451L103.613 54.7924L103.619 54.7995L104.375 54.1451ZM106.228 57.5826L105.274 57.8838L105.276 57.8874L106.228 57.5826ZM106.872 62.6315V63.6315H107.872V62.6315H106.872ZM90.4907 62.6315V61.6315H89.4118L89.4935 62.7072L90.4907 62.6315ZM91.2695 66.3107L90.3399 66.6793L91.2695 66.3107ZM92.8808 68.9157L92.1553 69.604L92.1643 69.6133L92.8808 68.9157ZM95.1635 70.4464L94.7954 71.3762L94.802 71.3788L95.1635 70.4464ZM100.159 70.715L100.378 71.6906L100.39 71.688L100.401 71.6851L100.159 70.715ZM102.092 69.9362L101.593 69.0695L101.582 69.0763L102.092 69.9362ZM103.569 68.674L102.783 68.0561L103.569 68.674ZM104.268 66.9552V65.9552H103.372L103.274 66.8448L104.268 66.9552ZM106.389 66.9552L107.37 67.1513L107.609 65.9552H106.389V66.9552ZM105.342 69.587L106.174 70.1418L106.18 70.1327L105.342 69.587ZM103.489 71.5206L104.066 72.3371L104.073 72.3324L104.079 72.3277L103.489 71.5206ZM104.697 60.483V61.483H105.859L105.686 60.3343L104.697 60.483ZM102.253 55.1388L101.567 55.8664L101.573 55.8712L102.253 55.1388ZM92.9345 55.1119L92.2485 54.3844L92.2432 54.3893L92.238 54.3944L92.9345 55.1119ZM91.3769 57.341L90.4754 56.9082L90.4718 56.9156L90.4684 56.923L91.3769 57.341ZM90.4907 60.483L89.5016 60.3354L89.3303 61.483H90.4907V60.483ZM98.0102 72.1051C96.6723 72.1051 95.4873 71.8825 94.4411 71.4545L93.6838 73.3056C95.0009 73.8444 96.4477 74.1051 98.0102 74.1051V72.1051ZM94.453 71.4594C93.4002 71.0128 92.4975 70.3786 91.7357 69.5533L90.2661 70.9099C91.223 71.9465 92.3614 72.7446 93.6719 73.3006L94.453 71.4594ZM91.7491 69.5681C91.0065 68.7306 90.415 67.6957 89.9866 66.4435L88.0943 67.0909C88.5969 68.5601 89.3124 69.8347 90.2527 70.8951L91.7491 69.5681ZM89.9866 66.4435C89.5633 65.2061 89.3422 63.7699 89.3422 62.1212H87.3422C87.3422 63.9459 87.5866 65.607 88.0943 67.0909L89.9866 66.4435ZM89.3422 62.1212C89.3422 60.526 89.5544 59.1225 89.9623 57.8989L88.0649 57.2664C87.5776 58.7283 87.3422 60.3505 87.3422 62.1212H89.3422ZM89.9635 57.8951C90.3751 56.6441 90.9485 55.6225 91.6693 54.8077L90.1713 53.4826C89.245 54.5297 88.5473 55.7999 88.0637 57.2702L89.9635 57.8951ZM91.6756 54.8006C92.4049 53.9603 93.2621 53.3244 94.2537 52.8837L93.4414 51.056C92.1772 51.6179 91.0829 52.4322 90.1651 53.4897L91.6756 54.8006ZM94.2537 52.8837C95.2396 52.4455 96.3523 52.2179 97.6074 52.2179V50.2179C96.1053 50.2179 94.7114 50.4916 93.4414 51.056L94.2537 52.8837ZM97.6074 52.2179C98.9018 52.2179 100.043 52.4468 101.047 52.886L101.849 51.0537C100.561 50.4903 99.1417 50.2179 97.6074 50.2179V52.2179ZM101.047 52.886C102.054 53.3266 102.906 53.96 103.613 54.7924L105.137 53.4979C104.233 52.4325 103.133 51.6157 101.849 51.0537L101.047 52.886ZM103.619 54.7995C104.322 55.6124 104.879 56.6326 105.274 57.8838L107.182 57.2815C106.717 55.8113 106.039 54.5399 105.131 53.4908L103.619 54.7995ZM105.276 57.8874C105.668 59.1138 105.872 60.53 105.872 62.1481H107.872C107.872 60.3644 107.647 58.7371 107.18 57.2779L105.276 57.8874ZM105.872 62.1481V62.6315H107.872V62.1481H105.872ZM106.872 61.6315H90.4907V63.6315H106.872V61.6315ZM89.4935 62.7072C89.6066 64.1963 89.8825 65.5259 90.3399 66.6793L92.199 65.9421C91.8328 65.0186 91.5895 63.8954 91.4878 62.5557L89.4935 62.7072ZM90.3399 66.6793C90.7912 67.8175 91.3922 68.7995 92.1553 69.6039L93.6063 68.2274C93.0445 67.6353 92.5713 66.8807 92.199 65.9421L90.3399 66.6793ZM92.1643 69.6133C92.9224 70.3919 93.8012 70.9827 94.7955 71.3762L95.5316 69.5166C94.807 69.2298 94.164 68.8001 93.5973 68.218L92.1643 69.6133ZM94.802 71.3788C95.804 71.7673 96.8765 71.9567 98.0102 71.9567V69.9567C97.1028 69.9567 96.2776 69.8059 95.525 69.5141L94.802 71.3788ZM98.0102 71.9567C98.802 71.9567 99.5917 71.8675 100.378 71.6906L99.9391 69.7394C99.2932 69.8847 98.6507 69.9567 98.0102 69.9567V71.9567ZM100.401 71.6851C101.201 71.485 101.938 71.1908 102.603 70.796L101.582 69.0763C101.101 69.3619 100.548 69.5868 99.9161 69.7448L100.401 71.6851ZM102.591 70.8028C103.285 70.4033 103.877 69.9004 104.356 69.2918L102.783 68.0561C102.473 68.4501 102.081 68.7887 101.593 69.0695L102.591 70.8028ZM104.356 69.2918C104.867 68.6413 105.17 67.892 105.261 67.0656L103.274 66.8448C103.222 67.3075 103.06 67.704 102.783 68.0561L104.356 69.2918ZM104.268 67.9552H106.389V65.9552H104.268V67.9552ZM105.409 66.7591C105.234 67.6309 104.93 68.3874 104.504 69.0414L106.18 70.1327C106.757 69.2469 107.15 68.2489 107.37 67.1513L105.409 66.7591ZM104.51 69.0323C104.074 69.686 103.538 70.2453 102.898 70.7136L104.079 72.3277C104.907 71.7217 105.607 70.992 106.174 70.1417L104.51 69.0323ZM102.911 70.7042C102.275 71.154 101.546 71.5015 100.714 71.7415L101.268 73.6631C102.298 73.366 103.234 72.9257 104.066 72.3371L102.911 70.7042ZM100.714 71.7415C99.8808 71.9818 98.9811 72.1051 98.0102 72.1051V74.1051C99.1519 74.1051 100.24 73.9599 101.268 73.6631L100.714 71.7415ZM105.686 60.3343C105.307 57.8149 104.425 55.7922 102.934 54.4064L101.573 55.8712C102.624 56.8487 103.371 58.3889 103.708 60.6317L105.686 60.3343ZM102.939 54.4112C101.487 53.0415 99.6867 52.3663 97.6074 52.3663V54.3663C99.2161 54.3663 100.514 54.8728 101.567 55.8664L102.939 54.4112ZM97.6074 52.3663C96.5881 52.3663 95.621 52.5265 94.7143 52.8562L95.3978 54.7358C96.0667 54.4926 96.8004 54.3663 97.6074 54.3663V52.3663ZM94.7143 52.8562C93.795 53.1905 92.9714 53.7027 92.2485 54.3844L93.6205 55.8395C94.1508 55.3395 94.7416 54.9744 95.3978 54.7358L94.7143 52.8562ZM92.238 54.3944C91.5316 55.08 90.9475 55.9245 90.4754 56.9082L92.2784 57.7737C92.6656 56.967 93.1199 56.3255 93.631 55.8295L92.238 54.3944ZM90.4684 56.923C90.0093 57.9212 89.6915 59.0631 89.5016 60.3354L91.4797 60.6307C91.6479 59.5039 91.9209 58.5511 92.2854 57.7589L90.4684 56.923ZM90.4907 61.483H104.697V59.483H90.4907V61.483ZM111.035 66.9552V65.9552H109.915L110.041 67.068L111.035 66.9552ZM113.21 66.9552L114.202 66.8277L114.09 65.9552H113.21V66.9552ZM114.929 69.9093L114.341 70.718L114.349 70.7241L114.358 70.7299L114.929 69.9093ZM121.858 70.6613L122.123 71.6255L122.134 71.6224L122.145 71.6191L121.858 70.6613ZM123.63 69.8287L124.22 70.6362L124.226 70.6323L123.63 69.8287ZM124.758 65.5856L123.848 65.9994L123.856 66.0162L123.864 66.0328L124.758 65.5856ZM123.738 64.5114L123.183 65.3434L123.19 65.348L123.197 65.3525L123.738 64.5114ZM121.724 63.5983L121.383 64.5387L121.395 64.543L121.407 64.547L121.724 63.5983ZM118.474 62.6315L118.723 61.6629L118.72 61.6622L118.474 62.6315ZM115.466 61.7452L115.138 62.69L115.466 61.7452ZM113.237 60.6173L112.633 61.4144L112.639 61.4187L112.645 61.423L113.237 60.6173ZM111.894 59.006L110.99 59.433L110.995 59.4429L111.894 59.006ZM111.948 54.3868L111.063 53.9211L111.059 53.93L111.948 54.3868ZM124.302 52.4801L123.75 53.314L123.756 53.3184L123.763 53.3228L124.302 52.4801ZM126.45 56.401V57.401H127.533L127.447 56.3213L126.45 56.401ZM124.275 56.401L123.284 56.5376L123.403 57.401H124.275V56.401ZM122.771 54.1183L122.259 54.9774L122.27 54.9838L122.281 54.9899L122.771 54.1183ZM115.09 54.2257L115.59 55.092L115.6 55.086L115.09 54.2257ZM113.989 55.2731L114.827 55.8193L114.832 55.8113L114.837 55.8031L113.989 55.2731ZM114.553 58.63L113.932 59.4141L113.94 59.4202L113.948 59.4262L114.553 58.63ZM116.54 59.6774L116.163 60.6032L116.171 60.6066L116.179 60.6097L116.54 59.6774ZM120.139 60.7516L120.385 59.7823L120.379 59.7808L120.139 60.7516ZM123.254 61.7184L122.893 62.6508L122.904 62.6552L122.916 62.6593L123.254 61.7184ZM125.456 62.9L124.826 63.6761L124.839 63.6869L124.853 63.6971L125.456 62.9ZM126.638 69.2111L125.732 68.7882L125.728 68.7973L126.638 69.2111ZM125.08 71.2521L124.436 70.4871L124.426 70.4957L125.08 71.2521ZM122.637 72.5949L122.32 71.6462L122.313 71.6488L122.305 71.6515L122.637 72.5949ZM119.387 72.1051C116.952 72.1051 115.221 71.6135 114.065 70.7624C112.94 69.9341 112.237 68.6739 112.029 66.8424L110.041 67.068C110.299 69.3364 111.22 71.1512 112.879 72.3729C114.507 73.5718 116.719 74.1051 119.387 74.1051V72.1051ZM111.035 67.9552H113.21V65.9552H111.035V67.9552ZM112.219 67.0827C112.413 68.5973 113.124 69.8333 114.341 70.718L115.517 69.1006C114.764 68.553 114.33 67.8196 114.202 66.8277L112.219 67.0827ZM114.358 70.7299C115.601 71.5958 117.317 71.9567 119.36 71.9567V69.9567C117.501 69.9567 116.262 69.6193 115.501 69.0887L114.358 70.7299ZM119.36 71.9567C120.375 71.9567 121.3 71.8517 122.123 71.6255L121.593 69.6971C120.983 69.8647 120.243 69.9567 119.36 69.9567V71.9567ZM122.145 71.6191C122.939 71.3808 123.641 71.0598 124.22 70.6361L123.04 69.0214C122.689 69.278 122.209 69.512 121.57 69.7034L122.145 71.6191ZM124.226 70.6323C124.823 70.1895 125.294 69.647 125.606 69.0004L123.804 68.1327C123.649 68.4529 123.404 68.7518 123.035 69.0252L124.226 70.6323ZM125.606 69.0004C125.906 68.3769 126.054 67.7088 126.054 67.0089H124.054C124.054 67.4191 123.969 67.7894 123.804 68.1327L125.606 69.0004ZM126.054 67.0089C126.054 66.338 125.935 65.7025 125.653 65.1384L123.864 66.0328C123.976 66.2564 124.054 66.5698 124.054 67.0089H126.054ZM125.669 65.1718C125.385 64.5485 124.883 64.0585 124.278 63.6702L123.197 65.3525C123.595 65.6087 123.773 65.8349 123.848 65.9994L125.669 65.1718ZM124.292 63.6793C123.706 63.2883 122.942 62.9504 122.04 62.6496L121.407 64.547C122.224 64.8191 122.803 65.0899 123.183 65.3434L124.292 63.6793ZM122.064 62.6579C121.181 62.3386 120.064 62.0073 118.723 61.6629L118.225 63.6001C119.534 63.936 120.583 64.2492 121.383 64.5387L122.064 62.6579ZM118.72 61.6622C117.613 61.3811 116.639 61.0936 115.794 60.8005L115.138 62.69C116.048 63.0057 117.079 63.3089 118.228 63.6007L118.72 61.6622ZM115.794 60.8005C114.991 60.5218 114.342 60.1881 113.83 59.8117L112.645 61.423C113.35 61.9417 114.187 62.36 115.138 62.69L115.794 60.8005ZM113.841 59.8202C113.368 59.4615 113.025 59.045 112.794 58.5691L110.995 59.4429C111.373 60.2202 111.925 60.878 112.633 61.4144L113.841 59.8202ZM112.799 58.579C112.575 58.1045 112.438 57.4637 112.438 56.6159H110.438C110.438 57.6658 110.606 58.6184 110.99 59.433L112.799 58.579ZM112.438 56.6159C112.438 55.9341 112.578 55.3503 112.838 54.8437L111.059 53.93C110.638 54.7483 110.438 55.6505 110.438 56.6159H112.438ZM112.833 54.8526C113.12 54.3069 113.513 53.8484 114.022 53.4708L112.829 51.8654C112.084 52.4187 111.492 53.1062 111.063 53.9211L112.833 54.8526ZM114.022 53.4708C114.533 53.0907 115.178 52.7807 115.978 52.5568L115.438 50.6309C114.447 50.9084 113.57 51.3145 112.829 51.8654L114.022 53.4708ZM115.978 52.5568C116.771 52.3346 117.672 52.2179 118.689 52.2179V50.2179C117.521 50.2179 116.435 50.3518 115.438 50.6309L115.978 52.5568ZM118.689 52.2179C121.074 52.2179 122.715 52.629 123.75 53.314L124.854 51.6463C123.346 50.6482 121.245 50.2179 118.689 50.2179V52.2179ZM123.763 53.3228C124.741 53.9472 125.33 54.941 125.453 56.4808L127.447 56.3213C127.284 54.2802 126.441 52.6601 124.84 51.6374L123.763 53.3228ZM126.45 55.401H124.275V57.401H126.45V55.401ZM125.265 56.2644C125.083 54.939 124.412 53.8943 123.261 53.2467L122.281 54.9899C122.848 55.3091 123.181 55.7862 123.284 56.5376L125.265 56.2644ZM123.283 53.2592C122.212 52.6211 120.734 52.3663 118.984 52.3663V54.3663C120.601 54.3663 121.647 54.6129 122.259 54.9774L123.283 53.2592ZM118.984 52.3663C118.137 52.3663 117.34 52.4433 116.598 52.6038L117.02 54.5586C117.603 54.4326 118.256 54.3663 118.984 54.3663V52.3663ZM116.598 52.6038C115.851 52.7652 115.173 53.0142 114.58 53.3654L115.6 55.086C115.974 54.8644 116.442 54.6836 117.02 54.5586L116.598 52.6038ZM114.591 53.3595C113.992 53.7048 113.502 54.1661 113.141 54.7431L114.837 55.8031C115.014 55.5207 115.258 55.2837 115.59 55.0919L114.591 53.3595ZM113.152 54.7268C112.767 55.3161 112.586 55.984 112.586 56.6964H114.586C114.586 56.3346 114.674 56.0537 114.827 55.8193L113.152 54.7268ZM112.586 56.6964C112.586 57.12 112.661 57.5401 112.799 57.9526L114.696 57.3201C114.619 57.0881 114.586 56.8816 114.586 56.6964H112.586ZM112.799 57.9526C112.995 58.5407 113.435 59.0205 113.932 59.4141L115.174 57.846C114.812 57.5592 114.715 57.3766 114.696 57.3201L112.799 57.9526ZM113.948 59.4262C114.497 59.8432 115.251 60.2313 116.163 60.6032L116.918 58.7515C116.075 58.4073 115.505 58.0971 115.158 57.8339L113.948 59.4262ZM116.179 60.6097C117.113 60.9721 118.359 61.342 119.899 61.7224L120.379 59.7808C118.875 59.4093 117.722 59.063 116.902 58.745L116.179 60.6097ZM119.893 61.7209C121.065 62.0182 122.063 62.3289 122.893 62.6508L123.616 60.786C122.691 60.4275 121.612 60.0937 120.385 59.7823L119.893 61.7209ZM122.916 62.6593C123.734 62.9539 124.361 63.2987 124.826 63.6761L126.087 62.1239C125.406 61.5703 124.565 61.1274 123.593 60.7775L122.916 62.6593ZM124.853 63.6971C125.328 64.0572 125.657 64.4623 125.868 64.9103L127.677 64.0587C127.315 63.2893 126.767 62.638 126.06 62.1029L124.853 63.6971ZM125.868 64.9103C126.079 65.3594 126.202 65.9243 126.202 66.6329H128.202C128.202 65.6945 128.039 64.8271 127.677 64.0587L125.868 64.9103ZM126.202 66.6329C126.202 67.404 126.044 68.1186 125.732 68.7882L127.544 69.634C127.984 68.6922 128.202 67.6881 128.202 66.6329H126.202ZM125.728 68.7973C125.433 69.4458 125.006 70.0073 124.436 70.4872L125.725 72.017C126.515 71.351 127.127 70.5518 127.548 69.6249L125.728 68.7973ZM124.426 70.4957C123.878 70.9702 123.183 71.3586 122.32 71.6462L122.953 73.5435C124.024 73.1866 124.958 72.6798 125.735 72.0084L124.426 70.4957ZM122.305 71.6515C121.461 71.9484 120.492 72.1051 119.387 72.1051V74.1051C120.681 74.1051 121.879 73.9216 122.969 73.5382L122.305 71.6515ZM135.366 72.568V73.568H136.366V72.568H135.366ZM133.218 72.568H132.218V73.568H133.218V72.568ZM133.218 51.755V50.755H132.218V51.755H133.218ZM135.366 51.755H136.366V50.755H135.366V51.755ZM135.393 46.5182V47.5182H136.393V46.5182H135.393ZM133.245 46.5182H132.245V47.5182H133.245V46.5182ZM133.245 43.1613V42.1613H132.245V43.1613H133.245ZM135.393 43.1613H136.393V42.1613H135.393V43.1613ZM135.366 71.568H133.218V73.568H135.366V71.568ZM134.218 72.568V51.755H132.218V72.568H134.218ZM133.218 52.755H135.366V50.755H133.218V52.755ZM134.366 51.755V72.568H136.366V51.755H134.366ZM135.393 45.5182H133.245V47.5182H135.393V45.5182ZM134.245 46.5182V43.1613H132.245V46.5182H134.245ZM133.245 44.1613H135.393V42.1613H133.245V44.1613ZM134.393 43.1613V46.5182H136.393V43.1613H134.393ZM157.656 75.5758L156.7 75.2817L156.699 75.2858L157.656 75.5758ZM156.045 78.4493L155.329 77.751L155.32 77.7601L156.045 78.4493ZM146.457 80.1681L146.73 79.2059L146.721 79.2035L146.713 79.2013L146.457 80.1681ZM142.402 77.2677L141.517 77.7325L141.521 77.7411L141.526 77.7496L142.402 77.2677ZM141.758 74.8239V73.8239H140.697L140.759 74.8826L141.758 74.8239ZM143.906 74.8239L144.904 74.7516L144.836 73.8239H143.906V74.8239ZM145.437 77.5363L145.973 76.6919L145.961 76.6846L145.437 77.5363ZM152.393 78.0197L152.095 77.0648L152.086 77.0678L152.076 77.071L152.393 78.0197ZM155.615 74.421L154.656 74.1369L154.654 74.1451L154.652 74.1534L155.615 74.421ZM156.045 69.5333H157.045V66.8075L155.282 68.8866L156.045 69.5333ZM154.058 71.4938L154.665 72.2881L154.668 72.2856L154.058 71.4938ZM152.285 72.568L152.661 73.4945L152.674 73.4895L152.686 73.4842L152.285 72.568ZM150.62 72.9977L150.521 72.0027L150.502 72.0045L150.483 72.0071L150.62 72.9977ZM143.101 70.151L142.288 70.7337L142.293 70.741L143.101 70.151ZM141.543 66.7404L140.574 66.9891L140.578 67.0013L141.543 66.7404ZM141.65 57.6901L140.696 57.3925L140.693 57.4004L141.65 57.6901ZM143.396 54.1989L142.607 53.5849L142.605 53.587L143.396 54.1989ZM146.028 51.9967L146.475 52.8912L146.481 52.888L146.028 51.9967ZM152.527 51.7282L152.202 52.6738L152.215 52.6784L152.229 52.6826L152.527 51.7282ZM156.045 53.7155L155.398 54.478L157.045 55.8754V53.7155H156.045ZM156.045 51.755V50.755H155.045V51.755H156.045ZM158.193 51.755H159.193V50.755H158.193V51.755ZM156.045 56.3742H157.045V55.9705L156.765 55.68L156.045 56.3742ZM153.01 54.1183L152.575 55.0189L152.581 55.0217L153.01 54.1183ZM146.914 53.9303L147.336 54.8371L147.345 54.8328L146.914 53.9303ZM144.927 55.5953L145.724 56.1985L145.731 56.1892L144.927 55.5953ZM143.638 58.3883L144.602 58.6527L144.603 58.6488L143.638 58.3883ZM144.819 68.7545L144.017 69.3514L144.819 68.7545ZM152.93 69.9093L153.475 70.7478L153.484 70.7414L152.93 69.9093ZM156.045 66.7404L156.857 67.3236L157.045 67.0622V66.7404H156.045ZM157.193 71.3326C157.193 72.9319 157.021 74.241 156.7 75.2817L158.612 75.8699C159.008 74.5831 159.193 73.0635 159.193 71.3326H157.193ZM156.699 75.2858C156.378 76.345 155.913 77.1529 155.329 77.751L156.761 79.1477C157.609 78.2777 158.218 77.1699 158.613 75.8658L156.699 75.2858ZM155.32 77.7601C154.751 78.3586 154.016 78.8123 153.084 79.1073L153.688 81.014C154.905 80.6287 155.942 80.0082 156.769 79.1386L155.32 77.7601ZM153.084 79.1073C152.129 79.4099 150.99 79.5709 149.653 79.5709V81.5709C151.145 81.5709 152.495 81.3918 153.688 81.014L153.084 79.1073ZM149.653 79.5709C148.546 79.5709 147.575 79.445 146.73 79.2059L146.185 81.1303C147.238 81.4283 148.397 81.5709 149.653 81.5709V79.5709ZM146.713 79.2013C145.86 78.976 145.16 78.6546 144.593 78.2518L143.434 79.8822C144.228 80.4463 145.157 80.8589 146.202 81.1349L146.713 79.2013ZM144.593 78.2518C144.033 77.8538 143.598 77.367 143.278 76.7858L141.526 77.7496C141.994 78.6007 142.634 79.3134 143.434 79.8822L144.593 78.2518ZM143.288 76.8029C142.986 76.228 142.802 75.5549 142.756 74.7651L140.759 74.8826C140.82 75.9189 141.067 76.8751 141.517 77.7325L143.288 76.8029ZM141.758 75.8239H143.906V73.8239H141.758V75.8239ZM142.909 74.8961C143.018 76.4031 143.668 77.6221 144.913 78.3879L145.961 76.6846C145.343 76.3045 144.973 75.7154 144.904 74.7516L142.909 74.8961ZM144.901 78.3806C146.066 79.1198 147.668 79.4225 149.573 79.4225V77.4225C147.825 77.4225 146.67 77.1344 145.973 76.6919L144.901 78.3806ZM149.573 79.4225C150.727 79.4225 151.778 79.2785 152.709 78.9683L152.076 77.071C151.395 77.2979 150.567 77.4225 149.573 77.4225V79.4225ZM152.69 78.9745C153.655 78.6741 154.483 78.1603 155.147 77.4301L153.667 76.0848C153.256 76.5362 152.741 76.864 152.095 77.0648L152.69 78.9745ZM155.147 77.4301C155.812 76.6978 156.279 75.7684 156.579 74.6887L154.652 74.1534C154.414 75.0073 154.075 75.6355 153.667 76.0848L155.147 77.4301ZM156.574 74.7051C156.896 73.6173 157.045 72.3243 157.045 70.8493H155.045C155.045 72.2029 154.907 73.2911 154.656 74.1369L156.574 74.7051ZM157.045 70.8493V69.5333H155.045V70.8493H157.045ZM155.282 68.8866C154.614 69.6746 154.002 70.2738 153.447 70.702L154.668 72.2856C155.367 71.747 156.079 71.0392 156.808 70.18L155.282 68.8866ZM153.45 70.6994C152.891 71.1267 152.369 71.4396 151.884 71.6518L152.686 73.4842C153.347 73.1951 154.006 72.7919 154.665 72.2881L153.45 70.6994ZM151.909 71.6415C151.412 71.8434 150.95 71.9597 150.521 72.0027L150.72 73.9927C151.364 73.9282 152.013 73.7581 152.661 73.4945L151.909 71.6415ZM150.483 72.0071C150.007 72.0727 149.543 72.1051 149.089 72.1051V74.1051C149.638 74.1051 150.194 74.0659 150.757 73.9883L150.483 72.0071ZM149.089 72.1051C147.917 72.1051 146.924 71.8731 146.085 71.4383L145.165 73.2143C146.331 73.8179 147.648 74.1051 149.089 74.1051V72.1051ZM146.085 71.4383C145.223 70.9918 144.499 70.3699 143.908 69.561L142.293 70.741C143.063 71.7941 144.022 72.6224 145.165 73.2143L146.085 71.4383ZM143.913 69.5683C143.314 68.7321 142.84 67.7087 142.508 66.4795L140.578 67.0013C140.961 68.4218 141.527 69.6721 142.288 70.7337L143.913 69.5683ZM142.511 66.4917C142.196 65.2618 142.033 63.87 142.033 62.3092H140.033C140.033 64.0069 140.21 65.5692 140.574 66.9891L142.511 66.4917ZM142.033 62.3092C142.033 60.6688 142.229 59.2293 142.607 57.9797L140.693 57.4004C140.248 58.8722 140.033 60.5121 140.033 62.3092H142.033ZM142.605 57.9876C143.006 56.7002 143.539 55.6484 144.187 54.8107L142.605 53.587C141.785 54.6471 141.154 55.9228 140.696 57.3925L142.605 57.9876ZM144.185 54.8128C144.854 53.9528 145.618 53.3197 146.475 52.8911L145.581 51.1023C144.432 51.6764 143.442 52.5113 142.607 53.5849L144.185 54.8128ZM146.481 52.888C147.359 52.4415 148.295 52.2179 149.304 52.2179V50.2179C147.985 50.2179 146.738 50.5136 145.574 51.1054L146.481 52.888ZM149.304 52.2179C149.758 52.2179 150.233 52.2503 150.73 52.3166L150.994 50.3341C150.416 50.2571 149.853 50.2179 149.304 50.2179V52.2179ZM150.73 52.3166C151.194 52.3785 151.684 52.496 152.202 52.6738L152.852 50.7825C152.224 50.5665 151.604 50.4154 150.994 50.3341L150.73 52.3166ZM152.229 52.6826C152.732 52.8399 153.253 53.0634 153.794 53.358L154.751 51.6022C154.11 51.2523 153.468 50.9744 152.825 50.7737L152.229 52.6826ZM153.794 53.358C154.316 53.6432 154.851 54.0143 155.398 54.478L156.692 52.953C156.057 52.414 155.41 51.9616 154.751 51.6022L153.794 53.358ZM157.045 53.7155V51.755H155.045V53.7155H157.045ZM156.045 52.755H158.193V50.755H156.045V52.755ZM157.193 51.755V71.3326H159.193V51.755H157.193ZM156.765 55.68C155.73 54.6069 154.623 53.7767 153.439 53.2149L152.581 55.0217C153.51 55.4625 154.426 56.1362 155.325 57.0683L156.765 55.68ZM153.445 53.2177C152.258 52.6445 150.952 52.3663 149.546 52.3663V54.3663C150.682 54.3663 151.686 54.5895 152.575 55.0188L153.445 53.2177ZM149.546 52.3663C148.446 52.3663 147.419 52.581 146.483 53.0278L147.345 54.8328C147.984 54.5276 148.712 54.3663 149.546 54.3663V52.3663ZM146.492 53.0236C145.556 53.4592 144.766 54.1287 144.122 55.0015L145.731 56.1892C146.197 55.5581 146.733 55.1176 147.336 54.837L146.492 53.0236ZM144.129 54.9922C143.479 55.8522 143.001 56.908 142.672 58.1278L144.603 58.6488C144.883 57.6128 145.265 56.8066 145.724 56.1985L144.129 54.9922ZM142.673 58.1239C142.339 59.3417 142.181 60.7416 142.181 62.3092H144.181C144.181 60.869 144.327 59.6549 144.602 58.6527L142.673 58.1239ZM142.181 62.3092C142.181 65.2429 142.743 67.6395 144.017 69.3514L145.622 68.1577C144.711 66.9334 144.181 65.0331 144.181 62.3092H142.181ZM144.017 69.3514C145.312 71.0922 147.142 71.9567 149.385 71.9567V69.9567C147.725 69.9567 146.511 69.3531 145.622 68.1577L144.017 69.3514ZM149.385 71.9567C150.866 71.9567 152.237 71.5521 153.475 70.7478L152.385 69.0709C151.474 69.663 150.482 69.9567 149.385 69.9567V71.9567ZM153.484 70.7414C154.686 69.9404 155.806 68.7873 156.857 67.3236L155.233 66.1572C154.278 67.4864 153.322 68.446 152.375 69.0773L153.484 70.7414ZM157.045 66.7404V56.3742H155.045V66.7404H157.045ZM167.217 54.8434H166.217V57.5692L167.979 55.4901L167.217 54.8434ZM169.258 52.8829L168.678 52.0677L168.668 52.0752L169.258 52.8829ZM171.218 51.7819L170.856 50.8498L170.847 50.8534L171.218 51.7819ZM173.044 51.3253L173.138 52.321L173.153 52.3195L173.168 52.3176L173.044 51.3253ZM181.074 72.568V73.568H182.074V72.568H181.074ZM178.926 72.568H177.926V73.568H178.926V72.568ZM178.657 56.4816L177.682 56.7011L177.685 56.7156L177.688 56.73L178.657 56.4816ZM177.825 54.736L177.047 55.3643L177.06 55.3807L177.074 55.3966L177.825 54.736ZM176.321 53.7155L175.964 54.6495L175.98 54.6557L175.996 54.6614L176.321 53.7155ZM170.574 54.4137L170.053 53.5597L170.047 53.5634L170.574 54.4137ZM167.217 57.3678L166.463 56.7101L166.217 56.9926V57.3678H167.217ZM167.217 72.568V73.568H168.217V72.568H167.217ZM165.068 72.568H164.068V73.568H165.068V72.568ZM165.068 51.755V50.755H164.068V51.755H165.068ZM167.217 51.755H168.217V50.755H167.217V51.755ZM167.979 55.4901C168.642 54.7091 169.265 54.1155 169.847 53.6907L168.668 52.0752C167.925 52.6172 167.188 53.3306 166.454 54.1967L167.979 55.4901ZM169.837 53.6981C170.467 53.2503 171.051 52.9256 171.59 52.7103L170.847 50.8534C170.132 51.1394 169.409 51.5488 168.679 52.0678L169.837 53.6981ZM171.581 52.7139C172.156 52.4903 172.673 52.3645 173.138 52.321L172.951 50.3297C172.27 50.3936 171.57 50.5722 170.856 50.8499L171.581 52.7139ZM173.168 52.3176C173.706 52.2504 174.202 52.2179 174.656 52.2179V50.2179C174.107 50.2179 173.528 50.257 172.92 50.333L173.168 52.3176ZM174.656 52.2179C176.594 52.2179 177.88 52.7818 178.707 53.7578C179.561 54.7654 180.074 56.3842 180.074 58.7911H182.074C182.074 56.1493 181.518 53.9814 180.232 52.4647C178.92 50.9162 176.997 50.2179 174.656 50.2179V52.2179ZM180.074 58.7911V72.568H182.074V58.7911H180.074ZM181.074 71.568H178.926V73.568H181.074V71.568ZM179.926 72.568V58.9791H177.926V72.568H179.926ZM179.926 58.9791C179.926 57.9551 179.831 57.0348 179.626 56.2332L177.688 56.73C177.841 57.3249 177.926 58.0696 177.926 58.9791H179.926ZM179.633 56.2621C179.443 55.4197 179.103 54.6747 178.575 54.0753L177.074 55.3966C177.334 55.6924 177.549 56.1111 177.682 56.7011L179.633 56.2621ZM178.603 54.1076C178.096 53.4803 177.43 53.0387 176.645 52.7695L175.996 54.6614C176.465 54.8219 176.801 55.0607 177.047 55.3643L178.603 54.1076ZM176.678 52.7814C175.921 52.4921 175.04 52.3663 174.065 52.3663V54.3663C174.88 54.3663 175.503 54.4733 175.964 54.6495L176.678 52.7814ZM174.065 52.3663C172.676 52.3663 171.334 52.7792 170.053 53.5598L171.094 55.2676C172.105 54.6517 173.091 54.3663 174.065 54.3663V52.3663ZM170.047 53.5634C168.815 54.3262 167.622 55.3832 166.463 56.7101L167.97 58.0256C169.031 56.8101 170.076 55.8977 171.1 55.264L170.047 53.5634ZM166.217 57.3678V72.568H168.217V57.3678H166.217ZM167.217 71.568H165.068V73.568H167.217V71.568ZM166.068 72.568V51.755H164.068V72.568H166.068ZM165.068 52.755H167.217V50.755H165.068V52.755ZM166.217 51.755V54.8434H168.217V51.755H166.217ZM190.366 72.568V73.568H191.366V72.568H190.366ZM188.218 72.568H187.218V73.568H188.218V72.568ZM188.218 51.755V50.755H187.218V51.755H188.218ZM190.366 51.755H191.366V50.755H190.366V51.755ZM190.393 46.5182V47.5182H191.393V46.5182H190.393ZM188.245 46.5182H187.245V47.5182H188.245V46.5182ZM188.245 43.1613V42.1613H187.245V43.1613H188.245ZM190.393 43.1613H191.393V42.1613H190.393V43.1613ZM190.366 71.568H188.218V73.568H190.366V71.568ZM189.218 72.568V51.755H187.218V72.568H189.218ZM188.218 52.755H190.366V50.755H188.218V52.755ZM189.366 51.755V72.568H191.366V51.755H189.366ZM190.393 45.5182H188.245V47.5182H190.393V45.5182ZM189.245 46.5182V43.1613H187.245V46.5182H189.245ZM188.245 44.1613H190.393V42.1613H188.245V44.1613ZM189.393 43.1613V46.5182H191.393V43.1613H189.393ZM199.39 54.8434H198.39V57.5692L200.152 55.4901L199.39 54.8434ZM201.431 52.8829L200.851 52.0677L200.841 52.0752L201.431 52.8829ZM203.391 51.7819L203.029 50.8498L203.02 50.8534L203.391 51.7819ZM205.217 51.3253L205.311 52.321L205.326 52.3195L205.341 52.3176L205.217 51.3253ZM213.247 72.568V73.568H214.247V72.568H213.247ZM211.099 72.568H210.099V73.568H211.099V72.568ZM210.83 56.4816L209.854 56.7011L209.858 56.7156L209.861 56.73L210.83 56.4816ZM209.997 54.736L209.22 55.3643L209.233 55.3807L209.247 55.3966L209.997 54.736ZM208.494 53.7155L208.136 54.6495L208.153 54.6557L208.169 54.6614L208.494 53.7155ZM202.747 54.4137L202.226 53.5597L202.22 53.5634L202.747 54.4137ZM199.39 57.3678L198.636 56.7101L198.39 56.9926V57.3678H199.39ZM199.39 72.568V73.568H200.39V72.568H199.39ZM197.241 72.568H196.241V73.568H197.241V72.568ZM197.241 51.755V50.755H196.241V51.755H197.241ZM199.39 51.755H200.39V50.755H199.39V51.755ZM200.152 55.4901C200.815 54.7091 201.438 54.1155 202.02 53.6907L200.841 52.0752C200.098 52.6172 199.361 53.3306 198.627 54.1967L200.152 55.4901ZM202.01 53.6981C202.64 53.2503 203.224 52.9256 203.762 52.7103L203.02 50.8534C202.305 51.1394 201.582 51.5488 200.851 52.0678L202.01 53.6981ZM203.753 52.7139C204.328 52.4903 204.846 52.3645 205.311 52.321L205.124 50.3297C204.442 50.3936 203.743 50.5722 203.029 50.8499L203.753 52.7139ZM205.341 52.3176C205.879 52.2504 206.374 52.2179 206.829 52.2179V50.2179C206.28 50.2179 205.701 50.257 205.093 50.333L205.341 52.3176ZM206.829 52.2179C208.767 52.2179 210.052 52.7818 210.88 53.7578C211.734 54.7654 212.247 56.3842 212.247 58.7911H214.247C214.247 56.1493 213.691 53.9814 212.405 52.4647C211.093 50.9162 209.169 50.2179 206.829 50.2179V52.2179ZM212.247 58.7911V72.568H214.247V58.7911H212.247ZM213.247 71.568H211.099V73.568H213.247V71.568ZM212.099 72.568V58.9791H210.099V72.568H212.099ZM212.099 58.9791C212.099 57.9551 212.004 57.0348 211.799 56.2332L209.861 56.73C210.014 57.3249 210.099 58.0696 210.099 58.9791H212.099ZM211.806 56.2621C211.616 55.4197 211.276 54.6747 210.748 54.0753L209.247 55.3966C209.507 55.6924 209.722 56.1111 209.854 56.7011L211.806 56.2621ZM210.775 54.1076C210.269 53.4803 209.603 53.0387 208.818 52.7695L208.169 54.6614C208.638 54.8219 208.974 55.0607 209.22 55.3643L210.775 54.1076ZM208.851 52.7814C208.094 52.4921 207.212 52.3663 206.238 52.3663V54.3663C207.053 54.3663 207.676 54.4733 208.136 54.6495L208.851 52.7814ZM206.238 52.3663C204.849 52.3663 203.507 52.7792 202.226 53.5598L203.267 55.2676C204.278 54.6517 205.264 54.3663 206.238 54.3663V52.3663ZM202.22 53.5634C200.988 54.3262 199.795 55.3832 198.636 56.7101L200.143 58.0256C201.204 56.8101 202.249 55.8977 203.273 55.264L202.22 53.5634ZM198.39 57.3678V72.568H200.39V57.3678H198.39ZM199.39 71.568H197.241V73.568H199.39V71.568ZM198.241 72.568V51.755H196.241V72.568H198.241ZM197.241 52.755H199.39V50.755H197.241V52.755ZM198.39 51.755V54.8434H200.39V51.755H198.39ZM235.483 75.5758L234.528 75.2817L234.526 75.2858L235.483 75.5758ZM233.872 78.4493L233.156 77.751L233.147 77.7601L233.872 78.4493ZM224.285 80.1681L224.557 79.2059L224.548 79.2035L224.54 79.2013L224.285 80.1681ZM220.229 77.2677L219.344 77.7325L219.349 77.7411L219.353 77.7496L220.229 77.2677ZM219.585 74.8239V73.8239H218.524L218.587 74.8826L219.585 74.8239ZM221.733 74.8239L222.731 74.7516L222.663 73.8239H221.733V74.8239ZM223.264 77.5363L223.8 76.6919L223.788 76.6846L223.264 77.5363ZM230.22 78.0197L229.923 77.0648L229.913 77.0678L229.903 77.071L230.22 78.0197ZM233.442 74.421L232.484 74.1369L232.481 74.1451L232.479 74.1534L233.442 74.421ZM233.872 69.5333H234.872V66.8075L233.109 68.8866L233.872 69.5333ZM231.885 71.4938L232.492 72.2881L232.496 72.2856L231.885 71.4938ZM230.112 72.568L230.489 73.4945L230.501 73.4895L230.513 73.4842L230.112 72.568ZM228.447 72.9977L228.348 72.0027L228.329 72.0045L228.311 72.0071L228.447 72.9977ZM220.928 70.151L220.115 70.7337L220.12 70.741L220.928 70.151ZM219.37 66.7404L218.401 66.9891L218.405 67.0013L219.37 66.7404ZM219.477 57.6901L218.523 57.3925L218.52 57.4004L219.477 57.6901ZM221.223 54.1989L220.434 53.5849L220.432 53.587L221.223 54.1989ZM223.855 51.9967L224.302 52.8912L224.308 52.888L223.855 51.9967ZM230.354 51.7282L230.029 52.6738L230.042 52.6784L230.056 52.6826L230.354 51.7282ZM233.872 53.7155L233.225 54.478L234.872 55.8754V53.7155H233.872ZM233.872 51.755V50.755H232.872V51.755H233.872ZM236.02 51.755H237.02V50.755H236.02V51.755ZM233.872 56.3742H234.872V55.9705L234.592 55.68L233.872 56.3742ZM230.837 54.1183L230.403 55.0189L230.409 55.0217L230.837 54.1183ZM224.741 53.9303L225.163 54.8371L225.172 54.8328L224.741 53.9303ZM222.754 55.5953L223.552 56.1985L223.558 56.1892L222.754 55.5953ZM221.465 58.3883L222.429 58.6527L222.43 58.6488L221.465 58.3883ZM222.646 68.7545L221.844 69.3514L222.646 68.7545ZM230.757 69.9093L231.302 70.7478L231.311 70.7414L230.757 69.9093ZM233.872 66.7404L234.684 67.3236L234.872 67.0622V66.7404H233.872ZM235.02 71.3326C235.02 72.9319 234.848 74.241 234.528 75.2817L236.439 75.8699C236.835 74.5831 237.02 73.0635 237.02 71.3326H235.02ZM234.526 75.2858C234.205 76.345 233.74 77.1529 233.156 77.751L234.588 79.1477C235.437 78.2777 236.045 77.1699 236.44 75.8658L234.526 75.2858ZM233.147 77.7601C232.578 78.3586 231.843 78.8123 230.911 79.1073L231.515 81.014C232.732 80.6287 233.769 80.0082 234.597 79.1386L233.147 77.7601ZM230.911 79.1073C229.956 79.4099 228.817 79.5709 227.48 79.5709V81.5709C228.972 81.5709 230.322 81.3918 231.515 81.014L230.911 79.1073ZM227.48 79.5709C226.373 79.5709 225.402 79.445 224.557 79.2059L224.012 81.1303C225.065 81.4283 226.224 81.5709 227.48 81.5709V79.5709ZM224.54 79.2013C223.687 78.976 222.987 78.6546 222.42 78.2518L221.262 79.8822C222.055 80.4463 222.984 80.8589 224.029 81.1349L224.54 79.2013ZM222.42 78.2518C221.86 77.8538 221.425 77.367 221.106 76.7858L219.353 77.7496C219.821 78.6007 220.461 79.3134 221.262 79.8822L222.42 78.2518ZM221.115 76.8029C220.813 76.228 220.63 75.5549 220.583 74.7651L218.587 74.8826C218.648 75.9189 218.894 76.8751 219.344 77.7325L221.115 76.8029ZM219.585 75.8239H221.733V73.8239H219.585V75.8239ZM220.736 74.8961C220.845 76.4031 221.496 77.6221 222.74 78.3879L223.788 76.6846C223.171 76.3045 222.801 75.7154 222.731 74.7516L220.736 74.8961ZM222.728 78.3806C223.893 79.1198 225.496 79.4225 227.4 79.4225V77.4225C225.652 77.4225 224.497 77.1344 223.8 76.6919L222.728 78.3806ZM227.4 79.4225C228.554 79.4225 229.605 79.2785 230.536 78.9683L229.903 77.071C229.223 77.2979 228.394 77.4225 227.4 77.4225V79.4225ZM230.517 78.9745C231.482 78.6741 232.31 78.1603 232.974 77.4301L231.494 76.0848C231.083 76.5362 230.568 76.864 229.923 77.0648L230.517 78.9745ZM232.974 77.4301C233.64 76.6978 234.106 75.7684 234.406 74.6887L232.479 74.1534C232.242 75.0073 231.902 75.6355 231.494 76.0848L232.974 77.4301ZM234.401 74.7051C234.723 73.6173 234.872 72.3243 234.872 70.8493H232.872C232.872 72.2029 232.734 73.2911 232.484 74.1369L234.401 74.7051ZM234.872 70.8493V69.5333H232.872V70.8493H234.872ZM233.109 68.8866C232.441 69.6746 231.829 70.2738 231.274 70.702L232.496 72.2856C233.194 71.747 233.906 71.0392 234.635 70.18L233.109 68.8866ZM231.277 70.6994C230.719 71.1267 230.197 71.4396 229.711 71.6518L230.513 73.4842C231.174 73.1951 231.833 72.7919 232.492 72.2881L231.277 70.6994ZM229.736 71.6415C229.239 71.8434 228.777 71.9597 228.348 72.0027L228.547 73.9927C229.192 73.9282 229.84 73.7581 230.489 73.4945L229.736 71.6415ZM228.311 72.0071C227.835 72.0727 227.37 72.1051 226.916 72.1051V74.1051C227.465 74.1051 228.021 74.0659 228.584 73.9883L228.311 72.0071ZM226.916 72.1051C225.744 72.1051 224.752 71.8731 223.912 71.4383L222.992 73.2143C224.158 73.8179 225.475 74.1051 226.916 74.1051V72.1051ZM223.912 71.4383C223.05 70.9918 222.326 70.3699 221.735 69.561L220.12 70.741C220.89 71.7941 221.849 72.6224 222.992 73.2143L223.912 71.4383ZM221.74 69.5683C221.141 68.7321 220.668 67.7087 220.335 66.4795L218.405 67.0013C218.789 68.4218 219.354 69.6721 220.115 70.7337L221.74 69.5683ZM220.339 66.4917C220.023 65.2618 219.86 63.87 219.86 62.3092H217.86C217.86 64.0069 218.037 65.5692 218.401 66.9891L220.339 66.4917ZM219.86 62.3092C219.86 60.6688 220.056 59.2293 220.435 57.9797L218.52 57.4004C218.075 58.8722 217.86 60.5121 217.86 62.3092H219.86ZM220.432 57.9876C220.833 56.7002 221.366 55.6484 222.014 54.8107L220.432 53.587C219.612 54.6471 218.981 55.9228 218.523 57.3925L220.432 57.9876ZM222.012 54.8128C222.681 53.9528 223.445 53.3197 224.302 52.8911L223.408 51.1023C222.26 51.6764 221.269 52.5113 220.434 53.5849L222.012 54.8128ZM224.308 52.888C225.186 52.4415 226.122 52.2179 227.131 52.2179V50.2179C225.813 50.2179 224.565 50.5136 223.401 51.1054L224.308 52.888ZM227.131 52.2179C227.585 52.2179 228.06 52.2503 228.557 52.3166L228.821 50.3341C228.244 50.2571 227.68 50.2179 227.131 50.2179V52.2179ZM228.557 52.3166C229.021 52.3785 229.511 52.496 230.029 52.6738L230.679 50.7825C230.051 50.5665 229.431 50.4154 228.821 50.3341L228.557 52.3166ZM230.056 52.6826C230.559 52.8399 231.081 53.0634 231.621 53.358L232.578 51.6022C231.937 51.2523 231.295 50.9744 230.652 50.7737L230.056 52.6826ZM231.621 53.358C232.143 53.6432 232.679 54.0143 233.225 54.478L234.519 52.953C233.884 52.414 233.237 51.9616 232.578 51.6022L231.621 53.358ZM234.872 53.7155V51.755H232.872V53.7155H234.872ZM233.872 52.755H236.02V50.755H233.872V52.755ZM235.02 51.755V71.3326H237.02V51.755H235.02ZM234.592 55.68C233.557 54.6069 232.45 53.7767 231.266 53.2149L230.409 55.0217C231.337 55.4625 232.253 56.1362 233.152 57.0683L234.592 55.68ZM231.272 53.2177C230.085 52.6445 228.779 52.3663 227.373 52.3663V54.3663C228.509 54.3663 229.513 54.5895 230.403 55.0188L231.272 53.2177ZM227.373 52.3663C226.273 52.3663 225.247 52.581 224.31 53.0278L225.172 54.8328C225.811 54.5276 226.539 54.3663 227.373 54.3663V52.3663ZM224.319 53.0236C223.383 53.4592 222.593 54.1287 221.949 55.0015L223.558 56.1892C224.024 55.5581 224.56 55.1176 225.163 54.837L224.319 53.0236ZM221.956 54.9922C221.306 55.8522 220.828 56.908 220.499 58.1278L222.43 58.6488C222.71 57.6128 223.092 56.8066 223.551 56.1985L221.956 54.9922ZM220.5 58.1239C220.166 59.3417 220.008 60.7416 220.008 62.3092H222.008C222.008 60.869 222.154 59.6549 222.429 58.6527L220.5 58.1239ZM220.008 62.3092C220.008 65.2429 220.571 67.6395 221.844 69.3514L223.449 68.1577C222.538 66.9334 222.008 65.0331 222.008 62.3092H220.008ZM221.844 69.3514C223.139 71.0922 224.969 71.9567 227.212 71.9567V69.9567C225.552 69.9567 224.338 69.3531 223.449 68.1577L221.844 69.3514ZM227.212 71.9567C228.693 71.9567 230.064 71.5521 231.302 70.7478L230.212 69.0709C229.301 69.663 228.309 69.9567 227.212 69.9567V71.9567ZM231.311 70.7414C232.513 69.9404 233.633 68.7873 234.684 67.3236L233.06 66.1572C232.105 67.4864 231.149 68.446 230.202 69.0773L231.311 70.7414ZM234.872 66.7404V56.3742H232.872V66.7404H234.872Z" fill="black"/>
</g>
</g>
<defs>
<filter id="filter0_d" x="0" y="0" width="794" height="295" filterUnits="userSpaceOnUse" color-interpolation-filters="sRGB">
<feFlood flood-opacity="0" result="BackgroundImageFix"/>
<feColorMatrix in="SourceAlpha" type="matrix" values="0 0 0 0 0 0 0 0 0 0 0 0 0 0 0 0 0 0 127 0"/>
<feMorphology radius="5" operator="dilate" in="SourceAlpha" result="effect1_dropShadow"/>
<feOffset/>
<feGaussianBlur stdDeviation="1"/>
<feColorMatrix type="matrix" values="0 0 0 0 0 0 0 0 0 0 0 0 0 0 0 0 0 0 0.09 0"/>
<feBlend mode="normal" in2="BackgroundImageFix" result="effect1_dropShadow"/>
<feBlend mode="normal" in="SourceGraphic" in2="effect1_dropShadow" result="shape"/>
</filter>
</defs>
</svg>
