<svg width="736" height="728" viewBox="0 0 736 728" fill="none" xmlns="http://www.w3.org/2000/svg">
<g id="undraw_my_notifications_rjej 1" clip-path="url(#clip0)">
<g id="Group 5">
<path id="Path 33" d="M362.889 172.947H358.889V63.402C358.889 46.5873 352.209 30.4612 340.32 18.5714C328.43 6.68163 312.304 0.00201416 295.489 0.00201416H63.402C46.5872 0.00201416 30.4612 6.68163 18.5714 18.5714C6.6816 30.4612 0.00195312 46.5873 0.00195312 63.402V664.376C0.00195312 681.191 6.6816 697.317 18.5714 709.207C30.4612 721.096 46.5872 727.776 63.402 727.776H295.488C312.303 727.776 328.429 721.096 340.319 709.207C352.208 697.317 358.888 681.191 358.888 664.376V250.923H362.888L362.889 172.947Z" fill="#3F3D56"/>
<path id="Path 34" d="M298.047 16.495H267.752C269.146 19.9109 269.678 23.6172 269.302 27.2873C268.926 30.9574 267.653 34.4787 265.595 37.5409C263.538 40.603 260.758 43.1121 257.502 44.8469C254.246 46.5817 250.614 47.4891 246.924 47.489H113.965C110.276 47.4887 106.644 46.5812 103.389 44.8465C100.133 43.1117 97.3541 40.603 95.2965 37.5413C93.2389 34.4796 91.9659 30.9588 91.5895 27.2892C91.2131 23.6196 91.745 19.9137 93.1382 16.498H64.8382C52.2807 16.498 40.2376 21.4865 31.3581 30.3659C22.4786 39.2454 17.4902 51.2886 17.4902 63.846V663.935C17.4902 676.493 22.4786 688.536 31.3581 697.415C40.2376 706.295 52.2807 711.283 64.8382 711.283H298.038C310.596 711.283 322.639 706.295 331.518 697.415C340.398 688.536 345.386 676.493 345.386 663.935V63.843C345.386 51.2855 340.398 39.2424 331.518 30.3629C322.639 21.4835 310.596 16.495 298.038 16.495H298.047Z" fill="#C4C4C4"/>
<path id="Rectangle 18" d="M315.728 134.488H47.1611V593.29H315.728V134.488Z" fill="#A29FA1"/>
<path id="Ellipse 7" d="M181.843 677.748C196.202 677.748 207.843 666.107 207.843 651.748C207.843 637.389 196.202 625.748 181.843 625.748C167.483 625.748 155.843 637.389 155.843 651.748C155.843 666.107 167.483 677.748 181.843 677.748Z" fill="#A29FA1"/>
<g id="Group 1">
<path id="Path 16" d="M306.127 642.401L303.157 671.114L319.988 669.134L321.968 645.372L306.127 642.401Z" fill="#FFB9B9"/>
<path id="Path 17" d="M261.575 424.582C261.575 424.582 175.437 507.749 229.892 533.492H246.723C246.723 533.492 283.356 473.092 301.178 474.087L306.128 531.512L303.158 647.352L324.94 648.342C324.94 648.342 337.811 589.927 336.821 557.254L359.593 436.463L261.575 424.582Z" fill="#363546"/>
<path id="Path 18" d="M234.84 529.532L246.721 533.492C246.721 533.492 293.255 522.601 296.221 523.592L305.434 523.528L305.134 499.828H265.534L234.84 529.532Z" fill="#2F2E41"/>
<path id="Path 19" d="M321.968 665.174C321.968 665.174 304.146 657.253 301.176 665.174C298.206 673.095 299.196 695.867 299.196 695.867C301.571 700.434 302.271 705.688 301.176 710.718C299.196 718.639 309.097 722.599 321.968 718.639C334.839 714.679 334.839 704.778 334.839 704.778L321.968 665.174Z" fill="#2F2E41"/>
<path id="Path 20" d="M336.819 497.844C336.819 497.844 350.68 489.923 349.69 501.804C348.868 509.651 346.865 517.328 343.749 524.576C343.749 524.576 356.62 558.239 343.749 561.209C330.878 564.179 320.977 557.249 320.977 552.298C320.977 547.347 336.819 497.844 336.819 497.844Z" fill="#2F2E41"/>
<path id="Path 21" d="M293.255 226.565L295.236 264.189L312.067 279.038L330.879 252.306V225.575L293.255 226.565Z" fill="#FFB9B9"/>
<path id="Path 22" d="M306.125 264.188L294.791 255.766L287.314 267.158L253.651 286.958L273.451 338.442L274.441 388.937C274.441 388.937 237.808 426.56 259.59 431.511C281.372 436.462 358.599 447.352 362.559 438.442C366.519 429.532 357.609 337.453 357.609 337.453L360.579 259.236L330.879 248.497L306.125 264.188Z" fill="#494143"/>
<path id="Path 23" d="M245.731 326.895C245.731 326.895 237.81 382.995 252.662 382.995C261.482 383.025 270.224 381.344 278.404 378.045L266.523 347.352L271.473 326.56L245.731 326.895Z" fill="#FFB9B9"/>
<path id="Path 24" d="M268.503 376.068L279.394 378.048C279.394 378.048 311.077 358.248 313.057 357.256C315.037 356.264 281.374 339.434 281.374 339.434L258.602 348.345L268.503 376.068Z" fill="#FFB9B9"/>
<path id="Path 25" opacity="0.1" d="M281.374 339.434L267.074 345.029L271.474 326.563L245.732 326.894C245.732 326.894 237.811 382.994 252.663 382.994C261.483 383.024 270.225 381.343 278.405 378.044L278.33 377.85L279.395 378.044C279.395 378.044 311.078 358.244 313.058 357.252C315.038 356.26 281.374 339.434 281.374 339.434Z" fill="black"/>
<path id="Ellipse 5" d="M316.16 245.338C331.774 245.338 344.432 232.68 344.432 217.066C344.432 201.452 331.774 188.794 316.16 188.794C300.545 188.794 287.888 201.452 287.888 217.066C287.888 232.68 300.545 245.338 316.16 245.338Z" fill="#FFB9B9"/>
<path id="Path 26" d="M291.164 185.171L285.64 182.96C285.64 182.96 297.19 170.244 313.259 171.35L308.739 166.374C308.739 166.374 319.787 161.951 329.83 173.561C335.11 179.661 341.218 186.838 345.03 194.919H350.946L348.477 200.355L357.116 205.794L348.246 204.817C349.086 209.511 348.798 214.337 347.407 218.897L347.645 223.197C347.645 223.197 337.364 207.29 337.364 205.079V210.608C337.364 210.608 331.84 205.632 331.84 202.315L328.827 206.185L327.316 200.094L308.736 206.175L311.749 201.199L300.199 202.858L304.719 196.777C304.719 196.777 291.663 203.964 291.16 210.046C290.657 216.128 284.13 223.867 284.13 223.867L281.117 218.338C281.117 218.338 276.601 193.464 291.164 185.171Z" fill="#2F2E41"/>
<path id="Path 27" d="M340.778 309.732C335.781 315.905 332.993 323.573 332.857 331.514L280.382 329.534C280.382 329.534 266.521 327.554 266.521 337.455V347.355C266.521 347.355 273.452 344.385 277.412 347.355C281.372 350.325 323.946 376.068 344.738 366.167C365.53 356.266 370.48 317.653 370.48 317.653C370.48 317.653 351.669 301.811 340.778 309.732Z" fill="#FFB9B9"/>
<path id="Path 28" d="M352.665 260.227L360.586 259.237C360.586 259.237 376.427 261.217 374.447 291.91C372.467 322.603 371.477 324.583 371.477 324.583C371.477 324.583 350.685 305.771 335.834 314.683L352.665 260.227Z" fill="#494143"/>
<path id="Path 29" d="M257.612 286.963H253.652C248.521 293.444 245.729 301.469 245.731 309.735C245.64 318.589 244.476 327.398 242.266 335.972L273.454 330.527L257.612 286.963Z" fill="#494143"/>
</g>
<g id="Group 2">
<path id="Rectangle 21" d="M735.742 134.462H448.25V191.223H735.742V134.462Z" fill="#A29FA1"/>
<path id="Path 65" d="M454.379 185.095H729.614V140.595H454.379V185.095Z" fill="#C4C4C4"/>
<path id="Path 67" d="M478.473 145.52C481.826 145.52 485.105 146.514 487.893 148.377C490.681 150.24 492.854 152.889 494.137 155.987C495.421 159.085 495.756 162.494 495.102 165.783C494.448 169.072 492.833 172.093 490.462 174.464C488.091 176.835 485.07 178.45 481.781 179.104C478.492 179.758 475.083 179.423 471.985 178.139C468.887 176.856 466.239 174.683 464.375 171.895C462.512 169.106 461.518 165.828 461.518 162.475C461.518 157.978 463.304 153.666 466.484 150.486C469.664 147.306 473.976 145.52 478.473 145.52V145.52Z" fill="#494143"/>
<path id="Rectangle 22" d="M686.352 155.84H519.017V159.526H686.352V155.84Z" fill="#A29FA1"/>
<path id="Rectangle 23" d="M686.352 165.423H519.017V169.109H686.352V165.423Z" fill="#A29FA1"/>
</g>
<g id="Group 3">
<path id="Rectangle 21_2" d="M735.742 215.462H448.25V272.223H735.742V215.462Z" fill="#A29FA1"/>
<path id="Path 65_2" d="M454.379 266.095H729.614V221.595H454.379V266.095Z" fill="#C4C4C4"/>
<path id="Ellipse 10" d="M478.473 260.43C487.837 260.43 495.428 252.839 495.428 243.475C495.428 234.111 487.837 226.52 478.473 226.52C469.109 226.52 461.518 234.111 461.518 243.475C461.518 252.839 469.109 260.43 478.473 260.43Z" fill="#494143"/>
<path id="Rectangle 22_2" d="M686.352 236.84H519.017V240.526H686.352V236.84Z" fill="#A29FA1"/>
<path id="Rectangle 23_2" d="M686.352 246.423H519.017V250.109H686.352V246.423Z" fill="#A29FA1"/>
</g>
<g id="Group 4">
<path id="Rectangle 21_3" d="M735.742 296.462H448.25V353.223H735.742V296.462Z" fill="#A29FA1"/>
<path id="Path 65_3" d="M454.379 347.095H729.614V302.595H454.379V347.095Z" fill="#C4C4C4"/>
<path id="Ellipse 10_2" d="M478.473 341.43C487.837 341.43 495.428 333.839 495.428 324.475C495.428 315.111 487.837 307.52 478.473 307.52C469.109 307.52 461.518 315.111 461.518 324.475C461.518 333.839 469.109 341.43 478.473 341.43Z" fill="#494143"/>
<path id="Rectangle 22_3" d="M686.352 317.84H519.017V321.526H686.352V317.84Z" fill="#A29FA1"/>
<path id="Rectangle 23_3" d="M686.352 327.423H519.017V331.109H686.352V327.423Z" fill="#A29FA1"/>
</g>
</g>
</g>
<defs>
<clipPath id="clip0">
<rect width="735.742" height="727.778" fill="white"/>
</clipPath>
</defs>
</svg>
