<svg width="97" height="97" viewBox="0 0 97 97" fill="none" xmlns="http://www.w3.org/2000/svg">
<g opacity="0.8">
<rect width="96.5323" height="96.5323" rx="33.0968" fill="#F5EDED"/>
<path d="M79.9124 10.5582H16.6197C13.2731 10.5582 10.5581 13.2732 10.5581 16.6198V79.9125C10.5581 83.2591 13.2731 85.9741 16.6197 85.9741H79.9124C83.259 85.9741 85.9739 83.2591 85.9739 79.9125V16.6198C85.9739 13.2732 83.259 10.5582 79.9124 10.5582V10.5582ZM79.9124 79.9408C37.6984 79.9314 16.5914 79.9219 16.5914 79.9125C16.6008 37.6985 16.6102 16.5915 16.6197 16.5915C58.8337 16.6009 79.9407 16.6103 79.9407 16.6198C79.9312 58.8338 79.9218 79.9408 79.9124 79.9408ZM21.7385 38.8297H32.9283V74.8219H21.7385V38.8297ZM27.3381 33.9089C30.911 33.9089 33.8239 31.0053 33.8239 27.4231C33.8239 26.5714 33.6561 25.728 33.3302 24.9411C33.0043 24.1542 32.5265 23.4392 31.9243 22.837C31.322 22.2347 30.607 21.757 29.8201 21.431C29.0332 21.1051 28.1898 20.9373 27.3381 20.9373C26.4864 20.9373 25.643 21.1051 24.8561 21.431C24.0692 21.757 23.3543 22.2347 22.752 22.837C22.1497 23.4392 21.672 24.1542 21.3461 24.9411C21.0201 25.728 20.8524 26.5714 20.8524 27.4231C20.8429 31.0053 23.7464 33.9089 27.3381 33.9089ZM51.1224 57.0144C51.1224 52.3197 52.018 47.7759 57.8344 47.7759C63.566 47.7759 63.6508 53.1399 63.6508 57.316V74.8219H74.8312V55.0818C74.8312 45.3909 72.7385 37.9342 61.4167 37.9342C55.9773 37.9342 52.329 40.9225 50.8302 43.7506H50.6793V38.8297H39.942V74.8219H51.1224V57.0144Z" fill="#006192"/>
</g>
</svg>
