<svg width="97" height="97" viewBox="0 0 97 97" fill="none" xmlns="http://www.w3.org/2000/svg">
<g opacity="0.8">
<rect y="0.0322571" width="96.5323" height="96.5323" rx="33.0968" fill="#F5EDED"/>
<path d="M67.2615 56.5847C66.234 56.0568 61.1152 53.5492 60.163 53.2098C59.2109 52.8516 58.5133 52.6819 57.8251 53.7377C57.1275 54.7841 55.1479 57.1126 54.5257 57.8196C53.9224 58.5172 53.3096 58.6021 52.2821 58.0836C46.1734 55.0292 42.1669 52.6348 38.1416 45.7248C37.0764 43.8866 39.2069 44.0185 41.1959 40.0498C41.5353 39.3522 41.3656 38.7583 41.1017 38.2304C40.8377 37.7025 38.7638 32.593 37.8965 30.5097C37.0575 28.4829 36.1902 28.7657 35.5586 28.728C34.9553 28.6903 34.2671 28.6903 33.5695 28.6903C32.8719 28.6903 31.7501 28.9542 30.798 29.9818C29.8459 31.0282 27.1592 33.5452 27.1592 38.6546C27.1592 43.764 30.8828 48.7132 31.3919 49.4108C31.9198 50.1084 38.7167 60.5912 49.1523 65.1067C55.7512 67.9536 58.3342 68.1987 61.6336 67.7085C63.6416 67.4069 67.78 65.201 68.6379 62.7594C69.4957 60.3272 69.4957 58.2438 69.2412 57.8102C68.9867 57.3483 68.2891 57.0843 67.2615 56.5847Z" fill="#4FCE5D"/>
<path d="M87.2184 31.9332C85.0879 26.8709 82.0335 22.3271 78.1402 18.4243C74.2469 14.5309 69.7031 11.4672 64.6313 9.34611C59.4465 7.16848 53.9411 6.06552 48.2661 6.06552H48.0776C42.3648 6.0938 36.8312 7.22504 31.6275 9.44981C26.6029 11.5992 22.0968 14.6535 18.2412 18.5468C14.3856 22.4402 11.3595 26.9651 9.2667 32.0086C7.0985 37.2311 6.00497 42.7836 6.03325 48.4964C6.06153 55.0387 7.62641 61.5339 10.5582 67.3409V81.6699C10.5582 84.0643 12.5002 86.0063 14.8946 86.0063H29.233C35.0401 88.9381 41.5352 90.503 48.0776 90.5313H48.2755C53.9223 90.5313 59.3994 89.4377 64.5559 87.2978C69.5994 85.1956 74.1337 82.1789 78.0176 78.3233C81.911 74.4677 84.9748 69.9616 87.1147 64.937C89.3394 59.7333 90.4707 54.1997 90.499 48.4869C90.5272 42.7459 89.4149 37.1746 87.2184 31.9332V31.9332ZM72.9742 73.2233C66.3659 79.7656 57.5988 83.3667 48.2661 83.3667H48.1058C42.4214 83.3385 36.7746 81.9244 31.7878 79.266L30.9959 78.8418H17.7227V65.5686L17.2985 64.7767C14.6401 59.7899 13.226 54.1431 13.1978 48.4586C13.16 39.0599 16.7517 30.2363 23.3412 23.5903C29.9212 16.9443 38.7166 13.2677 48.1153 13.23H48.2755C52.989 13.23 57.5611 14.1444 61.8692 15.9544C66.0737 17.7173 69.8445 20.2531 73.0873 23.496C76.3208 26.7295 78.8661 30.5097 80.6289 34.7141C82.4578 39.0694 83.3722 43.6886 83.3533 48.4586C83.2968 57.8479 79.6108 66.6433 72.9742 73.2233V73.2233Z" fill="#4FCE5D"/>
</g>
</svg>
